<ttFont>
          <CharString index="0">
            rmoveto
            3 -2 rlineto
            -12 -25 -6 -17 -16 vvcurveto
            -27 8 -23 48 47 49 1 callsubr
            71 451 rlineto
            -38 hlineto
            -25 -35 rlineto
            5 -10 -54 26 -101 callgsubr
            return
          </CharString>
          <CharString index="1">
            rmoveto
            153 87 153 200 107 -41 62 -94 -153 -90 -155 -200 -107 47 -60 91 -17 callsubr
            -75 -19 29 120 114 41 107 16 15 hvcurveto
            12 13 29 6 22 hhcurveto
            75 18 -34 -115 -114 -39 -111 -16 -15 hvcurveto
            -12 -13 -30 -2 -22 hhcurveto
            return
          </CharString>
          <CharString index="2">
            rmoveto
            228 103 203 210 163 -82 95 -157 -207 -116 -197 -215 -161 82 -98 149 hvcurveto
            28 51 rmoveto
            -130 -38 72 161 199 62 137 149 124 45 -64 -153 -207 -54 -145 -158 hvcurveto
            return
          </CharString>
          <CharString index="3">
            rmoveto
            -81 callgsubr
            -102 callsubr
            rlineto
            return
          </CharString>
          <CharString index="4">
            -27 callgsubr
            -15 -44 -318 rlineto
            -146 -20 -41 -86 -111 hhcurveto
            -114 -27 43 93 26 2 32 5 38 hvcurveto
            45 319 73 -62 callsubr
            -219 -64 callsubr
            return
          </CharString>
          <CharString index="5">
            43 317 -101 callsubr
            return
          </CharString>
          <CharString index="6">
            73 15 4 37 rlineto
            -201 -103 callsubr
            return
          </CharString>
          <CharString index="7">
            rmoveto
            51 hlineto
            1 10 3 8 26 8 rrcurveto
            43 13 26 26 35 vvcurveto
            41 -47 21 -74 -53 -12 -19 -15 -6 1 -11 5 -11 vhcurveto
            5 21 24 3 19 hhcurveto
            33 13 -8 -10 -12 -10 -13 -30 -11 hvcurveto
            -31 -11 -12 -12 -16 vvcurveto
            -5 1 -5 2 -5 vhcurveto
            return
          </CharString>
          <CharString index="8">
            rmoveto
            48 5 rlineto
            18 2 7 30 12 vhcurveto
            43 18 25 20 36 vvcurveto
            48 -45 24 -74 -50 -15 -10 -29 -7 1 -7 4 -9 vhcurveto
            5 22 24 3 19 hhcurveto
            33 12 -8 -15 -17 -11 -8 -29 -14 hvcurveto
            -32 -13 -12 -12 -20 vvcurveto
            -8 2 -8 3 -11 vhcurveto
            return
          </CharString>
          <CharString index="9">
            rmoveto
            -7 -44 93 -17 -39 -278 rlineto
            -35 -44 -47 -22 -56 hhcurveto
            -85 -27 50 79 26 3 27 4 29 hvcurveto
            17 126 84 15 7 44 rlineto
            -251 hlineto
            -7 -44 80 -15 -20 -142 rlineto
            -4 -28 -2 -26 -24 vvcurveto
            -111 43 -69 132 61 49 15 32 52 vhcurveto
            -106 -16 -48 -93 -116 hhcurveto
            -42 -44 12 27 -45 hvcurveto
            -13 111 rlineto
            -47 hlineto
            -19 -143 rlineto
            -40 68 67 -18 73 hhcurveto
            148 96 70 193 27 hvcurveto
            48 340 75 15 7 44 rlineto
            endchar
          </CharString>
          <CharString index="10">
            rmoveto
            138 76 74 108 18 hvcurveto
            83 497 -72 -12 -56 -319 rlineto
            -26 -27 -63 -55 -49 hhcurveto
            -30 -9 16 28 24 3 12 2 14 hvcurveto
            37 243 rlineto
            69 -36 callgsubr
            -44 -246 rlineto
            -3 -19 -4 -54 callgsubr
            71 80 31 25 vhcurveto
            3 -2 -23 -30 1 -7 -22 -105 rlinecurve
            -100 -21 -40 -17 -73 hhcurveto
            -58 -29 29 0 -14 callsubr
            -61 55 -30 91 vhcurveto
            endchar
          </CharString>
          <CharString index="11">
            rmoveto
            129 84 66 116 19 -14 callgsubr
            19 -36 -46 12 -38 hhcurveto
            -103 -113 -169 -155 -101 41 -56 74 55 83 63 58 22 -13 callgsubr
            -89 -19 -32 -28 -83 hhcurveto
            -33 -37 12 17 -17 -14 callsubr
            -59 52 -32 94 vhcurveto
            58 258 rmoveto
            -35 -25 44 63 77 34 123 33 41 hvcurveto
            8 6 4 1 18 hhcurveto
            37 56 -17 -22 40 hvcurveto
            -40 -232 rlineto
            -50 -45 -53 -36 -30 hhcurveto
            endchar
          </CharString>
          <CharString index="12">
            rmoveto
            -29 callgsubr
            193 -10 callsubr
            -68 14 66 468 rlineto
            5 hlineto
            4 -11 205 -508 rlineto
            77 hlineto
            84 597 -61 callsubr
            -193 hlineto
            -3 -37 68 -14 -66 -466 -1 -10 rlineto
            -5 hlineto
            -4 11 -207 516 rlineto
            -145 -82 callsubr
            return
          </CharString>
          <CharString index="13">
            rmoveto
            41 -19 11 -13 10 vhcurveto
            -55 -39 rlineto
            -15 vlineto
            13 -9 8 -8 -17 vvcurveto
            -31 -20 -9 -43 vhcurveto
            -128 -77 callgsubr
            186 63 100 190 26 vhcurveto
            42 308 rlineto
            109 35 25 63 29 vvcurveto
            return
          </CharString>
          <CharString index="14">
            rmoveto
            130 54 rlineto
            32 13 18 13 25 vvcurveto
            19 -13 21 -21 10 vhcurveto
            -168 -120 rlineto
            return
          </CharString>
          <CharString index="15">
            rmoveto
            41 -19 11 -13 10 vhcurveto
            -55 -39 rlineto
            -15 vlineto
            13 -9 8 -8 -17 vvcurveto
            -32 -25 -31 -30 -26 vhcurveto
            82 -10 -42 46 -81 hhcurveto
            -153 -90 -155 -200 -107 47 -60 91 153 87 153 200 hvcurveto
            5 vlineto
            90 61 29 53 37 vvcurveto
            -256 -436 rmoveto
            -12 -13 -30 -2 -22 hhcurveto
            -75 -19 29 120 114 41 107 16 15 hvcurveto
            12 13 29 6 22 hhcurveto
            75 18 -34 -115 -114 -39 -111 -16 -15 hvcurveto
            return
          </CharString>
          <CharString index="16">
            -30 34 -78 rlinecurve
            61 -140 rlineto
            -20 8 21 -11 21 hhcurveto
            95 -10 callsubr
            -77 28 -65 147 -19 43 -16 24 -26 18 rlinecurve
            120 29 65 79 2 98 rrcurveto
            93 -61 52 -110 vhcurveto
            -222 -27 callgsubr
            -14 -8 callsubr
            188 291 rmoveto
            39 269 rlineto
            0 22 3 40 84 19 -47 -70 -104 -78 -51 -126 vhcurveto
            return
          </CharString>
          <CharString index="17">
            rmoveto
            10 callgsubr
            82 hlineto
            62 396 -69 callgsubr
            47 46 -54 callsubr
            -75 vlineto
            47 277 rlineto
            3 20 6 32 27 vvcurveto
            50 -22 41 -69 -62 -76 -55 -19 -24 -30 callgsubr
            return
          </CharString>
          <CharString index="18">
            rmoveto
            -66 -363 rlineto
            -2 -8 -1 -10 -6 vvcurveto
            -37 17 -14 42 47 46 31 0 vhcurveto
            -2 callsubr
            return
          </CharString>
          <CharString index="19">
            rmoveto
            -21 19 rlineto
            0 -60 -71 -85 -63 -21 68 0 vhcurveto
            -21 -9 -26 -16 -16 vvcurveto
            -35 39 -55 79 113 66 115 0 vhcurveto
            return
          </CharString>
          <CharString index="20">
            rmoveto
            75 6 61 76 53 83 36 73 rlinecurve
            12 -126 rlineto
            -112 vlineto
            75 6 rlineto
            153 174 93 210 76 vvcurveto
            37 -74 19 -55 vhcurveto
            -19 -36 72 -49 -16 -110 -67 -126 -85 -120 rlinecurve
            -9 62 hlineto
            -15 220 rlineto
            15 37 8 38 23 vvcurveto
            29 -11 22 -45 -13 -28 -3 -4 -14 vhcurveto
            15 -168 -27 -75 -52 -83 -61 -98 rlinecurve
            -9 62 hlineto
            -23 371 -147 -16 rlineto
            -37 vlineto
            75 -19 27 -330 rlineto
            endchar
          </CharString>
          <CharString index="21">
            -78 callgsubr
            -218 -69 callsubr
            return
          </CharString>
          <CharString index="22">
            -71 callsubr
            95 -30 -76 54 -118 hhcurveto
            -207 -116 -197 -215 -161 82 -98 149 228 103 203 210 29 -3 26 -5 25 hvcurveto
            116 69 36 62 41 vvcurveto
            -447 -614 -49 callgsubr
          </CharString>
          <CharString index="23">
            -89 callsubr
            endchar
          </CharString>
          <CharString index="24">
            rmoveto
            130 -54 22 35 -168 120 rlineto
            -21 -10 -13 -21 -19 vvcurveto
            -25 18 -13 32 -13 vhcurveto
            return
          </CharString>
          <CharString index="25">
            -67 callgsubr
            rlineto
            return
          </CharString>
          <CharString index="26">
            rmoveto
            97 85 70 80 72 -56 43 -53 37 hvcurveto
            -49 34 -47 29 44 vvcurveto
            41 29 17 70 20 25 -5 -6 14 vhcurveto
            8 -92 rlineto
            25 hlineto
            26 11 19 30 30 vvcurveto
            54 -50 33 -83 -90 -83 -63 -69 -68 52 -41 51 -36 vhcurveto
            51 -35 49 -30 -45 vvcurveto
            -59 -29 -24 -71 -28 -32 7 10 -15 vhcurveto
            -8 98 rlineto
            -25 hlineto
            -14 -31 -52 -24 -62 45 -29 98 hvcurveto
            return
          </CharString>
          <CharString index="27">
            16 7 75 43 60 vvcurveto
            42 -24 16 -27 -26 -13 -15 -8 -5 vhcurveto
            10 -9 14 -17 -31 vvcurveto
            -38 -37 -33 0 vhcurveto
            endchar
          </CharString>
          <CharString index="28">
            -21 33 rlineto
            0 -54 -43 -45 -67 -28 28 123 125 58 105 7 5 vhcurveto
            10 13 22 3 20 hhcurveto
            44 21 -8 0 hvcurveto
            8 -98 rlineto
            25 hlineto
            0 45 25 55 vvcurveto
            61 -39 25 -72 -156 -78 -192 -170 return
          </CharString>
          <CharString index="29">
            -51 -285 rlineto
            -4 -19 -3 -17 -36 vvcurveto
            -64 31 -19 45 return
          </CharString>
          <CharString index="30">
            -13 callsubr
            60 404 rlineto
            72 -36 callgsubr
            -68 -436 -43 callsubr
            return
          </CharString>
          <CharString index="31">
            -50 hhcurveto
            -162 -63 -266 -97 -97 33 -62 85 61 57 60 55 31 hvcurveto
            return
          </CharString>
          <CharString index="32">
            rmoveto
            9 16 7 48 51 hvcurveto
            65 61 -25 33 -102 -72 -98 69 -35 -38 58 -59 rlineto
            -10 10 40 -39 11 hhcurveto
            return
          </CharString>
          <CharString index="33">
            rmoveto
            -29 callgsubr
            217 hlineto
            213 148 167 239 154 -94 88 -165 hvcurveto
            -231 -82 callsubr
            79 hmoveto
            -12 callsubr
            rlineto
            2 7 24 2 29 hhcurveto
            139 60 -68 -156 hvcurveto
            -208 -3 -97 -124 -160 hhcurveto
            -22 -34 3 3 -20 hvcurveto
            return
          </CharString>
          <CharString index="34">
            219 -10 callsubr
            -68 14 return
          </CharString>
          <CharString index="35">
            561 rmoveto
            36 22 -49 162 rlineto
            -59 -14 -9 -23 -17 vvcurveto
            -12 6 -16 20 -28 vhcurveto
            207 -74 rmoveto
            36 22 -49 162 rlineto
            -59 -14 -9 -23 -17 vvcurveto
            -12 6 -16 20 -28 vhcurveto
            return
          </CharString>
          <CharString index="36">
            rmoveto
            41 -19 11 -13 10 vhcurveto
            -55 -39 rlineto
            -15 vlineto
            13 -9 8 -8 -17 vvcurveto
            -44 -48 -43 -45 -30 vhcurveto
            return
          </CharString>
          <CharString index="37">
            1 callgsubr
            -25 -26 -64 -57 -50 hhcurveto
            -30 -9 16 28 24 3 12 2 14 hvcurveto
            44 282 rlineto
            69 -36 callgsubr
            -78 callsubr
            return
          </CharString>
          <CharString index="38">
            -64 callsubr
            68 -14 return
          </CharString>
          <CharString index="39">
            3 -2 rlineto
            -12 -25 -6 -17 -16 vvcurveto
            -27 8 -23 48 47 49 1 callsubr
            71 451 rlineto
            -38 hlineto
            -25 -35 rlineto
            6 -11 -53 25 -50 hhcurveto
            -162 -63 -266 -97 -97 33 -62 85 return
          </CharString>
          <CharString index="40">
            568 rmoveto
            0 47 87 74 65 8 -50 -36 3 vhcurveto
            17 28 6 17 12 hvcurveto
            4 6 2 6 8 vvcurveto
            40 -36 63 -85 -124 -36 -129 0 vhcurveto
            return
          </CharString>
          <CharString index="41">
            714 rmoveto
            21 -19 rlineto
            0 60 71 85 63 21 -68 0 vhcurveto
            21 9 26 16 16 vvcurveto
            35 -39 55 -79 -113 -66 -115 0 vhcurveto
            return
          </CharString>
          <CharString index="42">
            5 37 rlineto
            -187 hlineto
            -5 -37 73 -15 rlineto
            -17 vlineto
            return
          </CharString>
          <CharString index="43">
            hlineto
            -4 -37 return
          </CharString>
          <CharString index="44">
            -73 callsubr
            -12 callsubr
            return
          </CharString>
          <CharString index="45">
            14 4 37 rlineto
            return
          </CharString>
          <CharString index="46">
            71 -62 callsubr
            return
          </CharString>
          <CharString index="47">
            rmoveto
            63 36 53 58 44 -29 27 -54 -63 -36 -53 -58 -44 29 -27 54 hvcurveto
            9 44 rmoveto
            -30 -10 12 25 35 9 20 28 28 12 -9 -25 -35 -9 -23 -28 hvcurveto
            return
          </CharString>
          <CharString index="48">
            rmoveto
            -70 -21 38 125 hvcurveto
            142 5 114 88 109 vvcurveto
            56 -45 41 -61 -44 -40 -17 -33 -34 vhcurveto
            29 -49 -60 21 -35 hhcurveto
            -111 -114 -184 -179 -106 40 -53 78 55 53 37 61 33 hvcurveto
            -71 11 39 -27 88 hhcurveto
            53 68 31 43 40 -10 callgsubr
            -26 -37 -45 -17 -29 hhcurveto
            -172 122 rmoveto
            -59 -7 -59 -64 -48 hhcurveto
            -43 -16 32 89 104 28 107 43 59 hvcurveto
            8 6 11 4 16 hhcurveto
            36 48 -18 -34 49 hvcurveto
            -36 -61 -24 -85 -4 -82 rrcurveto
            142 266 rmoveto
            9 6 21 5 30 hhcurveto
            40 22 -21 -37 -75 -66 -52 -112 -13 hvcurveto
            10 81 19 57 30 46 rrcurveto
            endchar
          </CharString>
          <CharString index="49">
            rmoveto
            -97 -558 -24 callgsubr
            47 42 1 callsubr
            88 561 rlineto
            72 vlineto
            -147 -66 callgsubr
            return
          </CharString>
          <CharString index="50">
            561 rmoveto
            76 74 rlineto
            16 16 27 27 21 vvcurveto
            17 -7 17 -47 12 vhcurveto
            -95 -162 rlineto
            182 -22 rmoveto
            76 74 rlineto
            16 16 27 27 21 vvcurveto
            17 -7 17 -47 12 vhcurveto
            -95 -162 rlineto
            return
          </CharString>
          <CharString index="51">
            -63 callsubr
            -3 callsubr
            52 hlineto
            -44 callgsubr
            -39 callgsubr
            return
          </CharString>
          <CharString index="52">
            rlineto
            -20 vlineto
            52 -27 rlineto
            12 -7 11 -8 -11 vvcurveto
            -16 -14 -7 -30 -33 -13 7 9 -14 vhcurveto
            return
          </CharString>
          <CharString index="53">
            31 0 vhcurveto
            39 return
          </CharString>
          <CharString index="54">
            rmoveto
            29 68 rlineto
            -2 10 10 -1 11 hhcurveto
            153 87 153 200 68 -17 49 -36 28 hvcurveto
            26 60 -48 22 -27 -61 rlineto
            2 -10 -12 1 -11 hhcurveto
            -153 -90 -155 -200 -68 19 -50 37 -26 hvcurveto
            -28 -64 rlineto
            65 146 rmoveto
            -8 23 -3 33 47 vvcurveto
            114 41 107 16 15 vhcurveto
            12 13 29 6 22 hhcurveto
            18 15 -2 -5 12 hvcurveto
            -72 -396 rmoveto
            -17 -13 1 4 -12 hvcurveto
            152 346 rlineto
            7 -23 3 -31 -43 vvcurveto
            -114 -39 -111 -16 -15 vhcurveto
            -12 -13 -30 -2 -22 hhcurveto
            endchar
          </CharString>
          <CharString index="55">
            rmoveto
            -5 -37 rlineto
            195 hlineto
            4 37 -68 15 rlineto
            17 vlineto
            143 211 rlineto
            163 hlineto
            -32 -229 -71 -14 3 callsubr
            -37 -38 3 3 -18 hvcurveto
            33 229 rlineto
            132 hlineto
            5 -59 rlineto
            36 hlineto
            21 162 rlineto
            -36 hlineto
            -21 -59 rlineto
            -131 hlineto
            39 273 11 callsubr
            -353 hlineto
            -399 -596 rlineto
            383 272 rmoveto
            -142 hlineto
            178 272 rlineto
            4 hlineto
            endchar
          </CharString>
          <CharString index="56">
            rmoveto
            -8 -63 rlineto
            282 hlineto
            8 63 rlineto
            return
          </CharString>
          <CharString index="57">
            rmoveto
            138 76 74 108 18 -14 callgsubr
            16 -30 -45 15 -45 hhcurveto
            -155 -61 -246 -78 -118 54 -39 61 79 69 89 32 12 -13 callgsubr
            -100 -21 -40 -17 -73 hhcurveto
            -58 -29 29 0 hvcurveto
            94 -33 vlineto
            0 -45 -26 -55 vvcurveto
            -61 55 -30 91 vhcurveto
            58 258 rmoveto
            -16 -44 9 98 100 45 113 22 28 hvcurveto
            8 6 5 1 17 hhcurveto
            63 70 -39 0 hvcurveto
            -40 -232 rlineto
            0 -76 -86 -52 vhcurveto
            endchar
          </CharString>
          <CharString index="58">
            rmoveto
            62 35 50 53 41 -28 25 -54 -62 -35 -49 -53 -41 29 -26 53 hvcurveto
            9 44 rmoveto
            -30 -10 9 23 32 9 17 28 27 12 -7 -23 -32 -9 -19 -27 hvcurveto
            return
          </CharString>
          <CharString index="59">
            -24 83 -163 rmoveto
            29 22 19 9 6 hvcurveto
            -36 54 -3 67 20 vvcurveto
            -8 8 1 4 rlineto
            -14 15 19 -10 23 hhcurveto
            99 59 81 30 22 -3 callgsubr
            -360 rlineto
            -26 -24 -55 -53 -51 hhcurveto
            -21 -30 2 37 24 5 17 2 14 hvcurveto
            55 355 rlineto
            -11 hlineto
            -73 -12 rlineto
            -65 vlineto
            -49 -285 rlineto
            -14 -81 -14 -57 -102 vvcurveto
            -36 3 -36 35 vhcurveto
            endchar
          </CharString>
          <CharString index="60">
            vvcurveto
            -70 -39 -46 -105 -36 -35 11 16 -15 -47 callgsubr
            return
          </CharString>
          <CharString index="61">
            37 rmoveto
            -29 callgsubr
            217 hlineto
            213 148 167 239 154 -94 88 -165 hvcurveto
            -231 -69 callsubr
            -33 -234 rlineto
            -86 hlineto
            -8 -52 rlineto
            86 hlineto
            -36 -260 rlineto
            79 hmoveto
            36 260 rlineto
            145 hlineto
            8 52 rlineto
            -145 hlineto
            33 234 rlineto
            2 7 24 2 29 hhcurveto
            139 60 -68 -156 hvcurveto
            -208 -3 -97 -124 -160 hhcurveto
            -22 -34 3 3 -20 hvcurveto
            endchar
          </CharString>
          <CharString index="62">
            rlineto
            69 -85 callgsubr
            return
          </CharString>
          <CharString index="63">
            699 -102 callgsubr
            return
          </CharString>
          <CharString index="64">
            -8 -53 -23 -25 -5 -5 rlinecurve
            -6 -6 -24 -6 -28 hhcurveto
            return
          </CharString>
          <CharString index="65">
            rmoveto
            -11 -105 47 -8 28 115 rlineto
            75 14 52 52 0 vvcurveto
            -21 33 rlineto
            0 -59 -40 -45 -67 -23 28 123 125 80 123 7 5 vhcurveto
            10 13 22 3 20 hhcurveto
            44 21 -8 0 hvcurveto
            8 -98 rlineto
            25 hlineto
            0 45 25 55 vvcurveto
            52 -27 26 -53 6 vhcurveto
            12 110 -47 8 -30 -120 rlineto
            -135 -29 -87 -191 -156 vvcurveto
            -101 30 -49 76 -8 vhcurveto
            endchar
          </CharString>
          <CharString index="66">
            53 39 62 74 61 vvcurveto
            37 -17 24 -39 -39 -25 -36 -36 -28 18 -19 23 5 6 1 3 5 vhcurveto
            1 -3 -73 -99 rlineto
            endchar
          </CharString>
          <CharString index="67">
            -45 rmoveto
            385 580 -45 32 -388 -579 rlineto
            16 249 -16 callsubr
            369 -296 rmoveto
            -35 callgsubr
            return
          </CharString>
          <CharString index="68">
            rmoveto
            -21 callsubr
            hvcurveto
            39 -75 vlineto
            47 277 rlineto
            3 20 6 32 27 vvcurveto
            50 -22 41 -69 -62 -76 -55 -19 -24 vhcurveto
            68 -36 callgsubr
            10 callgsubr
            82 hlineto
            62 396 -69 callgsubr
            vhcurveto
            endchar
          </CharString>
          <CharString index="69">
            -69 hlineto
            1 -14 -13 -27 -28 13 -8 26 return
          </CharString>
          <CharString index="70">
            37 -68 callgsubr
            return
          </CharString>
          <CharString index="71">
            120 19 37 -34 callsubr
            return
          </CharString>
          <CharString index="72">
            rmoveto
            -21 callsubr
            hvcurveto
            -2 callsubr
            79 -17 -66 -363 rlineto
            -2 -8 -1 -10 -6 vvcurveto
            -37 17 -14 42 vhcurveto
            endchar
          </CharString>
          <CharString index="73">
            rmoveto
            -4 -9 callsubr
            36 254 rlineto
            261 hlineto
            -36 -254 -71 -14 -86 callsubr
            -33 -237 rlineto
            -261 hlineto
            33 237 -65 callgsubr
            return
          </CharString>
          <CharString index="74">
            94 72 81 30 24 return
          </CharString>
          <CharString index="75">
            19 37 -95 callsubr
            return
          </CharString>
          <CharString index="76">
            vvcurveto
            -49 34 -14 41 61 44 47 0 vhcurveto
            return
          </CharString>
          <CharString index="77">
            20 -23 31 return
          </CharString>
          <CharString index="78">
            -259 179 -63 callgsubr
            -43 -157 -89 callsubr
            return
          </CharString>
          <CharString index="79">
            -33 -36 18 50 99 32 43 62 33 36 -18 -50 -99 -32 -43 -62 hvcurveto
            return
          </CharString>
          <CharString index="80">
            -28 callgsubr
            -28 -13 16 24 return
          </CharString>
          <CharString index="81">
            280 rlineto
            23 vlineto
            73 15 4 37 rlineto
            return
          </CharString>
          <CharString index="82">
            -41 -28 -52 -63 -47 hhcurveto
            -49 -10 44 77 107 30 106 41 57 hvcurveto
            7 5 9 5 19 hhcurveto
            48 44 -20 -23 34 hvcurveto
            endchar
          </CharString>
          <CharString index="83">
            62 366 rlineto
            75 return
          </CharString>
          <CharString index="84">
            rmoveto
            99 95 rlineto
            19 18 38 42 7 vvcurveto
            12 -29 37 -12 18 vhcurveto
            -80 104 -28 -20 67 -150 -95 -147 rlineto
            return
          </CharString>
          <CharString index="85">
            rlineto
            72 vlineto
            -148 -66 callgsubr
            return
          </CharString>
          <CharString index="86">
            47 46 31 0 return
          </CharString>
          <CharString index="87">
            rmoveto
            58 -59 rlineto
            -10 10 40 -39 11 hhcurveto
            9 16 7 48 51 hvcurveto
            65 61 -25 33 -102 -72 -98 69 rlineto
            return
          </CharString>
          <CharString index="88">
            20 20 8 18 14 hvcurveto
            32 41 -18 25 -67 -31 -119 21 rlineto
            5 -29 -54 7 -23 hhcurveto
            -23 -1 -19 -9 -13 -17 -31 -41 rcurveline
            19 -23 67 29 117 -20 rlineto
            -7 30 46 -5 31 hhcurveto
            return
          </CharString>
          <CharString index="89">
            634 rmoveto
            67 -23 rlineto
            -8 21 24 -8 18 hhcurveto
            20 16 18 22 18 hvcurveto
            35 42 -19 19 -71 -35 -67 23 rlineto
            7 -22 -25 9 -17 hhcurveto
            -20 -15 -14 -23 -18 hvcurveto
            -35 -45 19 -19 rlineto
            return
          </CharString>
          <CharString index="90">
            hvcurveto
            38 59 rmoveto
            return
          </CharString>
          <CharString index="91">
            rmoveto
            -35 callgsubr
            11 51 rmoveto
            -28 callsubr
            return
          </CharString>
          <CharString index="92">
            624 rmoveto
            21 13 33 23 21 vvcurveto
            18 -7 22 -35 12 vhcurveto
            -139 -142 26 -32 rlineto
            return
          </CharString>
          <CharString index="93">
            hvcurveto
            94 -33 vlineto
            -26 -15 -19 -34 -32 vvcurveto
            return
          </CharString>
          <CharString index="94">
            102 94 64 140 21 hvcurveto
            return
          </CharString>
          <CharString index="95">
            77 546 return
          </CharString>
          <CharString index="96">
            -130 rmoveto
            -1 callgsubr
            62 74 38 0 vhcurveto
            -39 hlineto
            -60 -28 -41 -47 -53 -31 callsubr
            endchar
          </CharString>
          <CharString index="97">
            hlineto
            3 37 return
          </CharString>
          <CharString index="98">
            -37 rlineto
            -73 callsubr
            return
          </CharString>
          <CharString index="99">
            9 callgsubr
            rlineto
            return
          </CharString>
          <CharString index="100">
            369 -151 -16 rlineto
            -37 vlineto
            75 -19 30 -330 rlineto
            -114 vlineto
            -65 -94 rlineto
            -100 hlineto
            -2 -41 rlineto
            -23 29 27 -3 25 hhcurveto
            endchar
          </CharString>
          <CharString index="101">
            -88 callsubr
            endchar
          </CharString>
          <CharString index="102">
            5 33 8 53 23 25 5 5 rlinecurve
            6 6 24 6 28 hhcurveto
            69 hlineto
            return
          </CharString>
          <CharString index="103">
            rmoveto
            -41 -291 rlineto
            40 hlineto
            60 176 rlineto
            10 29 16 52 20 vvcurveto
            13 -5 14 -26 -14 -18 -4 -9 -22 vhcurveto
            endchar
          </CharString>
          <CharString index="104">
            rlineto
            121 hlineto
            -7 -113 rlineto
            return
          </CharString>
          <CharString index="105">
            39 -73 vlineto
            -24 callsubr
            -85 callgsubr
            return
          </CharString>
          <CharString index="106">
            rmoveto
            28 20 -67 150 95 147 -21 16 -99 -95 rlineto
            -19 -18 -38 -42 -7 vvcurveto
            -12 29 -37 12 -18 vhcurveto
            return
          </CharString>
          <CharString index="107">
            -64 callsubr
            54 return
          </CharString>
          <CharString index="108">
            -54 callsubr
            -73 vlineto
            return
          </CharString>
          <CharString index="109">
            -5 -5 rlinecurve
            -6 -6 -24 -6 -28 hhcurveto
            -38 callsubr
            102 return
          </CharString>
          <CharString index="110">
            -29 callgsubr
            409 hlineto
            19 152 rlineto
            -42 hlineto
            -38 -107 rlineto
            -102 hlineto
            return
          </CharString>
          <CharString index="111">
            hlineto
            2 14 rlineto
            72 vlineto
            -122 -16 rlineto
            -24 vlineto
            53 -32 -3 -14 rlineto
            return
          </CharString>
          <CharString index="112">
            28 -13 8 -26 -102 -90 -73 -131 -20 return
          </CharString>
          <CharString index="113">
            -69 hlineto
            -16 -25 rlineto
            -32 76 vlineto
            endchar
          </CharString>
          <CharString index="114">
            -87 -73 -131 -20 vhcurveto
            -72 hlineto
            -16 -25 rlineto
            -32 79 vlineto
            return
          </CharString>
          <CharString index="115">
            hvcurveto
            14 136 rlineto
            return
          </CharString>
          <CharString index="116">
            -28 -13 16 24 return
          </CharString>
          <CharString index="117">
            hlineto
            -10 -134 rlineto
            40 hlineto
            17 79 111 7 return
          </CharString>
          <CharString index="118">
            80 5 rlineto
            101 -110 49 hlineto
            -19 callgsubr
            return
          </CharString>
          <CharString index="119">
            107 466 648 rmoveto
            -3 -37 68 -14 return
          </CharString>
          <CharString index="120">
            -67 callgsubr
            -71 -14 return
          </CharString>
        <CharString name=".notdef">
          -362 endchar
        </CharString>
        <CharString name="A">
          -37 -46 37 -107 callgsubr
          endchar
        </CharString>
        <CharString name="AE">
          144 -96 37 -52 callsubr
        </CharString>
        <CharString name="AEacute">
          144 417 681 -93 callsubr
          -491 -679 -52 callsubr
        </CharString>
        <CharString name="Aacute">
          -37 229 680 -93 callsubr
          -253 -678 -107 callgsubr
          endchar
        </CharString>
        <CharString name="Abreve">
          -37 458 810 -88 callsubr
          -504 -773 -107 callgsubr
          endchar
        </CharString>
        <CharString name="Acircumflex">
          -37 169 728 -99 callgsubr
          -286 -744 -107 callgsubr
          endchar
        </CharString>
        <CharString name="Adieresis">
          -37 200 703 -87 callgsubr
          -457 -666 -107 callgsubr
          endchar
        </CharString>
        <CharString name="Agrave">
          -37 242 735 -83 callsubr
          -288 -698 -107 callgsubr
          endchar
        </CharString>
        <CharString name="Amacron">
          -37 165 782 -51 callsubr
          -493 -745 -107 callgsubr
          endchar
        </CharString>
        <CharString name="Aogonek">
          -37 399 hmoveto
          95 -10 callsubr
          -58 12 -113 604 rlineto
          -42 hlineto
          -275 -601 -55 -15 -5 -37 rlineto
          187 hlineto
          4 37 -68 15 rlineto
          17 vlineto
          53 117 -22 callgsubr
          20 -111 rlineto
          -23 vlineto
          -70 -15 -3 -37 rlineto
          73 hlineto
          -45 -28 -30 -41 -45 -27 callsubr
          40 29 30 23 16 vhcurveto
          -248 243 rmoveto
          111 248 12 27 1 3 5 -27 45 -251 rlineto
          endchar
        </CharString>
        <CharString name="Aring">
          -37 305 662 -49 callsubr
          -360 -669 -107 callgsubr
          endchar
        </CharString>
        <CharString name="Aringacute">
          -37 304 864 -93 callsubr
          35 -237 -49 callsubr
          -372 -669 -107 callgsubr
          endchar
        </CharString>
        <CharString name="Atilde">
          -37 129 736 -97 callgsubr
          -212 -747 -107 callgsubr
          endchar
        </CharString>
        <CharString name="B">
          -4 20 37 rmoveto
          -29 callgsubr
          201 hlineto
          176 72 108 98 77 -57 37 -71 17 hvcurveto
          104 38 42 72 69 vvcurveto
          83 -64 49 -130 vhcurveto
          -185 -82 callsubr
          121 300 rmoveto
          34 245 rlineto
          0 18 5 25 70 42 -21 -78 -90 -69 -51 -120 -10 vhcurveto
          -42 -300 rmoveto
          36 261 rlineto
          125 -3 44 -42 -77 vvcurveto
          -94 -50 -51 -94 -47 -14 6 0 vhcurveto
          endchar
        </CharString>
        <CharString name="C">
          -15 432 167 -74 callgsubr
        </CharString>
        <CharString name="Cacute">
          -15 300 681 rmoveto
          130 54 rlineto
          36 15 14 14 22 vvcurveto
          20 -14 20 -20 10 vhcurveto
          -168 -120 rlineto
          154 -549 rmoveto
          -31 -97 rlineto
          -18 -23 -46 -12 -42 hhcurveto
          -109 -46 67 160 217 80 125 139 34 44 -9 -11 22 hvcurveto
          7 -96 rlineto
          42 hlineto
          22 147 rlineto
          13 -48 -56 7 -54 hhcurveto
          -185 -138 -178 -238 -172 74 -83 154 65 68 15 27 55 8 callsubr
          endchar
        </CharString>
        <CharString name="Cacute.loclPLK">
          -15 352 -33 callgsubr
          -29 -686 -74 callgsubr
        </CharString>
        <CharString name="Ccaron">
          -15 248 797 -20 callsubr
          149 -668 -74 callgsubr
        </CharString>
        <CharString name="Ccedilla">
          -15 183 -52 callgsubr
          18 vlineto
          79 3 59 23 33 16 14 136 rcurveline
          -42 hlineto
          -31 -97 rlineto
          0 -39 -30 -72 -113 -42 72 155 214 79 128 140 40 42 -11 -9 18 vhcurveto
          7 -96 rlineto
          42 hlineto
          22 147 rlineto
          8 -30 -54 12 -74 hhcurveto
          -183 -140 -176 -240 -144 50 -98 147 -12 hvcurveto
          -29 -39 -55 callsubr
          endchar
        </CharString>
        <CharString name="Ccircumflex">
          -15 252 728 -99 callgsubr
          109 -614 -74 callgsubr
        </CharString>
        <CharString name="Cdotaccent">
          -15 382 -44 callsubr
          50 -532 -74 callgsubr
        </CharString>
        <CharString name="D">
          -32 callgsubr
          endchar
        </CharString>
        <CharString name="Dcaron">
          81 258 835 rmoveto
          -35 -38 58 -59 rlineto
          -28 28 26 -21 7 hhcurveto
          12 25 18 37 39 hvcurveto
          65 61 -25 33 -102 -72 rlineto
          -342 -729 -74 callsubr
          endchar
        </CharString>
        <CharString name="Dcroat">
          81 14 -46 callsubr
        </CharString>
        <CharString name="E">
          -34 20 37 -106 callgsubr
          endchar
        </CharString>
        <CharString name="Eacute">
          -40 249 681 -93 callsubr
          -207 -679 -106 callgsubr
          endchar
        </CharString>
        <CharString name="Ebreve">
          -34 478 810 -88 callsubr
          -458 -773 -106 callgsubr
          endchar
        </CharString>
        <CharString name="Ecaron">
          -40 203 799 -20 callsubr
          -218 -800 -106 callgsubr
          endchar
        </CharString>
        <CharString name="Ecircumflex">
          -40 192 728 -99 callgsubr
          -243 -744 -106 callgsubr
          endchar
        </CharString>
        <CharString name="Edieresis">
          -40 220 693 -87 callgsubr
          -411 -656 -106 callgsubr
          endchar
        </CharString>
        <CharString name="Edotaccent">
          -40 325 -44 callsubr
          -305 -662 -106 callgsubr
          endchar
        </CharString>
        <CharString name="Egrave">
          -40 246 735 -83 callsubr
          -226 -698 -106 callgsubr
          endchar
        </CharString>
        <CharString name="Emacron">
          -40 194 782 -51 callsubr
          -456 -745 -106 callgsubr
          endchar
        </CharString>
        <CharString name="Eng">
          12 callsubr
          -63 -449 -4 -27 rlineto
          -5 hlineto
          -11 26 -200 501 rlineto
          -145 13 callsubr
          -29 callgsubr
          193 -10 callsubr
          -68 14 66 468 rlineto
          5 hlineto
          7 -17 204 -501 -9 -51 -22 -24 2 callsubr
          95 64 140 20 hvcurveto
          79 560 -61 callsubr
          endchar
        </CharString>
        <CharString name="Eogonek">
          -40 477 492 rmoveto
          -19 callgsubr
          -394 13 callsubr
          -29 callgsubr
          337 hlineto
          -45 -28 -30 -41 -45 -27 callsubr
          40 29 30 23 16 vhcurveto
          29 hlineto
          19 152 rlineto
          -42 hlineto
          -38 -107 rlineto
          -102 hlineto
          -36 -38 2 4 -18 hvcurveto
          37 263 rlineto
          132 hlineto
          5 -59 rlineto
          36 hlineto
          21 162 rlineto
          -36 hlineto
          -21 -59 rlineto
          -131 hlineto
          34 239 80 5 rlineto
          101 -110 hlineto
          endchar
        </CharString>
        <CharString name="Eth">
          91 19 -46 callsubr
        </CharString>
        <CharString name="Euro">
          3 385 660 rmoveto
          -152 -91 -99 -156 -45 hvcurveto
          -49 hlineto
          -27 -57 rlineto
          338 hlineto
          27 57 rlineto
          -211 hlineto
          111 25 55 93 106 hhcurveto
          36 38 -11 -9 16 hvcurveto
          7 -96 rlineto
          42 hlineto
          22 147 rlineto
          9 -30 -58 11 -49 hhcurveto
          11 -590 rmoveto
          -20 -27 -33 -10 -32 hhcurveto
          -99 -38 86 117 -5 hvcurveto
          153 hlineto
          27 57 rlineto
          -309 hlineto
          -27 -57 rlineto
          75 hlineto
          -152 4 69 -102 137 hhcurveto
          68 64 25 17 32 8 callsubr
          -42 hlineto
          endchar
        </CharString>
        <CharString name="Euro.osf">
          3 86 335 rmoveto
          -27 -57 rlineto
          318 hlineto
          27 57 rlineto
          -212 hlineto
          93 26 47 47 106 hhcurveto
          55 37 -14 0 hvcurveto
          8 -94 rlineto
          45 hlineto
          17 133 rlineto
          17 -39 -39 14 -80 hhcurveto
          -145 -81 -91 -105 -36 hvcurveto
          -68 -105 rmoveto
          -27 -57 rlineto
          73 hlineto
          -133 2 69 -51 132 hhcurveto
          94 52 22 15 37 hvcurveto
          19 137 rlineto
          -45 hlineto
          -30 -93 rlineto
          0 -38 -25 -70 -84 -53 32 96 vhcurveto
          151 hlineto
          27 57 rlineto
          endchar
        </CharString>
        <CharString name="F">
          -63 20 37 rmoveto
          -29 callgsubr
          247 hlineto
          3 39 -96 14 34 235 rlineto
          143 hlineto
          4 -62 rlineto
          35 hlineto
          24 172 rlineto
          -36 hlineto
          -20 -60 rlineto
          -144 hlineto
          36 252 85 8 rlineto
          101 -99 50 hlineto
          23 149 rlineto
          -401 -82 callsubr
          endchar
        </CharString>
        <CharString name="G">
          18 411 27 -94 callgsubr
          endchar
        </CharString>
        <CharString name="G_tilde.loclGUA">
          18 226 736 -97 callgsubr
          148 -757 -94 callgsubr
          endchar
        </CharString>
        <CharString name="Gbreve">
          10 522 810 -88 callsubr
          -119 -783 -94 callgsubr
          endchar
        </CharString>
        <CharString name="Gcaron">
          18 384 689 -75 callsubr
          27 -662 -94 callgsubr
          endchar
        </CharString>
        <CharString name="Gcircumflex">
          18 259 728 -99 callgsubr
          81 -754 -94 callgsubr
          endchar
        </CharString>
        <CharString name="Gcommaaccent">
          10 403 27 -94 callgsubr
          -194 -211 rmoveto
          17 -17 rlineto
          -80 callsubr
        </CharString>
        <CharString name="Gdotaccent">
          18 389 -44 callsubr
          22 -672 -94 callgsubr
          endchar
        </CharString>
        <CharString name="H">
          -36 callsubr
          endchar
        </CharString>
        <CharString name="Hbar">
          120 657 611 rmoveto
          7 callgsubr
          -261 hlineto
          16 113 71 14 7 callgsubr
          -65 hlineto
          -8 -52 rlineto
          66 hlineto
          -54 -381 -4 callgsubr
          30 216 rlineto
          261 hlineto
          -30 -216 -4 callgsubr
          54 381 rlineto
          65 hlineto
          8 52 rlineto
          -66 hlineto
          16 113 rlineto
          -118 -275 rmoveto
          -261 hlineto
          16 110 rlineto
          261 hlineto
          endchar
        </CharString>
        <CharString name="Hcircumflex">
          120 262 728 -99 callgsubr
          -314 -744 -34 callsubr
          endchar
        </CharString>
        <CharString name="I">
          -220 20 37 -86 callgsubr
          endchar
        </CharString>
        <CharString name="IJ">
          178 20 37 -86 callgsubr
          248 106 -70 callgsubr
        </CharString>
        <CharString name="Iacute">
          -220 155 681 -93 callsubr
          -114 -679 -86 callgsubr
          endchar
        </CharString>
        <CharString name="Iacute_J.loclNLD">
          178 197 681 -93 callsubr
          433 -35 -93 callsubr
          -566 -679 -86 callgsubr
          248 106 -70 callgsubr
        </CharString>
        <CharString name="Ibreve">
          -220 385 810 -88 callsubr
          -365 -773 -86 callgsubr
          endchar
        </CharString>
        <CharString name="Icircumflex">
          -234 68 728 -99 callgsubr
          -134 -744 -86 callgsubr
          endchar
        </CharString>
        <CharString name="Idieresis">
          -220 129 693 rmoveto
          35 20 29 33 33 -20 21 -31 -33 -22 -28 -32 -33 -30 callsubr
          hvcurveto
          191 hmoveto
          35 20 29 33 33 -20 21 -31 -33 -22 -28 -32 -33 -30 callsubr
          hvcurveto
          -301 -656 -86 callgsubr
          endchar
        </CharString>
        <CharString name="Idotaccent">
          -225 221 -44 callsubr
          -207 -662 -86 callgsubr
          endchar
        </CharString>
        <CharString name="Igrave">
          -220 157 735 -83 callsubr
          -138 -698 -86 callgsubr
          endchar
        </CharString>
        <CharString name="Imacron">
          -220 110 782 rmoveto
          -9 -63 rlineto
          240 hlineto
          9 63 rlineto
          -331 -745 -86 callgsubr
          endchar
        </CharString>
        <CharString name="Iogonek">
          -220 19 37 rmoveto
          -29 callgsubr
          83 hlineto
          -45 -28 -30 -41 -45 -27 callsubr
          41 30 29 22 16 vhcurveto
          93 -10 callsubr
          -68 14 -53 callgsubr
          endchar
        </CharString>
        <CharString name="Itilde">
          -220 67 736 -97 callgsubr
          -84 -747 -86 callgsubr
          endchar
        </CharString>
        <CharString name="J">
          -149 12 157 -70 callgsubr
        </CharString>
        <CharString name="Jcircumflex">
          -149 184 728 -99 callgsubr
          -243 -624 -70 callgsubr
        </CharString>
        <CharString name="K">
          -25 20 6 callgsubr
          41 hlineto
          139 -281 rlineto
          -24 12 12 -5 27 hhcurveto
          83 -10 callsubr
          -58 15 -154 304 -18 callgsubr
          endchar
        </CharString>
        <CharString name="Kcommaaccent">
          -25 14 6 callgsubr
          33 hlineto
          143 -281 rlineto
          -24 12 12 -5 27 hhcurveto
          87 -10 callsubr
          -61 16 -151 303 -18 callgsubr
          106 -235 rmoveto
          17 -17 rlineto
          -80 callsubr
        </CharString>
        <CharString name="L">
          -105 -15 callgsubr
          endchar
        </CharString>
        <CharString name="Lacute">
          -105 150 681 -93 callsubr
          -114 -679 -68 callgsubr
          endchar
        </CharString>
        <CharString name="Lcaron">
          -105 360 566 -42 callgsubr
          -346 -529 -68 callgsubr
          endchar
        </CharString>
        <CharString name="Lcommaaccent">
          -105 14 -37 callsubr
          66 -235 rmoveto
          17 -17 rlineto
          -80 callsubr
        </CharString>
        <CharString name="Ldot">
          -105 -15 callgsubr
          265 245 -59 callgsubr
          endchar
        </CharString>
        <CharString name="Lslash">
          -105 14 37 rmoveto
          -29 callgsubr
          379 hlineto
          23 152 rlineto
          -42 hlineto
          -40 -106 rlineto
          -124 hlineto
          -42 5 36 253 107 42 rlineto
          54 vlineto
          -99 -40 33 237 -61 callsubr
          -218 -69 callsubr
          -38 -270 -99 -39 rlineto
          -51 vlineto
          91 35 -31 -221 rlineto
          endchar
        </CharString>
        <CharString name="M">
          213 19 37 rmoveto
          -29 callgsubr
          193 -10 callsubr
          -68 14 67 472 3 23 rlineto
          4 hlineto
          85 -546 rlineto
          44 hlineto
          242 546 rlineto
          4 hlineto
          -5 -33 -64 -462 -71 -14 -78 callgsubr
          -176 hlineto
          -207 -467 -20 -52 -1 -3 -4 55 -67 467 rlineto
          -176 -82 callsubr
          endchar
        </CharString>
        <CharString name="N">
          107 -32 callsubr
          endchar
        </CharString>
        <CharString name="Nacute">
          107 339 684 rmoveto
          130 54 rlineto
          32 13 18 13 25 vvcurveto
          19 -13 21 -47 10 vhcurveto
          -142 -120 rlineto
          -298 -682 -95 callsubr
          endchar
        </CharString>
        <CharString name="Nacute.loclPLK">
          107 363 -33 callgsubr
          -453 -816 -95 callsubr
          endchar
        </CharString>
        <CharString name="Ncaron">
          107 270 797 -20 callsubr
          -286 -798 -95 callsubr
          endchar
        </CharString>
        <CharString name="Ncommaaccent">
          107 -32 callsubr
          143 -235 rmoveto
          17 -17 rlineto
          -80 callsubr
        </CharString>
        <CharString name="Ntilde">
          107 239 736 -97 callgsubr
          -257 -747 -95 callsubr
          endchar
        </CharString>
        <CharString name="O">
          103 275 -11 -105 callsubr
          endchar
        </CharString>
        <CharString name="OE">
          233 269 hmoveto
          428 hlineto
          19 152 rlineto
          -42 hlineto
          -38 -107 rlineto
          -102 hlineto
          -37 -38 3 3 -18 hvcurveto
          38 263 rlineto
          132 hlineto
          5 -59 rlineto
          36 hlineto
          21 162 rlineto
          -36 hlineto
          -21 -59 rlineto
          -131 hlineto
          34 239 11 callsubr
          -405 hlineto
          -207 -123 -189 -211 -161 85 -87 149 hvcurveto
          28 47 rmoveto
          -130 -41 65 161 hvcurveto
          199 4 68 132 150 hhcurveto
          35 29 -3 -6 27 hvcurveto
          -76 -544 rlineto
          -3 -18 -20 -1 -28 hhcurveto
          endchar
        </CharString>
        <CharString name="Oacute">
          103 293 734 rmoveto
          22 -35 130 54 rlineto
          32 13 18 13 25 vvcurveto
          19 -13 21 -21 10 vhcurveto
          -186 -865 -105 callsubr
          endchar
        </CharString>
        <CharString name="Oacute.loclPLK">
          103 349 -33 callgsubr
          -183 -864 -105 callsubr
          endchar
        </CharString>
        <CharString name="Obreve">
          103 534 810 -88 callsubr
          -259 -821 -105 callsubr
          endchar
        </CharString>
        <CharString name="Ocircumflex">
          103 258 746 rmoveto
          25 -33 108 61 106 -67 33 41 -60 55 -11 9 -44 39 -10 1 rlinecurve
          -9 -12 -9 -44 -55 hvcurveto
          -54 -810 -105 callsubr
          endchar
        </CharString>
        <CharString name="Odieresis">
          103 292 711 -87 callgsubr
          -228 -722 -105 callsubr
          endchar
        </CharString>
        <CharString name="Ograve">
          103 322 753 -83 callsubr
          -47 -764 -105 callsubr
          endchar
        </CharString>
        <CharString name="Ohorn">
          103 750 654 -85 callsubr
        </CharString>
        <CharString name="Ohungarumlaut">
          103 272 -41 callgsubr
          -122 -712 -105 callsubr
          endchar
        </CharString>
        <CharString name="Omacron">
          103 253 782 -51 callsubr
          -260 -793 -105 callsubr
          endchar
        </CharString>
        <CharString name="Oslash">
          103 171 -91 -50 callgsubr
        </CharString>
        <CharString name="Oslashacute">
          103 286 681 -93 callsubr
          -93 -807 -50 callgsubr
        </CharString>
        <CharString name="Otilde">
          103 228 754 -97 callgsubr
          10 -813 -105 callsubr
          endchar
        </CharString>
        <CharString name="P">
          -37 16 hmoveto
          232 -10 callsubr
          -81 14 77 545 rlineto
          3 14 21 2 15 hhcurveto
          83 43 -29 -97 -93 -37 -80 -149 hvcurveto
          -34 16 vlineto
          158 99 78 141 106 -70 55 -134 hvcurveto
          -201 -27 callgsubr
          -14 -8 callsubr
          endchar
        </CharString>
        <CharString name="Q">
          103 170 -112 rmoveto
          21 -26 55 25 172 -38 rlineto
          -6 27 25 -7 17 hhcurveto
          16 20 2 16 12 hvcurveto
          40 52 -21 23 -59 -28 -171 39 -17 4 -18 4 -15 2 rlinecurve
          39 41 rlineto
          201 21 92 192 198 vvcurveto
          163 -82 95 -157 -207 -116 -197 -215 -158 78 -97 143 -4 vhcurveto
          38 51 -49 callgsubr
        </CharString>
        <CharString name="R">
          -16 16 hmoveto
          -73 callsubr
          32 234 55 -6 14 -91 callsubr
          endchar
        </CharString>
        <CharString name="Racute">
          -16 255 681 -93 callsubr
          -217 -716 rmoveto
          -73 callsubr
          32 234 57 -6 12 -91 callsubr
          endchar
        </CharString>
        <CharString name="Rcaron">
          -16 308 689 -75 callsubr
          -292 -689 rmoveto
          -73 callsubr
          32 234 57 -6 12 -91 callsubr
          endchar
        </CharString>
        <CharString name="Rcommaaccent">
          -16 16 hmoveto
          -73 callsubr
          32 234 57 -6 12 -91 callsubr
          26 -529 rmoveto
          -80 callsubr
        </CharString>
        <CharString name="S">
          -97 165 -11 -73 callgsubr
          endchar
        </CharString>
        <CharString name="Sacute">
          -97 224 680 -93 callsubr
          -37 -726 rmoveto
          143 83 75 121 70 -59 55 -60 51 hvcurveto
          -61 53 -62 49 58 vvcurveto
          56 35 32 81 55 43 -19 0 -58 callgsubr
          -77 72 -57 65 -54 hvcurveto
          55 -46 50 -45 -55 vvcurveto
          -70 -39 -46 -105 -61 -25 27 0 -47 callgsubr
          endchar
        </CharString>
        <CharString name="Sacute.loclPLK">
          -97 261 -33 callgsubr
          -205 -864 -73 callgsubr
          endchar
        </CharString>
        <CharString name="Scaron">
          -96 292 690 -75 callsubr
          -127 -701 rmoveto
          143 83 75 121 76 -70 58 -65 56 hvcurveto
          -56 47 -51 46 53 -55 callgsubr
          -74 66 -55 63 -53 hvcurveto
          58 -48 55 -46 -58 -47 callsubr
          endchar
        </CharString>
        <CharString name="Scedilla">
          -97 152 -187 rmoveto
          47 61 14 75 22 -14 15 -18 11 hvcurveto
          -34 21 rlineto
          19 vlineto
          125 10 72 72 113 vvcurveto
          67 -53 53 -56 49 vhcurveto
          -64 55 -69 51 61 vvcurveto
          56 35 32 81 55 43 -19 0 -58 callgsubr
          -80 78 -59 68 -57 hvcurveto
          51 -44 45 -43 -51 vvcurveto
          -70 -39 -46 -105 -61 -25 27 0 vhcurveto
          -11 111 rlineto
          -49 hlineto
          -16 -141 18 -18 58 -25 60 -4 rlinecurve
          -28 -39 -55 callsubr
          -20 -29 rlineto
          -13 17 28 -16 39 hhcurveto
          endchar
        </CharString>
        <CharString name="Scircumflex">
          -97 161 728 -99 callgsubr
          -67 -792 -73 callgsubr
          endchar
        </CharString>
        <CharString name="Scommaaccent">
          -97 165 -11 rmoveto
          143 83 75 121 69 -58 54 -59 52 hvcurveto
          -62 53 -63 49 59 vvcurveto
          56 35 32 81 55 43 -19 0 -58 callgsubr
          -79 76 -58 66 -56 hvcurveto
          53 -44 47 -44 -53 vvcurveto
          -70 -39 -46 -105 -61 -25 27 0 -47 callgsubr
          -44 -190 rmoveto
          -80 callsubr
        </CharString>
        <CharString name="T">
          -75 94 37 rmoveto
          -4 -37 rlineto
          -56 callsubr
          rlineto
          endchar
        </CharString>
        <CharString name="Tbar">
          -75 487 484 rmoveto
          -44 callgsubr
          -33 -234 rlineto
          -166 hlineto
          -8 -52 rlineto
          167 hlineto
          -37 -260 -4 callgsubr
          37 260 rlineto
          174 hlineto
          8 52 rlineto
          -175 hlineto
          33 234 -3 callsubr
          endchar
        </CharString>
        <CharString name="Tcaron">
          -75 292 689 -75 callsubr
          -202 -689 rmoveto
          -56 callsubr
          -71 -14 rlineto
          endchar
        </CharString>
        <CharString name="Thorn">
          -62 15 hmoveto
          -73 callsubr
          16 113 rlineto
          -4 16 22 -2 33 hhcurveto
          106 113 57 136 111 -74 42 -108 hvcurveto
          -60 hlineto
          13 93 -61 callsubr
          -218 13 callsubr
          rlineto
          216 161 rmoveto
          -18 -15 2 3 -12 hvcurveto
          35 249 rlineto
          3 14 17 2 19 hhcurveto
          63 50 -16 -97 -93 -44 -53 -109 hvcurveto
          endchar
        </CharString>
        <CharString name="U">
          71 126 597 -104 callgsubr
        </CharString>
        <CharString name="Uacute">
          63 308 691 -93 callsubr
          -33 -737 rmoveto
          186 63 100 190 26 hvcurveto
          43 317 73 15 4 37 rlineto
          -201 -77 callgsubr
          vhcurveto
          endchar
        </CharString>
        <CharString name="Ubreve">
          71 530 810 -88 callsubr
          -404 -213 -104 callgsubr
        </CharString>
        <CharString name="Ucircumflex">
          63 229 738 -99 callgsubr
          -174 -194 -104 callgsubr
        </CharString>
        <CharString name="Udieresis">
          63 266 703 -87 callgsubr
          -351 -106 -104 callgsubr
        </CharString>
        <CharString name="Ugrave">
          63 281 745 -83 callsubr
          -155 -148 -104 callgsubr
        </CharString>
        <CharString name="Uhorn">
          71 704 714 -94 callsubr
          endchar
        </CharString>
        <CharString name="Uhungarumlaut">
          63 266 -41 callgsubr
          -138 -712 rmoveto
          186 63 100 190 26 hvcurveto
          43 317 73 15 4 37 rlineto
          -201 -77 callgsubr
          vhcurveto
          endchar
        </CharString>
        <CharString name="Umacron">
          63 237 782 rmoveto
          -8 -63 rlineto
          281 hlineto
          9 63 rlineto
          -393 -185 -104 callgsubr
        </CharString>
        <CharString name="Uogonek">
          63 311 -177 rmoveto
          61 44 47 0 hvcurveto
          -1 callgsubr
          44 35 31 22 14 vhcurveto
          105 34 44 94 20 148 43 317 rcurveline
          73 15 4 37 rlineto
          -201 -77 callgsubr
          13 13 1 1 13 vhcurveto
          1 -3 rlineto
          -36 -27 -21 -35 -40 vvcurveto
          -49 34 -14 41 vhcurveto
          endchar
        </CharString>
        <CharString name="Uring">
          63 369 662 -49 callsubr
          -125 -717 rmoveto
          186 63 100 190 26 hvcurveto
          43 317 73 15 4 37 rlineto
          -201 -77 callgsubr
          vhcurveto
          endchar
        </CharString>
        <CharString name="Utilde">
          71 212 736 -97 callgsubr
          -123 -187 -104 callgsubr
        </CharString>
        <CharString name="V">
          -47 190 -9 rmoveto
          42 hlineto
          273 605 -45 callgsubr
          -187 -426 -12 -27 -1 -3 -6 33 -75 417 rlineto
          23 vlineto
          73 15 4 37 rlineto
          -210 -64 callsubr
          53 -12 rlineto
          endchar
        </CharString>
        <CharString name="W">
          193 145 -8 -83 callgsubr
        </CharString>
        <CharString name="Wacute">
          193 403 681 -93 callsubr
          -236 -724 -83 callgsubr
        </CharString>
        <CharString name="Wcircumflex">
          193 306 728 -99 callgsubr
          -232 -789 -83 callgsubr
        </CharString>
        <CharString name="Wdieresis">
          193 334 703 -87 callgsubr
          -400 -711 -83 callgsubr
        </CharString>
        <CharString name="Wgrave">
          193 351 735 -83 callsubr
          -206 -743 -83 callgsubr
        </CharString>
        <CharString name="X">
          -27 -46 37 rmoveto
          -5 -37 rlineto
          195 hlineto
          4 37 -67 14 1 12 163 211 91 -199 rlineto
          -23 vlineto
          -64 -15 -3 -37 rlineto
          220 -10 callsubr
          -58 12 -132 296 197 252 48 14 5 37 rlineto
          -187 hlineto
          -5 -37 67 -14 rlineto
          -12 vlineto
          -147 -190 -82 185 rlineto
          16 vlineto
          73 15 4 37 rlineto
          -226 0 callsubr
          -13 123 -273 -212 -274 rlineto
          endchar
        </CharString>
        <CharString name="Y">
          -67 108 37 -84 callgsubr
          endchar
        </CharString>
        <CharString name="Y.loclGUA">
          94 400 648 -98 callsubr
        </CharString>
        <CharString name="Yacute">
          -67 240 691 -93 callsubr
          -118 -726 rmoveto
          -73 callsubr
          27 191 193 354 -45 callgsubr
          -148 -286 rlineto
          -11 hlineto
          -94 -26 callsubr
          -211 0 callsubr
          -12 128 -362 -26 -186 -73 -14 rlineto
          endchar
        </CharString>
        <CharString name="Yacute.loclGUA">
          94 342 681 -93 callsubr
          80 -68 -98 callsubr
        </CharString>
        <CharString name="Ycircumflex">
          -67 175 728 -99 callgsubr
          -138 -744 -84 callgsubr
          endchar
        </CharString>
        <CharString name="Ycircumflex.loclGUA">
          94 245 728 -99 callgsubr
          84 -133 -98 callsubr
        </CharString>
        <CharString name="Ydieresis">
          -67 198 703 -87 callgsubr
          -306 -666 rmoveto
          -3 -9 callsubr
          27 191 193 354 -45 callgsubr
          -148 -286 rlineto
          -11 hlineto
          -94 -26 callsubr
          -211 0 callsubr
          -12 128 -362 -26 -186 rlineto
          endchar
        </CharString>
        <CharString name="Ydieresis.loclGUA">
          94 273 703 -87 callgsubr
          -84 -55 -98 callsubr
        </CharString>
        <CharString name="Ygrave">
          -67 220 735 -83 callsubr
          -112 -698 -84 callgsubr
          endchar
        </CharString>
        <CharString name="Ygrave.loclGUA">
          94 290 735 -83 callsubr
          110 -87 -98 callsubr
        </CharString>
        <CharString name="Z">
          -57 -9 44 rmoveto
          17 -44 rlineto
          -76 callgsubr
          rlineto
          endchar
        </CharString>
        <CharString name="Zacute">
          -57 236 681 -93 callsubr
          -210 -716 rmoveto
          -76 callgsubr
          -396 -534 rlineto
          endchar
        </CharString>
        <CharString name="Zacute.loclPLK">
          -57 281 -33 callgsubr
          -399 -809 rmoveto
          17 -44 rlineto
          -76 callgsubr
          rlineto
          endchar
        </CharString>
        <CharString name="Zcaron">
          -57 301 689 -75 callsubr
          -297 -689 rmoveto
          -76 callgsubr
          -396 -534 rlineto
          endchar
        </CharString>
        <CharString name="Zdotaccent">
          -57 282 -44 callsubr
          -295 -655 rmoveto
          17 -44 rlineto
          -76 callgsubr
          rlineto
          endchar
        </CharString>
        <CharString name="a">
          -53 307 106 -107 callsubr
          endchar
        </CharString>
        <CharString name="aacute">
          -50 263 559 -91 callgsubr
          -79 -600 -89 callgsubr
        </CharString>
        <CharString name="abreve">
          -50 287 568 rmoveto
          124 36 129 0 hvcurveto
          -21 18 rlineto
          0 -47 -87 -74 -65 -8 50 36 -3 vhcurveto
          -16 -24 -5 -14 -13 hvcurveto
          -6 -6 -4 -8 -10 vvcurveto
          -40 36 -63 85 vhcurveto
          -129 -577 -89 callgsubr
        </CharString>
        <CharString name="acircumflex">
          -50 402 562 -100 callgsubr
          -145 -650 -89 callgsubr
        </CharString>
        <CharString name="acute">
          -345 90 559 -91 callgsubr
          endchar
        </CharString>
        <CharString name="acutecomb">
          -112 559 -91 callgsubr
          endchar
        </CharString>
        <CharString name="acutecomb.case">
          -105 681 -93 callsubr
          endchar
        </CharString>
        <CharString name="adieresis">
          -50 192 594 -90 callgsubr
          -221 -603 -89 callgsubr
        </CharString>
        <CharString name="ae">
          96 466 51 -59 callsubr
        </CharString>
        <CharString name="aeacute">
          96 504 -15 callsubr
          63 -508 -59 callsubr
        </CharString>
        <CharString name="agrave">
          -50 253 624 -80 callgsubr
          54 -518 rmoveto
          3 -2 rlineto
          -12 -25 -6 -17 -16 vvcurveto
          -27 8 -23 48 47 49 31 0 vhcurveto
          39 -73 vlineto
          71 451 rlineto
          -38 hlineto
          -25 -35 rlineto
          6 -11 -53 25 -101 callgsubr
          endchar
        </CharString>
        <CharString name="amacron">
          -50 169 677 -51 callsubr
          -144 -571 rmoveto
          3 -2 rlineto
          -12 -25 -6 -17 -16 vvcurveto
          -27 8 -23 48 47 49 31 0 vhcurveto
          39 -73 vlineto
          71 451 rlineto
          -38 hlineto
          -25 -35 rlineto
          6 -11 -53 25 -101 callgsubr
          endchar
        </CharString>
        <CharString name="ampersand">
          64 647 438 rmoveto
          -73 -37 -130 23 rlineto
          1 -6 -18 3 -8 hhcurveto
          18 28 9 31 34 vvcurveto
          73 -65 55 -86 -100 -87 -79 -90 -48 14 -31 53 -64 vhcurveto
          -82 -46 -56 -83 -76 vvcurveto
          -93 67 -50 124 72 60 22 44 48 vhcurveto
          57 -69 6 -75 rlineto
          40 hlineto
          8 71 rlineto
          2 11 0 8 10 vvcurveto
          17 -3 9 -10 13 vhcurveto
          -52 64 rlineto
          36 57 20 74 75 vvcurveto
          28 vlineto
          -8 28 9 -1 23 hhcurveto
          23 22 10 19 17 hvcurveto
          39 44 rlineto
          -252 -255 rmoveto
          -180 223 rlineto
          -48 59 -13 26 35 vvcurveto
          55 45 42 60 60 33 -31 -57 -64 -9 -17 -65 -63 vhcurveto
          18 -26 76 36 48 -12 rlineto
          2 -17 1 -29 -24 vvcurveto
          -53 -9 -46 -19 -37 vhcurveto
          -172 -117 rmoveto
          -89 -42 35 72 66 32 62 50 31 hvcurveto
          176 -213 rlineto
          -34 -35 -45 -19 -47 hhcurveto
          endchar
        </CharString>
        <CharString name="aogonek">
          -50 442 -106 rmoveto
          0 -30 -20 -27 9 callsubr
          52 52 36 16 8 vhcurveto
          17 9 15 7 1 vvcurveto
          39 -73 vlineto
          71 451 rlineto
          -38 hlineto
          -25 -35 rlineto
          6 -11 -53 25 -76 callsubr
          3 -2 rlineto
          -12 -25 -6 -17 -16 vvcurveto
          -28 8 -21 47 -1 vhcurveto
          -42 -28 -27 -39 -43 -31 callsubr
          -149 284 rmoveto
          -25 callsubr
        </CharString>
        <CharString name="approxequal">
          -17 377 299 rmoveto
          -19 callsubr
          -152 vmoveto
          -19 callsubr
          endchar
        </CharString>
        <CharString name="aring">
          -50 313 564 -60 callsubr
          -164 -617 -89 callgsubr
        </CharString>
        <CharString name="aringacute">
          -53 304 811 -91 callgsubr
          19 -279 -60 callsubr
          1 -502 -107 callsubr
          endchar
        </CharString>
        <CharString name="asciicircum">
          -17 283 649 rmoveto
          -238 -387 rlineto
          73 hlineto
          190 311 106 -311 rlineto
          74 hlineto
          -143 387 rlineto
          endchar
        </CharString>
        <CharString name="asciitilde">
          -17 74 258 rmoveto
          21 -26 75 33 101 -23 rlineto
          -8 33 20 -5 35 hhcurveto
          23 22 9 20 16 hvcurveto
          36 47 -20 28 -76 -35 -101 23 rlineto
          7 -33 -33 7 -25 hhcurveto
          -26 -18 -11 -20 -15 hvcurveto
          endchar
        </CharString>
        <CharString name="asterisk">
          -163 240 712 rmoveto
          -24 hlineto
          -47 -6 -21 -20 -14 6 -15 5 -14 hvcurveto
          26 -78 40 14 rlineto
          162 37 rmoveto
          42 -8 -8 14 -19 hhcurveto
          -23 -17 -20 -15 -18 hvcurveto
          -69 -58 21 -33 rlineto
          -206 43 rmoveto
          -12 -23 -6 -17 -11 vvcurveto
          -23 21 -4 14 10 18 2 1 10 vhcurveto
          85 10 5 41 rlineto
          131 -59 rmoveto
          -70 40 -27 -34 95 -104 rlineto
          34 21 14 15 16 vvcurveto
          22 -28 13 -18 11 vhcurveto
          -218 -117 rmoveto
          -18 21 14 -9 12 hhcurveto
          34 7 44 23 7 hvcurveto
          26 83 -39 12 rlineto
          endchar
        </CharString>
        <CharString name="at">
          215 348 -108 rmoveto
          75 163 47 22 hvcurveto
          -15 27 rlineto
          1 -111 -40 -93 -173 -93 97 182 202 137 143 193 153 84 -87 -161 -133 -44 -83 -70 -32 -20 19 31 8 1 14 2 7 vhcurveto
          43 262 rlineto
          -34 hlineto
          -9 -11 -10 -10 -9 -11 rrcurveto
          12 -28 -39 9 -25 hhcurveto
          -98 -84 -111 -129 -84 41 -52 66 37 50 28 39 34 hvcurveto
          -44 11 41 -29 52 hhcurveto
          119 76 113 175 167 -122 117 -176 -221 -194 -190 -217 -201 125 -129 197 hvcurveto
          -5 236 rmoveto
          -40 -20 33 65 50 21 74 20 22 hvcurveto
          6 5 24 4 29 hhcurveto
          25 35 -11 -14 22 hvcurveto
          -32 -189 rlineto
          -23 -24 -38 -17 -27 hhcurveto
          endchar
        </CharString>
        <CharString name="atilde">
          -50 386 595 -98 callgsubr
          -228 -604 -89 callgsubr
        </CharString>
        <CharString name="b">
          -77 143 627 rmoveto
          -105 -594 77 -27 rlineto
          0 45 -15 51 176 53 269 97 97 -33 59 -87 -69 -60 -69 -26 -19 vhcurveto
          -2 3 6 8 9 12 1 9 rlinecurve
          28 177 rlineto
          72 vlineto
          -150 -66 callgsubr
          62 -565 rmoveto
          48 307 rlineto
          19 21 50 40 46 hhcurveto
          49 18 -31 -77 -107 -36 -114 -37 -56 hvcurveto
          -6 -4 -5 -3 -32 hhcurveto
          -57 -42 18 10 -19 hvcurveto
          endchar
        </CharString>
        <CharString name="backslash">
          -247 294 -167 rmoveto
          62 27 -365 835 -60 -27 rlineto
          endchar
        </CharString>
        <CharString name="bar">
          -186 150 699 rmoveto
          -855 60 855 vlineto
          endchar
        </CharString>
        <CharString name="braceleft">
          -340 121 -151 rmoveto
          22 42 rlineto
          -40 24 -16 14 37 vvcurveto
          9 0 11 3 12 vhcurveto
          46 212 rlineto
          1 4 1 10 4 vvcurveto
          42 -37 11 -6 2 vhcurveto
          5 1 47 12 8 54 12 200 rcurveline
          9 62 17 16 60 30 -13 41 rcurveline
          -80 -15 -70 -65 -84 vvcurveto
          -207 vlineto
          -64 -27 rlineto
          -37 vlineto
          52 -24 -59 -220 rlineto
          -2 -9 -4 -21 -8 vvcurveto
          -69 45 -44 63 -20 vhcurveto
          endchar
        </CharString>
        <CharString name="braceright">
          -340 -32 -151 rmoveto
          80 15 70 65 84 vvcurveto
          207 vlineto
          64 27 rlineto
          37 vlineto
          -52 24 59 220 rlineto
          2 9 4 21 8 vvcurveto
          69 -45 44 -63 20 vhcurveto
          -22 -42 rlineto
          40 -24 16 -14 -37 vvcurveto
          -9 0 -11 -3 -12 vhcurveto
          -46 -212 rlineto
          -1 -4 -1 -10 -4 vvcurveto
          -43 36 -11 7 -1 vhcurveto
          -6 -1 -47 -12 -7 -54 -12 -200 rcurveline
          -9 -62 -17 -16 -60 -30 rrcurveto
          endchar
        </CharString>
        <CharString name="bracketleft">
          -323 125 699 rmoveto
          -120 -850 rlineto
          136 hlineto
          28 43 -87 12 105 740 90 12 6 43 rlineto
          endchar
        </CharString>
        <CharString name="bracketright">
          -323 -57 -108 rmoveto
          -6 -43 rlineto
          158 hlineto
          120 850 rlineto
          -158 hlineto
          -6 -43 86 -12 -105 -740 rlineto
          endchar
        </CharString>
        <CharString name="breve">
          -255 188 568 -51 callgsubr
        </CharString>
        <CharString name="brokenbar">
          -186 150 699 rmoveto
          -365 60 365 vlineto
          -60 -490 rmoveto
          -365 60 365 vlineto
          endchar
        </CharString>
        <CharString name="bullet">
          -134 90 305 rmoveto
          -63 50 -50 63 63 51 50 63 63 -51 51 -63 -63 -50 -51 -63 vhcurveto
          endchar
        </CharString>
        <CharString name="c">
          -172 327 64 rmoveto
          -79 callsubr
          -111 42 -49 95 104 56 73 0 vhcurveto
          endchar
        </CharString>
        <CharString name="cacute">
          -172 211 559 -91 callgsubr
          -18 -600 rmoveto
          104 56 73 0 hvcurveto
          -79 callsubr
          -111 42 -49 95 vhcurveto
          endchar
        </CharString>
        <CharString name="cacute.loclPLK">
          -172 271 -38 callgsubr
          89 -510 rmoveto
          -79 callsubr
          -111 42 -49 95 104 56 73 0 vhcurveto
          endchar
        </CharString>
        <CharString name="caron">
          -268 69 696 -79 callgsubr
          endchar
        </CharString>
        <CharString name="ccaron">
          -172 129 696 -79 callgsubr
          165 -667 rmoveto
          -79 callsubr
          -111 42 -49 95 104 56 73 0 vhcurveto
          endchar
        </CharString>
        <CharString name="ccedilla">
          -172 76 -52 callgsubr
          21 vlineto
          94 6 51 66 0 vvcurveto
          -79 callsubr
          -98 33 -50 73 -10 vhcurveto
          -31 -42 -55 callsubr
          endchar
        </CharString>
        <CharString name="ccircumflex">
          -172 371 562 -100 callgsubr
          55 -577 rmoveto
          -79 callsubr
          -111 42 -49 95 104 56 73 0 vhcurveto
          endchar
        </CharString>
        <CharString name="cdotaccent">
          -172 272 -63 callgsubr
          55 -527 rmoveto
          -79 callsubr
          -111 42 -49 95 104 56 73 0 vhcurveto
          endchar
        </CharString>
        <CharString name="cedilla">
          -348 -30 -52 callgsubr
          29 -41 vlineto
          -36 -49 -55 callsubr
          endchar
        </CharString>
        <CharString name="cent">
          -127 152 58 -42 callsubr
        </CharString>
        <CharString name="cent.osf">
          -127 144 -7 -42 callsubr
        </CharString>
        <CharString name="circumflex">
          -268 293 562 -100 callgsubr
          endchar
        </CharString>
        <CharString name="colon">
          -326 109 322 -59 callgsubr
          -43 -333 -59 callgsubr
          endchar
        </CharString>
        <CharString name="comma">
          -363 -126 vmoveto
          -41 callsubr
        </CharString>
        <CharString name="copyright">
          95 6 325 rmoveto
          -180 146 -146 180 180 146 146 180 180 -146 146 -180 -180 -146 -146 -180 vhcurveto
          326 -273 rmoveto
          -152 -111 122 150 150 111 122 152 151 115 -122 -150 -150 -115 -122 -151 hvcurveto
          83 218 rmoveto
          -10 -53 rlineto
          0 -12 -12 -51 -64 -36 28 89 98 30 24 69 39 20 -6 0 vhcurveto
          10 -52 rlineto
          33 94 hlineto
          9 -22 -43 6 -43 hhcurveto
          -103 -61 -80 -92 -108 49 -60 107 61 38 13 9 20 hvcurveto
          93 vlineto
          endchar
        </CharString>
        <CharString name="currency">
          -17 106 191 rmoveto
          -87 -91 37 -37 92 88 rlineto
          -23 33 40 -13 44 hhcurveto
          46 42 15 26 34 hvcurveto
          97 -93 37 37 -94 97 rlineto
          24 33 15 41 45 vvcurveto
          43 -14 40 -23 32 vhcurveto
          92 96 -37 37 -95 -90 rlineto
          27 -34 -43 16 -47 hhcurveto
          -45 -41 -15 -24 -33 hvcurveto
          -90 86 -37 -37 85 -89 rlineto
          -25 -34 -15 -42 -46 vvcurveto
          -47 16 -44 26 -34 vhcurveto
          30 125 rmoveto
          69 60 60 69 69 60 -60 -69 -69 -60 -59 -69 -69 -60 59 69 vhcurveto
          endchar
        </CharString>
        <CharString name="d">
          -46 314 105 -71 callgsubr
          46 306 -56 callgsubr
          endchar
        </CharString>
        <CharString name="dagger">
          -113 114 -110 rmoveto
          52 hlineto
          75 423 rlineto
          133 vlineto
          116 4 callgsubr
          -87 -175 -171 10 callsubr
          -35 -133 rlineto
          endchar
        </CharString>
        <CharString name="daggerdbl">
          -113 117 -111 rmoveto
          95 175 162 hlineto
          11 134 rlineto
          -39 hlineto
          -14 -79 -113 -7 47 167 rlineto
          167 vlineto
          111 4 callgsubr
          -93 -175 -165 10 callsubr
          -47 -167 rlineto
          -167 vlineto
          -109 7 5 79 rlineto
          -40 hlineto
          -28 -134 rlineto
          165 hlineto
          endchar
        </CharString>
        <CharString name="dcaron">
          -46 487 -7 callgsubr
          -173 -464 -71 callgsubr
          46 306 -56 callgsubr
          endchar
        </CharString>
        <CharString name="dcroat">
          -46 159 -9 rmoveto
          65 55 51 63 35 hvcurveto
          3 -2 rlineto
          -13 -27 -6 -15 -20 vvcurveto
          -34 20 -11 39 47 47 1 callsubr
          80 499 rlineto
          66 48 -58 4 callsubr
          -168 -48 160 hlineto
          -14 -77 rlineto
          10 -20 -40 15 -45 hhcurveto
          -149 -80 -237 -126 -97 36 -62 83 hvcurveto
          25 59 rmoveto
          -49 -13 54 67 107 35 104 37 56 hvcurveto
          6 4 12 9 19 hhcurveto
          51 45 -18 -24 35 hvcurveto
          -48 -263 rlineto
          -41 -29 -50 -57 -49 hhcurveto
          endchar
        </CharString>
        <CharString name="degree">
          -309 109 474 rmoveto
          57 48 47 58 50 -37 38 -51 -57 -48 -48 -57 -50 36 -38 52 hvcurveto
          4 43 rmoveto
          -28 -20 21 27 32 27 25 30 28 20 -20 -27 -32 -24 -26 -33 hvcurveto
          endchar
        </CharString>
        <CharString name="dieresis">
          -243 105 594 -90 callgsubr
          endchar
        </CharString>
        <CharString name="divide">
          -17 275 372 -59 callgsubr
          -218 -132 rmoveto
          400 hlineto
          6 59 rlineto
          -400 hlineto
          166 -260 -59 callgsubr
          endchar
        </CharString>
        <CharString name="dollar">
          -67 290 595 rmoveto
          33 42 -8 -11 25 hvcurveto
          8 -104 rlineto
          44 hlineto
          17 150 -29 11 -44 8 -42 4 rlinecurve
          8 98 rlineto
          -54 hlineto
          -16 -98 rlineto
          -112 -9 -70 -59 -89 vvcurveto
          -96 81 -52 67 -54 vhcurveto
          49 -39 41 -39 -57 vvcurveto
          -67 -53 -42 -85 -42 -38 11 16 -12 vhcurveto
          -11 111 rlineto
          -49 hlineto
          -16 -141 26 -25 62 -19 58 -4 rlinecurve
          -9 -106 rlineto
          53 hlineto
          17 109 rlineto
          104 16 71 71 93 vvcurveto
          83 -60 53 -60 48 vhcurveto
          -59 48 -59 42 63 vvcurveto
          54 41 30 73 vhcurveto
          endchar
        </CharString>
        <CharString name="dollar.osf">
          -67 187 -8 rmoveto
          -10 -109 rlineto
          53 hlineto
          18 112 rlineto
          76 11 85 36 117 152 -248 -35 116 vvcurveto
          50 20 24 97 52 37 -15 0 vhcurveto
          7 -72 rlineto
          41 hlineto
          16 129 -16 7 -52 12 -49 3 rlinecurve
          9 107 rlineto
          -54 hlineto
          -18 -109 rlineto
          -98 -15 -67 -55 -94 -155 243 30 -104 vvcurveto
          -69 -19 -15 -97 -56 -37 20 5 -8 vhcurveto
          -4 85 rlineto
          -45 hlineto
          -15 -128 20 -20 61 -18 58 -3 rlinecurve
          endchar
        </CharString>
        <CharString name="dotaccent">
          -425 112 -63 callgsubr
          endchar
        </CharString>
        <CharString name="dotbelowcomb">
          -116 -166 -102 callgsubr
          endchar
        </CharString>
        <CharString name="dotlessi">
          -259 136 434 -84 callsubr
        </CharString>
        <CharString name="e">
          -159 187 -9 rmoveto
          -105 callgsubr
          endchar
        </CharString>
        <CharString name="eacute">
          -158 213 559 -91 callgsubr
          -600 vmoveto
          -105 callgsubr
          endchar
        </CharString>
        <CharString name="ebreve">
          -159 252 568 -93 callgsubr
          -65 -577 rmoveto
          -105 callgsubr
          endchar
        </CharString>
        <CharString name="ecaron">
          -158 259 562 rmoveto
          11 23 26 15 16 hvcurveto
          102 96 -26 30 -112 -80 -96 82 -33 -35 79 -101 rlineto
          -19 17 9 -14 10 hhcurveto
          -72 -571 -61 callgsubr
        </CharString>
        <CharString name="ecircumflex">
          -158 360 562 -100 callgsubr
          -74 -650 rmoveto
          -105 callgsubr
          endchar
        </CharString>
        <CharString name="edieresis">
          -158 152 594 -90 callgsubr
          -152 -603 rmoveto
          -105 callgsubr
          endchar
        </CharString>
        <CharString name="edotaccent">
          -158 268 -63 callgsubr
          -81 -600 -61 callgsubr
        </CharString>
        <CharString name="egrave">
          -158 322 559 rmoveto
          26 32 -139 142 rlineto
          -35 -12 -7 -22 -18 vvcurveto
          -21 33 -23 21 -13 vhcurveto
          -34 -633 rmoveto
          -105 callgsubr
          endchar
        </CharString>
        <CharString name="eight">
          -77 -11 51 570 50 hstemhm
          22 83 -21 75 175 75 hintmask 11101000
          191 -11 rmoveto
          154 64 110 73 75 -36 38 -81 66 hvcurveto
          72 41 67 59 89 vvcurveto
          67 -57 53 -104 vhcurveto
          hintmask 11011000
          -95 -91 -67 -87 -65 36 -52 69 -56 hvcurveto
          hintmask 11101000
          -89 -44 -78 -76 -88 vvcurveto
          -63 54 -73 115 vhcurveto
          74 383 rmoveto
          hintmask 11011000
          -75 67 -31 36 51 vvcurveto
          62 39 22 65 74 21 -35 -51 -66 -42 -56 -51 -30 vhcurveto
          -51 -332 rmoveto
          hintmask 11101000
          -85 -24 46 52 56 21 66 91 52 hvcurveto
          67 -60 50 -34 -62 vvcurveto
          -76 -42 -40 -78 vhcurveto
          endchar
        </CharString>
        <CharString name="eight.osf">
          -67 208 336 rmoveto
          -83 -37 -86 -78 -91 vvcurveto
          -80 51 -60 127 157 56 106 95 59 -52 49 -66 52 vhcurveto
          75 33 63 50 95 vvcurveto
          73 -47 59 -122 -89 -86 -58 -110 -63 33 -38 69 -56 vhcurveto
          75 38 rmoveto
          -2 1 -2 2 -2 2 rrcurveto
          -68 53 -28 32 55 vvcurveto
          67 47 22 56 64 32 -43 -51 -80 -46 -30 -51 -30 vhcurveto
          -46 -62 rmoveto
          50 -40 72 -49 -57 vvcurveto
          -82 -51 -44 -66 -85 -36 33 73 52 25 62 91 52 vhcurveto
          endchar
        </CharString>
        <CharString name="ellipsis">
          6 42 -11 rmoveto
          -5 callgsubr
          181 hmoveto
          -5 callgsubr
          181 hmoveto
          -5 callgsubr
          endchar
        </CharString>
        <CharString name="emacron">
          -158 120 614 rmoveto
          282 hlineto
          8 63 rlineto
          -282 hlineto
          59 -686 -61 callgsubr
        </CharString>
        <CharString name="emdash">
          473 10 296 rmoveto
          -59 1000 59 vlineto
          endchar
        </CharString>
        <CharString name="endash">
          -37 5 296 rmoveto
          -59 500 59 vlineto
          endchar
        </CharString>
        <CharString name="eng">
          -30 189 -167 rmoveto
          115 83 78 126 19 hvcurveto
          46 306 rlineto
          8 53 1 9 17 vvcurveto
          60 -31 31 -60 -40 -68 -31 -43 -54 vhcurveto
          68 -36 callgsubr
          10 callgsubr
          82 hlineto
          62 396 rlineto
          30 47 53 19 34 hhcurveto
          36 14 -13 -33 -12 -2 -14 -4 -25 hvcurveto
          -53 -344 -5 -32 -15 -35 -16 -16 rlinecurve
          -7 -7 -25 -5 -26 hhcurveto
          -69 hlineto
          -7 -10 -6 -13 -17 vvcurveto
          -26 11 -10 28 vhcurveto
          endchar
        </CharString>
        <CharString name="eogonek">
          -158 212 -177 rmoveto
          61 44 47 0 hvcurveto
          -1 callgsubr
          52 52 35 16 9 vhcurveto
          45 23 27 34 1 vvcurveto
          -19 29 rlineto
          0 -56 -46 -50 -75 -22 30 109 vhcurveto
          4 1 4 6 vvcurveto
          140 28 116 21 163 vvcurveto
          43 -31 54 -75 -158 -74 -219 -148 -120 46 -35 101 4 4 0 1 4 vhcurveto
          -38 -28 -24 -37 -41 vvcurveto
          -49 34 -14 41 vhcurveto
          -86 423 rmoveto
          8 62 19 85 30 46 rrcurveto
          9 6 23 5 28 hhcurveto
          54 8 -34 -24 -68 -14 -44 -162 -37 hvcurveto
          endchar
        </CharString>
        <CharString name="equal">
          -17 71 367 rmoveto
          -8 -60 rlineto
          400 hlineto
          8 60 rlineto
          -420 -159 rmoveto
          -7 -60 rlineto
          400 hlineto
          7 60 rlineto
          endchar
        </CharString>
        <CharString name="estimated">
          241 396 -13 rmoveto
          115 102 65 77 61 hvcurveto
          -48 hlineto
          -65 -57 -76 -42 -96 hhcurveto
          -83 -61 31 52 -52 hvcurveto
          210 530 vlineto
          198 -7 -131 143 -197 hhcurveto
          -185 -149 -150 -185 -185 149 -149 185 hvcurveto
          -195 362 rmoveto
          190 vlineto
          51 52 62 31 82 hhcurveto
          80 62 -30 -50 52 hvcurveto
          -192 vlineto
          endchar
        </CharString>
        <CharString name="eth">
          -86 177 -9 rmoveto
          154 90 144 246 121 -37 85 -77 53 hvcurveto
          64 41 -26 41 -86 -56 rlineto
          15 -36 -42 7 -45 hhcurveto
          -32 -32 -3 -4 -14 hvcurveto
          -40 vlineto
          55 41 -4 -13 41 hvcurveto
          -84 -54 27 -39 109 70 32 -20 18 -24 23 -52 rlinecurve
          5 -14 -18 3 -11 hhcurveto
          -138 -99 -147 -205 -110 48 -60 89 -17 callsubr
          -72 -21 28 95 107 26 121 30 34 hvcurveto
          8 7 28 9 16 hhcurveto
          41 34 -6 -13 27 hvcurveto
          4 -18 3 -48 -51 vvcurveto
          -96 -30 -130 -28 -26 vhcurveto
          -9 -10 -23 -5 -32 hhcurveto
          endchar
        </CharString>
        <CharString name="exclam">
          -346 152 667 rmoveto
          -55 -507 rlineto
          44 hlineto
          52 228 25 111 15 57 rrcurveto
          15 58 0 13 13 vvcurveto
          20 -9 17 -35 -37 -15 -10 0 vhcurveto
          -63 -678 rmoveto
          43 25 38 37 28 -20 19 -28 -40 -27 -37 -38 -27 19 -20 28 hvcurveto
          endchar
        </CharString>
        <CharString name="exclamdown">
          -346 138 401 rmoveto
          40 27 37 38 27 -19 20 -28 -43 -25 -38 -37 -28 20 -19 28 hvcurveto
          -95 -566 rmoveto
          37 15 10 0 hvcurveto
          55 507 rlineto
          -44 hlineto
          -52 -228 -25 -111 -15 -57 rrcurveto
          -15 -58 0 -13 -13 vvcurveto
          -20 9 -17 35 vhcurveto
          endchar
        </CharString>
        <CharString name="f">
          -278 34 -175 rmoveto
          78 10 88 615 rlineto
          94 hlineto
          16 25 rlineto
          32 -102 vlineto
          -5 callsubr
          -1 14 13 27 5 callsubr
          hvcurveto
          6 callsubr
        </CharString>
        <CharString name="f_f">
          -17 34 -175 rmoveto
          78 10 88 615 rlineto
          190 hlineto
          -71 -460 78 10 64 450 rlineto
          94 hlineto
          16 25 rlineto
          32 -102 vlineto
          -5 callsubr
          7 9 6 15 16 vvcurveto
          5 callsubr
          vhcurveto
          -191 hlineto
          -5 callsubr
          7 9 6 11 20 vvcurveto
          5 callsubr
          vhcurveto
          6 callsubr
        </CharString>
        <CharString name="fi">
          -58 377 66 rmoveto
          -24 callsubr
          -233 vlineto
          5 33 8 53 25 30 5 5 rlinecurve
          5 5 24 3 23 hhcurveto
          25 20 -3 -16 75 hvcurveto
          0 28 13 34 vvcurveto
          33 -17 14 -54 -132 7 callsubr
          -96 -616 rlineto
          76 hlineto
          88 616 rlineto
          94 hlineto
          75 -16 -66 -363 rlineto
          -2 -8 -1 -10 -6 vvcurveto
          -37 17 -14 42 47 46 -54 callsubr
          vlineto
          -29 551 rmoveto
          0 0 0 0 vhcurveto
          endchar
        </CharString>
        <CharString name="five">
          -87 -10 50 532 76 38 -20 hstem
          -6 73 248 87 vstem
          163 -10 rmoveto
          144 95 91 148 109 -88 61 -169 21 hvcurveto
          24 152 rlineto
          257 13 callgsubr
          -252 hlineto
          -52 -272 rlineto
          190 -23 47 -55 -103 vvcurveto
          -113 -54 -42 -82 -81 -27 29 0 vhcurveto
          -7 92 rlineto
          -25 hlineto
          -1 -44 -29 -47 -65 65 -30 104 hvcurveto
          endchar
        </CharString>
        <CharString name="five.osf">
          -97 98 -166 rmoveto
          166 115 115 156 138 -141 23 -117 12 hvcurveto
          36 167 rlineto
          248 13 callgsubr
          -243 hlineto
          -66 -293 rlineto
          188 -11 47 -34 -104 vvcurveto
          -138 -94 -58 -196 vhcurveto
          -40 vlineto
          -5 16 42 -4 43 hhcurveto
          endchar
        </CharString>
        <CharString name="fl">
          -24 34 -166 rmoveto
          76 hlineto
          88 616 rlineto
          94 hlineto
          16 25 rlineto
          32 -102 vlineto
          5 33 8 53 25 30 5 5 rlinecurve
          6 6 29 2 29 hhcurveto
          47 9 -4 -5 47 hvcurveto
          -97 -558 -24 callgsubr
          47 43 1 callsubr
          86 561 rlineto
          72 vlineto
          0 -49 12 -59 -129 7 callsubr
          endchar
        </CharString>
        <CharString name="florin">
          -137 166 401 rmoveto
          -31 -375 rlineto
          -35 -3 -11 -43 -52 hhcurveto
          -25 -26 10 7 -18 hvcurveto
          0 -38 -5 -42 vvcurveto
          -35 26 -11 44 120 57 84 118 9 vhcurveto
          25 327 rlineto
          109 hlineto
          10 57 rlineto
          -112 hlineto
          8 63 rlineto
          38 8 15 25 47 hhcurveto
          29 25 -9 -8 17 hvcurveto
          0 40 5 42 vvcurveto
          35 -27 11 -44 -125 -54 -89 -113 -12 vhcurveto
          -82 -17 -7 -40 rlineto
          endchar
        </CharString>
        <CharString name="four">
          -67 182 60 439 -20 hstem
          241 hmoveto
          79 hlineto
          24 182 rlineto
          91 hlineto
          7 60 rlineto
          -91 hlineto
          55 418 -52 21 -372 -446 17 -53 rlineto
          266 hlineto
          -202 60 rmoveto
          -3 8 242 297 10 12 2 -1 -2 -12 -40 -304 rlineto
          endchar
        </CharString>
        <CharString name="four.osf">
          -38 253 -164 rmoveto
          79 hlineto
          26 180 rlineto
          91 hlineto
          9 62 rlineto
          -91 hlineto
          63 435 -52 21 -384 -465 16 -53 rlineto
          269 hlineto
          9 62 rmoveto
          -215 hlineto
          1 7 247 313 11 13 4 -2 -2 -11 rlineto
          endchar
        </CharString>
        <CharString name="fraction">
          -143 425 688 rmoveto
          -487 -702 48 -30 484 703 rlineto
          endchar
        </CharString>
        <CharString name="g">
          -72 137 -166 -96 callsubr
        </CharString>
        <CharString name="g_tilde.loclGUA">
          -72 360 595 -98 callgsubr
          -223 -761 -96 callsubr
        </CharString>
        <CharString name="gbreve">
          -72 305 568 rmoveto
          124 36 129 0 hvcurveto
          -21 18 rlineto
          0 -47 -87 -74 -65 -8 50 36 -3 vhcurveto
          -17 -26 -6 -16 -13 hvcurveto
          -4 -6 -3 -7 -8 vvcurveto
          -40 36 -63 85 vhcurveto
          -168 -734 -50 callsubr
        </CharString>
        <CharString name="gcaron">
          -72 161 696 -79 callgsubr
          -57 -897 -96 callsubr
        </CharString>
        <CharString name="gcircumflex">
          -72 389 562 -100 callgsubr
          -153 -807 -96 callsubr
        </CharString>
        <CharString name="gcommaaccent">
          -72 315 559 rmoveto
          26 13 15 8 5 hvcurveto
          -10 9 -14 17 31 vvcurveto
          37 33 32 3 2 vhcurveto
          -16 17 rlineto
          -16 -7 -75 -43 -60 vvcurveto
          -42 24 -16 27 vhcurveto
          -178 -725 -50 callsubr
        </CharString>
        <CharString name="gdotaccent">
          -72 290 -63 callgsubr
          -153 -757 -96 callsubr
        </CharString>
        <CharString name="germandbls">
          -7 111 486 rmoveto
          -98 -661 78 10 99 692 rlineto
          69 10 22 46 89 hhcurveto
          62 32 -37 -49 -93 -41 -30 -95 -52 hvcurveto
          -10 -64 rlineto
          140 -87 30 -32 -61 vvcurveto
          -78 -51 -16 -38 -49 -26 17 0 vhcurveto
          -9 98 rlineto
          -25 hlineto
          -1 -43 -31 -46 -72 71 -18 74 90 84 48 119 80 -44 35 -127 90 hvcurveto
          64 36 84 48 112 vvcurveto
          95 -69 47 -90 -106 -87 -80 -135 -20 vhcurveto
          endchar
        </CharString>
        <CharString name="grave">
          -345 119 624 -80 callgsubr
          endchar
        </CharString>
        <CharString name="gravecomb">
          -83 624 -80 callgsubr
          endchar
        </CharString>
        <CharString name="gravecomb.case">
          -87 735 -83 callsubr
          endchar
        </CharString>
        <CharString name="greater">
          -17 38 65 rmoveto
          24 -65 462 226 8 62 -408 214 -40 -66 360 -177 rlineto
          endchar
        </CharString>
        <CharString name="greaterequal">
          -17 40 132 rmoveto
          -13 -77 484 183 8 62 -437 218 -11 -77 360 -174 rlineto
          -405 -219 rmoveto
          -7 -59 rlineto
          459 hlineto
          7 59 rlineto
          endchar
        </CharString>
        <CharString name="guillemotleft">
          -191 147 74 -1 callsubr
          233 -104 -1 callsubr
          endchar
        </CharString>
        <CharString name="guillemotright">
          -191 21 74 -23 callsubr
          174 -16 -23 callsubr
          endchar
        </CharString>
        <CharString name="guilsinglleft">
          -319 164 71 rmoveto
          26 17 -65 151 95 149 -20 19 -100 -98 rlineto
          -19 -18 -38 -42 -7 vvcurveto
          -12 29 -37 12 -18 vhcurveto
          endchar
        </CharString>
        <CharString name="guilsinglright">
          -319 52 74 -23 callsubr
          endchar
        </CharString>
        <CharString name="h">
          -25 158 627 -62 callgsubr
          endchar
        </CharString>
        <CharString name="hbar">
          -25 378 -4 rmoveto
          47 47 31 0 hvcurveto
          39 -75 vlineto
          43 277 rlineto
          3 20 6 32 27 vvcurveto
          50 -22 41 -69 -60 -73 -52 -21 -27 vhcurveto
          19 125 rlineto
          159 48 -151 4 callsubr
          -75 -48 68 hlineto
          -97 -565 rlineto
          80 hlineto
          61 398 rlineto
          13 20 59 34 54 hhcurveto
          41 7 -19 -30 -9 -3 -24 -2 -10 hvcurveto
          -47 -43 callgsubr
          17 -14 42 vhcurveto
          endchar
        </CharString>
        <CharString name="hcircumflex">
          -25 311 716 -100 callgsubr
          -54 -168 -62 callgsubr
          endchar
        </CharString>
        <CharString name="hookabovecomb">
          -115 536 -99 callsubr
          endchar
        </CharString>
        <CharString name="hookabovecomb.case">
          -104 677 -100 callsubr
          endchar
        </CharString>
        <CharString name="hungarumlaut">
          -246 85 -57 callsubr
          endchar
        </CharString>
        <CharString name="hyphen">
          5 callgsubr
        </CharString>
        <CharString name="i">
          -29 callsubr
          endchar
        </CharString>
        <CharString name="i.loclTRK">
          -259 196 -63 callgsubr
          -60 -157 -84 callsubr
        </CharString>
        <CharString name="iacute">
          -259 112 559 -91 callgsubr
          40 -595 -35 callsubr
        </CharString>
        <CharString name="iacute_j.loclNLD">
          13 176 559 -91 callgsubr
          314 -32 -91 callgsubr
          -163 -682 rmoveto
          -38 callsubr
          -77 callsubr
          -139 525 -84 callsubr
        </CharString>
        <CharString name="ibreve">
          -259 180 568 -93 callgsubr
          -44 -134 -84 callsubr
        </CharString>
        <CharString name="icircumflex">
          -259 252 567 rmoveto
          30 35 -70 97 rlineto
          19 -17 -9 14 -10 hhcurveto
          -11 -24 -26 -15 -15 hvcurveto
          -93 -93 29 -28 101 72 rlineto
          -37 -646 -35 callsubr
        </CharString>
        <CharString name="idieresis">
          -259 69 594 -90 callgsubr
          -130 -598 -35 callsubr
        </CharString>
        <CharString name="igrave">
          -259 111 624 -80 callgsubr
          25 -190 -84 callsubr
        </CharString>
        <CharString name="ij">
          -12 179 -63 callgsubr
          266 -8 -102 callgsubr
          -238 -750 rmoveto
          -77 callsubr
          -38 callsubr
          hvcurveto
          -71 601 -84 callsubr
        </CharString>
        <CharString name="imacron">
          -259 38 673 rmoveto
          -10 -63 rlineto
          248 hlineto
          10 63 rlineto
          -150 -239 -84 callsubr
        </CharString>
        <CharString name="infinity">
          253 376 192 rmoveto
          -90 54 44 -30 70 hhcurveto
          104 97 84 130 94 -62 59 -88 -70 -49 -29 -91 -83 hvcurveto
          91 -55 -47 29 -70 hhcurveto
          -105 -96 -86 -131 -93 63 -57 87 70 56 30 90 80 hvcurveto
          -35 63 rmoveto
          -57 -47 -56 -66 -58 hhcurveto
          -49 -38 43 58 85 40 58 69 64 46 -66 -55 29 hvcurveto
          88 hmoveto
          55 43 50 62 64 hhcurveto
          56 30 -35 -58 -88 -58 -54 -60 -1 hvcurveto
          -58 -36 62 57 -31 hvcurveto
          endchar
        </CharString>
        <CharString name="integral">
          -211 167 538 rmoveto
          -79 -582 rlineto
          -28 -4 -10 -19 -25 -47 -7 22 -18 hhcurveto
          -10 -9 -16 -16 -26 vvcurveto
          -24 26 -18 35 77 67 83 92 13 vhcurveto
          79 582 rlineto
          28 4 8 19 26 47 7 -22 18 hhcurveto
          11 10 16 15 28 vvcurveto
          23 -27 17 -34 -79 -66 -83 -92 -12 vhcurveto
          endchar
        </CharString>
        <CharString name="iogonek">
          -259 179 -63 callgsubr
          -18 -717 rmoveto
          9 callsubr
          52 51 34 16 10 hvcurveto
          18 8 14 9 0 vvcurveto
          -2 callsubr
          79 -17 -66 -363 rlineto
          -2 -8 -1 -10 -6 vvcurveto
          -36 16 -14 39 -2 vhcurveto
          -42 -28 -26 -38 -43 -28 callgsubr
          vhcurveto
          endchar
        </CharString>
        <CharString name="itilde">
          -259 266 595 -98 callgsubr
          -130 -161 -84 callsubr
        </CharString>
        <CharString name="j">
          -275 182 583 -102 callgsubr
          -238 -750 rmoveto
          -77 callsubr
          -38 callsubr
          hvcurveto
          endchar
        </CharString>
        <CharString name="jcircumflex">
          -275 295 562 -100 callgsubr
          -209 -732 rmoveto
          -38 callsubr
          -77 callsubr
          endchar
        </CharString>
        <CharString name="k">
          -74 150 -37 callgsubr
          endchar
        </CharString>
        <CharString name="kcommaaccent">
          -72 157 -37 callgsubr
          91 -827 rmoveto
          17 -17 rlineto
          -80 callsubr
        </CharString>
        <CharString name="kgreenlandic">
          -60 301 218 rmoveto
          65 42 96 63 94 vvcurveto
          59 -38 37 -55 -64 -67 -50 -23 -30 vhcurveto
          67 -36 callgsubr
          10 callgsubr
          79 hlineto
          65 395 rlineto
          13 20 56 37 53 hhcurveto
          34 19 -16 -29 -62 -86 -74 -70 -39 hvcurveto
          -20 vlineto
          72 -163 rlineto
          -33 14 17 -13 36 hhcurveto
          61 32 31 0 hvcurveto
          39 -85 vlineto
          endchar
        </CharString>
        <CharString name="l">
          -276 159 627 -58 callsubr
          endchar
        </CharString>
        <CharString name="lacute">
          -276 93 704 rmoveto
          156 47 rlineto
          35 10 17 7 28 vvcurveto
          18 -11 20 -18 11 vhcurveto
          -195 -104 rlineto
          45 -745 rmoveto
          47 42 31 0 hvcurveto
          39 -73 vlineto
          88 561 rlineto
          77 vlineto
          -147 -24 rlineto
          -37 vlineto
          79 -16 -97 -558 -24 callgsubr
          vhcurveto
          endchar
        </CharString>
        <CharString name="lcaron">
          -276 250 576 -42 callgsubr
          -92 51 -58 callsubr
          endchar
        </CharString>
        <CharString name="lcommaaccent">
          -276 158 627 -58 callsubr
          -36 -827 rmoveto
          17 -17 rlineto
          -80 callsubr
        </CharString>
        <CharString name="ldot">
          -276 159 627 -58 callsubr
          188 -347 -59 callgsubr
          endchar
        </CharString>
        <CharString name="less">
          -17 66 268 rmoveto
          -8 -62 410 -206 38 65 -360 174 406 197 -24 66 rlineto
          endchar
        </CharString>
        <CharString name="lessequal">
          -17 495 59 rmoveto
          11 77 -360 174 391 135 13 77 -484 -183 -8 -62 rlineto
          -31 -287 rmoveto
          459 hlineto
          7 59 rlineto
          -459 hlineto
          endchar
        </CharString>
        <CharString name="logicalnot">
          -17 40 364 rmoveto
          -60 369 -182 53 242 vlineto
          endchar
        </CharString>
        <CharString name="longs">
          -278 34 -175 rmoveto
          78 10 101 705 5 32 15 35 16 16 rlinecurve
          7 7 25 5 26 hhcurveto
          69 hlineto
          -1 14 13 27 26 -11 10 -28 -109 -84 -81 -123 -19 hvcurveto
          6 callsubr
        </CharString>
        <CharString name="lozenge">
          -17 64 330 rmoveto
          119 -330 rlineto
          62 hlineto
          225 330 -123 319 rlineto
          -62 hlineto
          104 -321 rmoveto
          -161 -257 -84 258 159 239 rlineto
          endchar
        </CharString>
        <CharString name="lslash">
          -276 98 285 rmoveto
          -37 -216 -24 callgsubr
          47 42 1 callsubr
          39 250 104 40 rlineto
          54 vlineto
          -95 -38 40 255 rlineto
          72 vlineto
          -147 -66 callgsubr
          79 -16 -50 -286 -109 -43 rlineto
          -51 vlineto
          endchar
        </CharString>
        <CharString name="m">
          237 140 434 rmoveto
          -83 -434 rlineto
          86 hlineto
          62 397 rlineto
          0 72 48 61 37 4 -25 -18 -14 -1 -21 -4 -23 vhcurveto
          -60 -344 rlineto
          81 hlineto
          58 361 5 36 rlineto
          14 22 60 34 52 hhcurveto
          37 6 -25 -18 -14 -2 -21 -4 -23 hvcurveto
          -51 -275 -57 callgsubr
          19 -14 42 47 47 1 callsubr
          49 295 rlineto
          3 20 7 39 15 vvcurveto
          40 -23 38 -64 -68 -85 -65 -12 -16 vhcurveto
          39 -1 -21 38 -63 hhcurveto
          -73 -91 -74 0 hvcurveto
          68 vlineto
          -150 -66 callgsubr
          endchar
        </CharString>
        <CharString name="macron">
          -235 74 677 -51 callsubr
          endchar
        </CharString>
        <CharString name="minus">
          -17 88 299 12 callgsubr
        </CharString>
        <CharString name="multiply">
          -17 71 155 rmoveto
          46 -52 131 117 103 -116 54 47 -103 117 132 118 -45 52 -133 -118 -99 114 -53 -48 99 -114 rlineto
          endchar
        </CharString>
        <CharString name="n">
          -14 136 434 -90 callsubr
          endchar
        </CharString>
        <CharString name="nacute">
          -14 284 559 -91 callgsubr
          129 -595 -39 callsubr
        </CharString>
        <CharString name="nacute.loclPLK">
          -14 318 -38 callgsubr
          -149 -140 -90 callsubr
          endchar
        </CharString>
        <CharString name="napostrophe">
          53 63 576 -42 callgsubr
          73 -142 -90 callsubr
          endchar
        </CharString>
        <CharString name="ncaron">
          -14 191 696 -79 callgsubr
          -88 -297 -90 callsubr
          endchar
        </CharString>
        <CharString name="ncommaaccent">
          -14 136 434 -90 callsubr
          143 -635 rmoveto
          17 -17 rlineto
          -80 callsubr
        </CharString>
        <CharString name="nine">
          -52 -9 38 208 55 317 51 hstem
          52 88 227 92 vstem
          117 -9 rmoveto
          197 145 183 248 150 -72 88 -123 -114 -98 -112 -131 -109 66 -71 100 44 50 19 29 32 hvcurveto
          3 2 3 4 2 4 2 -2 rcurveline
          -172 -29 -94 -92 -147 hhcurveto
          -14 -14 1 2 -15 hvcurveto
          -5 -34 rlineto
          -4 18 34 -3 29 hhcurveto
          137 301 rmoveto
          -72 -42 50 87 115 42 65 73 80 32 -43 -110 -54 -2 -36 -5 -28 hvcurveto
          -27 -28 -44 -19 -34 hhcurveto
          endchar
        </CharString>
        <CharString name="nine.osf">
          -48 86 -166 rmoveto
          214 148 198 287 137 -62 75 -112 -136 -94 -115 -166 -83 63 -62 83 59 63 24 34 30 hvcurveto
          -195 -31 -96 -87 -185 hhcurveto
          -5 -40 rlineto
          -4 18 25 -3 18 hhcurveto
          145 326 rmoveto
          -66 -33 44 88 124 34 57 75 79 40 -44 -88 -47 -4 -43 -8 -45 hvcurveto
          -27 -28 -49 -19 -40 hhcurveto
          endchar
        </CharString>
        <CharString name="notequal">
          -17 170 148 rmoveto
          -80 -124 52 -33 101 157 rlineto
          239 hlineto
          7 60 rlineto
          -208 hlineto
          64 99 rlineto
          156 hlineto
          8 60 rlineto
          -125 hlineto
          76 118 -49 32 -98 -150 rlineto
          -204 hlineto
          -8 -60 rlineto
          173 hlineto
          -65 -99 rlineto
          -120 hlineto
          -7 -60 rlineto
          endchar
        </CharString>
        <CharString name="ntilde">
          -14 381 595 -98 callgsubr
          6 -599 -39 callsubr
        </CharString>
        <CharString name="numbersign">
          -17 106 124 rmoveto
          14 callgsubr
          134 hlineto
          14 callgsubr
          128 59 -117 hlineto
          26 136 rlineto
          114 59 -102 8 callgsubr
          8 callgsubr
          -59 122 hlineto
          -26 -136 rlineto
          -119 -59 hlineto
          313 59 rmoveto
          -134 hlineto
          26 136 rlineto
          134 hlineto
          endchar
        </CharString>
        <CharString name="o">
          -89 178 -9 -106 callsubr
          endchar
        </CharString>
        <CharString name="oacute">
          -89 224 559 -91 callgsubr
          -20 -600 -106 callsubr
          endchar
        </CharString>
        <CharString name="oacute.loclPLK">
          -89 297 -38 callgsubr
          -86 -583 -106 callsubr
          endchar
        </CharString>
        <CharString name="obreve">
          -89 282 568 -93 callgsubr
          -104 -577 -106 callsubr
          endchar
        </CharString>
        <CharString name="ocircumflex">
          -89 381 562 -100 callgsubr
          -104 -650 -106 callsubr
          endchar
        </CharString>
        <CharString name="odieresis">
          -89 180 594 -90 callgsubr
          -189 -603 -106 callsubr
          endchar
        </CharString>
        <CharString name="oe">
          131 178 -9 rmoveto
          66 55 28 53 41 hvcurveto
          -56 19 43 -25 79 hhcurveto
          54 65 29 40 34 -10 callgsubr
          -23 -32 -42 -15 -29 hhcurveto
          -77 -25 34 105 hvcurveto
          1 14 rlineto
          186 37 70 58 117 vvcurveto
          56 -45 41 -61 -61 -54 -31 -60 -41 vhcurveto
          61 -17 -40 30 -65 hhcurveto
          -145 -98 -143 -212 -109 48 -58 90 -17 callsubr
          -75 -19 30 119 83 31 129 26 24 hvcurveto
          10 11 28 8 25 hhcurveto
          73 20 -32 -117 -85 -30 -132 -25 -23 hvcurveto
          -9 -10 -23 -5 -32 hhcurveto
          199 196 rmoveto
          10 78 22 77 25 38 rrcurveto
          9 6 21 5 30 hhcurveto
          40 22 -21 -37 -84 -40 -34 -136 -31 hvcurveto
          endchar
        </CharString>
        <CharString name="ogonek">
          -364 129 -11 callsubr
        </CharString>
        <CharString name="ograve">
          -89 335 558 rmoveto
          26 32 -139 142 rlineto
          -35 -12 -7 -22 -18 vvcurveto
          -21 33 -23 21 -13 vhcurveto
          -56 -632 -106 callsubr
          endchar
        </CharString>
        <CharString name="ohorn">
          -89 537 500 -92 callsubr
          endchar
        </CharString>
        <CharString name="ohungarumlaut">
          -89 175 -57 callsubr
          -119 -592 -106 callsubr
          endchar
        </CharString>
        <CharString name="omacron">
          -89 132 614 rmoveto
          282 hlineto
          8 63 rlineto
          -282 hlineto
          38 -686 -106 callsubr
          endchar
        </CharString>
        <CharString name="one">
          -167 21 -21 652 -20 hstem
          131 55 rmoveto
          -121 -14 -5 -41 rlineto
          325 hlineto
          5 41 -126 14 84 597 rlineto
          -42 hlineto
          -196 -34 rlineto
          -43 149 vlineto
          endchar
        </CharString>
        <CharString name="one.osf">
          -167 34 44 rmoveto
          -5 -44 rlineto
          288 hlineto
          5 44 -105 11 66 466 rlineto
          -41 hlineto
          -162 -30 rlineto
          -47 115 vlineto
          -55 -389 rlineto
          endchar
        </CharString>
        <CharString name="onehalf">
          -20 callgsubr
          425 -346 rmoveto
          -21 callgsubr
          -128 -110 rlineto
          endchar
        </CharString>
        <CharString name="onequarter">
          -20 callgsubr
          540 -353 -16 callgsubr
        </CharString>
        <CharString name="ordfeminine">
          -203 202 433 rmoveto
          3 -2 rlineto
          -10 -16 -4 -12 -11 vvcurveto
          -18 12 -16 34 31 40 23 0 vhcurveto
          38 -49 vlineto
          46 291 rlineto
          -37 hlineto
          -17 -24 rlineto
          3 -7 -35 18 -36 hhcurveto
          -116 -36 -178 -65 -66 22 -43 57 41 39 41 37 22 hvcurveto
          30 194 rmoveto
          -26 -150 rlineto
          -23 -18 -35 -39 -30 hhcurveto
          -26 -11 27 34 65 16 77 20 26 hvcurveto
          3 2 28 2 8 hhcurveto
          32 17 -8 -14 23 hvcurveto
          endchar
        </CharString>
        <CharString name="ordmasculine">
          -217 144 355 rmoveto
          103 58 105 120 87 -48 40 -61 -103 -68 -105 -118 -89 58 -40 61 hvcurveto
          18 54 rmoveto
          -36 -33 20 76 56 19 72 8 9 hvcurveto
          6 5 34 2 11 hhcurveto
          36 31 -19 -74 -58 -16 -73 -8 -9 hvcurveto
          -7 -7 -33 -1 -11 hhcurveto
          endchar
        </CharString>
        <CharString name="oslash">
          -89 118 -74 -53 callsubr
        </CharString>
        <CharString name="oslashacute">
          -89 240 559 -91 callgsubr
          -96 -665 -53 callsubr
        </CharString>
        <CharString name="otilde">
          -89 340 595 -98 callgsubr
          -162 -604 -106 callsubr
          endchar
        </CharString>
        <CharString name="p">
          -57 125 434 rmoveto
          -110 -609 83 10 28 180 rlineto
          -6 24 43 -9 40 hhcurveto
          160 62 266 97 97 -38 53 -82 -74 -73 -89 -9 -6 hvcurveto
          -2 3 rlineto
          6 7 6 11 12 vvcurveto
          58 vlineto
          -146 -66 callgsubr
          93 -354 rmoveto
          45 288 rlineto
          17 21 56 43 47 hhcurveto
          49 16 -35 -67 -107 -45 -136 -27 -32 hvcurveto
          -6 -5 -27 -5 -19 hhcurveto
          -51 -42 27 13 -18 hvcurveto
          endchar
        </CharString>
        <CharString name="paragraph">
          56 298 196 rmoveto
          63 452 rlineto
          -134 -122 -118 -136 -111 83 -83 110 -4 hvcurveto
          -187 -361 rmoveto
          149 hlineto
          103 51 68 55 8 hvcurveto
          90 635 80 14 5 41 rlineto
          -157 hlineto
          -92 -669 -8 -54 -15 -20 -67 -8 rlinecurve
          -142 -17 rlineto
          endchar
        </CharString>
        <CharString name="parenleft">
          -347 137 -151 rmoveto
          23 40 rlineto
          -59 28 -29 14 168 vvcurveto
          185 58 329 167 45 vhcurveto
          -11 41 rlineto
          -222 -64 -72 -351 -186 vvcurveto
          -121 33 -105 112 -23 vhcurveto
          endchar
        </CharString>
        <CharString name="parenright">
          -347 -86 -110 rmoveto
          11 -41 rlineto
          224 65 70 350 186 vvcurveto
          121 -33 105 -112 23 vhcurveto
          -23 -40 rlineto
          59 -28 29 -14 -168 vvcurveto
          -185 -58 -329 -167 -45 vhcurveto
          endchar
        </CharString>
        <CharString name="partialdiff">
          -17 222 -9 rmoveto
          175 117 177 265 164 -72 91 -130 -57 -67 -25 -34 -39 hvcurveto
          17 -26 rlineto
          18 38 44 12 33 hhcurveto
          95 54 -68 -120 -17 -1 -17 -2 -17 hvcurveto
          18 -24 -49 14 -43 hhcurveto
          -154 -113 -110 -149 -109 67 -67 111 hvcurveto
          17 58 rmoveto
          -66 -38 46 80 126 56 61 116 44 49 -9 -13 21 hvcurveto
          -204 -25 -54 -87 -103 hhcurveto
          endchar
        </CharString>
        <CharString name="percent">
          159 176 -40 callsubr
          11 51 rmoveto
          -33 -36 18 50 99 32 43 62 33 36 -18 -50 -99 -32 -43 -62 hvcurveto
          endchar
        </CharString>
        <CharString name="period">
          -387 44 -11 -59 callgsubr
          endchar
        </CharString>
        <CharString name="periodcentered">
          -356 87 199 -59 callgsubr
          endchar
        </CharString>
        <CharString name="perthousand">
          527 184 -40 callsubr
          341 hmoveto
          -35 callgsubr
          -330 51 rmoveto
          -28 callsubr
          341 hmoveto
          -28 callsubr
          endchar
        </CharString>
        <CharString name="pi">
          -11 380 -4 rmoveto
          47 47 31 0 hvcurveto
          39 -72 vlineto
          66 378 rlineto
          3 hlineto
          21 29 3 20 23 hvcurveto
          47 41 -25 39 -90 -34 rlineto
          -310 hlineto
          -38 -27 -11 -25 -25 hvcurveto
          -43 -38 24 -36 94 40 -74 -389 -67 -13 rlineto
          -41 132 vlineto
          2 12 3 12 2 12 74 408 rcurveline
          166 hlineto
          -54 -297 rlineto
          -5 -26 -9 -49 -25 vvcurveto
          -23 8 -28 51 vhcurveto
          endchar
        </CharString>
        <CharString name="plus">
          -27 224 240 -8 callgsubr
          endchar
        </CharString>
        <CharString name="plusminus">
          -17 231 304 -8 callgsubr
          -31 -222 12 callgsubr
        </CharString>
        <CharString name="product">
          101 13 44 rmoveto
          -6 -44 rlineto
          243 hlineto
          5 44 -81 15 75 530 rlineto
          260 hlineto
          -75 -530 -85 -15 -5 -44 rlineto
          244 hlineto
          5 44 -81 15 75 530 85 15 5 44 rlineto
          -585 hlineto
          -5 -44 85 -15 -75 -530 rlineto
          endchar
        </CharString>
        <CharString name="q">
          -79 291 40 rmoveto
          -38 -215 82 10 108 689 rlineto
          -36 hlineto
          -29 -40 rlineto
          8 -15 -46 21 -52 hhcurveto
          -149 -80 -237 -126 -97 36 -62 83 68 56 55 65 34 hvcurveto
          3 -1 -9 -16 -10 -20 -6 -34 rlinecurve
          62 373 rmoveto
          -44 -263 rlineto
          -41 -28 -51 -59 -50 hhcurveto
          -49 -13 54 67 107 35 104 37 56 hvcurveto
          6 4 12 9 19 hhcurveto
          49 45 -17 -23 34 hvcurveto
          endchar
        </CharString>
        <CharString name="question">
          -186 76 159 rmoveto
          52 hlineto
          31 117 49 17 rlineto
          77 27 64 54 110 vvcurveto
          108 -64 69 -130 -75 -36 -17 -37 -25 15 -6 0 vhcurveto
          7 25 39 3 28 hhcurveto
          82 45 -45 -83 -66 -19 -26 -102 -35 hvcurveto
          -68 -23 rlineto
          -7 -319 rmoveto
          42 20 33 32 33 -20 23 -33 -35 -24 -31 -34 -37 20 -19 30 hvcurveto
          endchar
        </CharString>
        <CharString name="questiondown">
          -186 287 400 rmoveto
          35 24 31 34 37 -20 19 -32 -39 -21 -33 -32 -33 20 -23 33 hvcurveto
          -64 -551 rmoveto
          75 36 17 37 25 -15 6 0 hvcurveto
          -7 -25 -39 -3 -28 hhcurveto
          -82 -45 45 83 60 19 32 102 35 hvcurveto
          68 23 13 149 rlineto
          -52 hlineto
          -31 -117 -49 -17 rlineto
          -77 -27 -64 -54 -110 vvcurveto
          -108 64 -69 130 vhcurveto
          endchar
        </CharString>
        <CharString name="quotedbl">
          -213 52 494 -17 callgsubr
          117 -211 -17 callgsubr
          endchar
        </CharString>
        <CharString name="quotedblbase">
          -197 37 -114 -40 callgsubr
          168 -18 -40 callgsubr
          endchar
        </CharString>
        <CharString name="quotedblleft">
          -242 131 487 rmoveto
          -6 callgsubr
          148 hmoveto
          -6 callgsubr
          endchar
        </CharString>
        <CharString name="quotedblright">
          -197 62 487 -40 callgsubr
          168 -18 -40 callgsubr
          endchar
        </CharString>
        <CharString name="quoteleft">
          -397 102 468 rmoveto
          39 25 36 36 28 -18 19 -23 -5 -6 -1 -3 -5 hvcurveto
          -1 3 73 99 -20 18 rlineto
          -53 -39 -62 -74 -61 vvcurveto
          -37 17 -24 39 vhcurveto
          endchar
        </CharString>
        <CharString name="quoteright">
          -397 68 476 rmoveto
          -41 callsubr
        </CharString>
        <CharString name="quotesinglbase">
          -359 28 -126 rmoveto
          -41 callsubr
        </CharString>
        <CharString name="quotesingle">
          -340 61 494 -17 callgsubr
          endchar
        </CharString>
        <CharString name="r">
          -25 callgsubr
          endchar
        </CharString>
        <CharString name="racute">
          -230 202 559 -91 callgsubr
          -117 -591 rmoveto
          -75 callgsubr
          79 -17 rlineto
          endchar
        </CharString>
        <CharString name="radical">
          -17 211 -5 rmoveto
          49 hlineto
          325 718 81 16 6 41 rlineto
          -117 hlineto
          -273 -610 -17 -39 -8 41 -62 332 rlineto
          -143 hlineto
          -6 -41 68 -16 rlineto
          endchar
        </CharString>
        <CharString name="rcaron">
          -230 107 696 -79 callgsubr
          -4 -297 rmoveto
          -77 -434 rlineto
          -75 callgsubr
          endchar
        </CharString>
        <CharString name="rcommaaccent">
          -25 callgsubr
          -13 -635 rmoveto
          17 -17 rlineto
          -80 callsubr
        </CharString>
        <CharString name="registered">
          103 365 230 rmoveto
          151 122 122 151 151 -122 122 -151 -151 -122 -122 -151 -151 122 -122 151 hvcurveto
          52 vmoveto
          -121 -94 97 124 124 94 97 121 120 95 -97 -124 -124 -95 -97 -120 hvcurveto
          -143 76 rmoveto
          138 24 hlineto
          -37 7 rlineto
          83 28 vlineto
          65 -101 rlineto
          -8 4 9 -5 11 hhcurveto
          71 25 hlineto
          -36 9 -62 90 rlineto
          38 13 25 36 43 vvcurveto
          45 -37 29 -57 vhcurveto
          -160 -28 hlineto
          37 -6 rlineto
          -225 vlineto
          -37 -7 rlineto
          101 123 rmoveto
          106 vlineto
          2 11 13 1 10 hhcurveto
          38 13 -12 -33 -43 -19 -21 -38 hvcurveto
          endchar
        </CharString>
        <CharString name="ring">
          -369 138 564 -60 callsubr
          endchar
        </CharString>
        <CharString name="s">
          -147 159 -9 -81 callsubr
          endchar
        </CharString>
        <CharString name="sacute">
          -147 203 559 rmoveto
          101 65 rlineto
          34 20 20 22 15 vvcurveto
          25 -14 18 -28 9 vhcurveto
          -139 -142 rlineto
          -16 -600 rmoveto
          97 85 70 80 72 -56 42 -53 38 hvcurveto
          -49 34 -47 29 44 vvcurveto
          41 29 17 70 20 25 -5 -6 14 vhcurveto
          8 -92 rlineto
          25 hlineto
          26 11 19 30 30 vvcurveto
          54 -50 33 -83 -90 -83 -63 -69 -77 66 -42 57 -39 vhcurveto
          43 -30 37 -28 -39 vvcurveto
          -59 -29 -24 -71 -28 -32 7 10 -15 vhcurveto
          -8 98 rlineto
          -25 hlineto
          -14 -31 -52 -24 -62 45 -29 98 hvcurveto
          endchar
        </CharString>
        <CharString name="sacute.loclPLK">
          -147 251 -38 callgsubr
          -59 -583 -81 callsubr
          endchar
        </CharString>
        <CharString name="scaron">
          -147 236 562 rmoveto
          11 23 26 15 16 hvcurveto
          102 96 -26 30 -112 -80 -96 82 -33 -35 79 -101 rlineto
          -19 17 9 -14 10 hhcurveto
          -77 -571 -81 callsubr
          endchar
        </CharString>
        <CharString name="scedilla">
          -147 132 -187 rmoveto
          69 39 32 57 19 -11 16 -21 13 hvcurveto
          -34 21 rlineto
          20 vlineto
          91 5 78 69 76 vvcurveto
          72 -56 42 -53 38 vhcurveto
          -49 34 -47 29 44 vvcurveto
          41 29 17 70 20 25 -5 -6 14 vhcurveto
          8 -92 rlineto
          25 hlineto
          26 11 19 30 30 vvcurveto
          54 -50 33 -83 -90 -83 -63 -69 -75 63 -42 56 -39 vhcurveto
          44 -30 40 -28 -41 vvcurveto
          -59 -29 -24 -71 -28 -32 7 10 -15 vhcurveto
          -8 98 rlineto
          -25 hlineto
          -14 -31 -52 -24 -55 35 -28 74 -6 hvcurveto
          -30 -42 rlineto
          -20 vlineto
          52 -27 rlineto
          16 -9 7 -8 -9 vvcurveto
          -16 -14 -7 -30 -26 -15 4 12 -19 vhcurveto
          -20 -29 rlineto
          -19 25 29 -10 30 hhcurveto
          endchar
        </CharString>
        <CharString name="scircumflex">
          -147 351 562 -100 callgsubr
          -93 -650 -81 callsubr
          endchar
        </CharString>
        <CharString name="scommaaccent">
          -147 161 -9 rmoveto
          97 85 70 80 71 -54 43 -53 36 hvcurveto
          -50 35 -48 30 44 vvcurveto
          41 29 17 70 20 25 -5 -6 14 vhcurveto
          8 -92 rlineto
          25 hlineto
          26 11 19 30 30 vvcurveto
          54 -50 33 -83 -90 -83 -63 -69 -72 58 -42 55 -37 vhcurveto
          46 -32 44 -29 -43 vvcurveto
          -59 -29 -24 -71 -28 -32 7 10 -15 vhcurveto
          -8 98 rlineto
          -25 hlineto
          -14 -31 -52 -24 -62 45 -29 98 hvcurveto
          -46 -192 rmoveto
          47 21 44 53 36 vvcurveto
          36 -19 22 -32 -18 -17 -9 -14 -9 vhcurveto
          16 -14 8 -20 -23 vvcurveto
          -22 -16 -30 -21 -19 vhcurveto
          endchar
        </CharString>
        <CharString name="section">
          4 442 212 rmoveto
          50 62 -136 106 rlineto
          -93 72 -52 31 52 vvcurveto
          75 41 21 72 61 34 -13 0 vhcurveto
          8 -94 rlineto
          49 hlineto
          18 147 rlineto
          10 -22 -68 15 -66 hhcurveto
          -136 -79 -71 -108 -93 94 -47 97 -71 hvcurveto
          -92 -472 rmoveto
          103 115 61 120 73 -60 53 -95 66 hvcurveto
          -160 111 -51 -62 137 -101 rlineto
          70 -52 75 -46 -59 vvcurveto
          -76 -50 -30 -80 -55 -36 27 9 -10 vhcurveto
          -6 107 rlineto
          -54 hlineto
          -19 -153 rlineto
          -20 25 78 -28 73 hhcurveto
          endchar
        </CharString>
        <CharString name="semicolon">
          -321 120 322 -59 callgsubr
          -86 -448 rmoveto
          -41 callsubr
        </CharString>
        <CharString name="seven">
          -107 21 -21 572 76 hstem
          398 572 rmoveto
          -11 vlineto
          -347 -524 rlineto
          -37 65 vlineto
          341 572 rlineto
          76 -403 -155 41 vlineto
          18 79 rlineto
          endchar
        </CharString>
        <CharString name="seven.osf">
          -113 356 428 rmoveto
          -346 -566 35 -25 rlineto
          45 hlineto
          330 608 11 76 rlineto
          -397 -155 41 hlineto
          18 79 rlineto
          263 hlineto
          endchar
        </CharString>
        <CharString name="six">
          -52 -10 50 291 61 260 -20 hstem
          36 91 233 88 vstem
          238 -10 rmoveto
          104 106 94 142 121 -73 45 -89 -92 -48 -52 0 hvcurveto
          33 142 128 112 165 23 -4 35 rcurveline
          -235 -12 -197 -192 -226 vvcurveto
          -175 98 -57 104 vhcurveto
          2 50 rmoveto
          -80 -33 63 99 35 3 37 5 22 hvcurveto
          18 24 36 17 53 hhcurveto
          88 24 -37 -101 -107 -42 -46 -78 hvcurveto
          endchar
        </CharString>
        <CharString name="six.osf">
          -17 250 -10 rmoveto
          96 126 70 183 88 -50 61 -103 -92 -61 -43 0 hvcurveto
          34 133 125 112 165 23 -4 35 rcurveline
          -220 -214 -209 -239 -159 94 -55 104 hvcurveto
          6 60 rmoveto
          -69 -43 50 87 35 1 33 10 50 hvcurveto
          0 47 26 75 77 34 -27 -99 -118 -44 -37 -88 vhcurveto
          endchar
        </CharString>
        <CharString name="slash">
          3 callgsubr
        </CharString>
        <CharString name="space">
          -367 endchar
        </CharString>
        <CharString name="sterling">
          -47 328 606 rmoveto
          24 30 -3 -10 29 hvcurveto
          15 -90 rlineto
          49 hlineto
          15 132 rlineto
          12 -32 -50 12 -66 hhcurveto
          -137 -62 -52 -186 -23 hvcurveto
          -9 -70 rlineto
          -70 hlineto
          -7 -57 rlineto
          70 hlineto
          -14 -109 -4 -34 -10 -28 -12 -22 rlinecurve
          -20 -37 -26 -22 -14 -11 rrcurveto
          -16 7 -18 19 21 34 24 20 21 vhcurveto
          213 -40 rlineto
          -4 23 17 -3 14 hhcurveto
          23 11 8 25 15 hvcurveto
          27 46 -23 26 -61 -42 -223 47 24 28 0 53 2 12 rlinecurve
          13 97 rlineto
          165 hlineto
          7 57 rlineto
          -165 hlineto
          9 67 15 117 4 70 112 1 rlinecurve
          endchar
        </CharString>
        <CharString name="sterling.osf">
          -47 367 -6 rmoveto
          22 17 12 20 16 hvcurveto
          37 46 -23 26 -80 -37 -180 43 17 18 3 26 3 26 rlinecurve
          7 60 rlineto
          114 hlineto
          7 57 rlineto
          -113 hlineto
          6 47 rlineto
          82 10 5 58 80 hhcurveto
          35 28 -13 0 hvcurveto
          6 -90 rlineto
          49 hlineto
          16 132 rlineto
          0 -54 24 -76 -105 -54 -48 -144 -18 vhcurveto
          -6 -48 rlineto
          -61 hlineto
          -7 -57 rlineto
          61 hlineto
          -7 -60 -5 -41 -20 -36 -20 -26 rlinecurve
          -15 -21 -16 -14 -9 -6 rrcurveto
          -13 7 -20 18 19 34 19 25 25 vhcurveto
          158 -37 rlineto
          -8 25 24 -2 20 hhcurveto
          endchar
        </CharString>
        <CharString name="summation">
          -82 -11 hmoveto
          423 hlineto
          21 174 rlineto
          -46 hlineto
          -40 -111 rlineto
          -275 15 hlineto
          211 287 -120 220 rlineto
          14 246 vlineto
          10 -108 rlineto
          44 hlineto
          20 157 rlineto
          -399 hlineto
          -10 -50 136 -250 -221 -298 rlineto
          endchar
        </CharString>
        <CharString name="t">
          -234 135 450 -60 callgsubr
          endchar
        </CharString>
        <CharString name="tbar">
          -234 331 450 rmoveto
          8 57 rlineto
          -122 hlineto
          19 113 -71 -11 -19 -102 rlineto
          -88 hlineto
          -8 -57 rlineto
          85 hlineto
          -20 -117 rlineto
          -74 hlineto
          -7 -48 rlineto
          73 hlineto
          -30 -179 0 callgsubr
          -46 19 -19 58 60 73 -54 callsubr
          -132 vlineto
          33 219 rlineto
          121 hlineto
          7 48 rlineto
          -121 hlineto
          18 117 rlineto
          endchar
        </CharString>
        <CharString name="tcaron">
          -234 288 -7 callgsubr
          -153 -119 -60 callgsubr
          endchar
        </CharString>
        <CharString name="thorn">
          -71 -60 -166 rmoveto
          -73 callsubr
          19 121 rlineto
          -7 17 52 -8 30 hhcurveto
          118 111 177 189 105 -39 51 -81 -46 -61 -39 -56 -41 hvcurveto
          -2 3 9 12 6 10 1 7 rlinecurve
          26 177 -12 callgsubr
          -131 -742 -69 -14 rlineto
          301 179 rmoveto
          -38 -44 11 18 -38 hvcurveto
          50 305 rlineto
          37 41 45 23 31 hhcurveto
          48 19 -30 -78 -96 -31 -118 -42 -63 hvcurveto
          -7 -5 -9 -2 -27 hhcurveto
          endchar
        </CharString>
        <CharString name="three">
          -107 -10 50 274 53 224 69 hstemhm
          -8 73 244 84 -79 70 hintmask 11110100
          162 -10 rmoveto
          hintmask 11111000
          136 95 90 127 68 -44 53 -75 22 hvcurveto
          2 vlineto
          76 26 53 69 73 vvcurveto
          85 -62 55 -96 -71 -78 -49 -70 -37 vhcurveto
          22 -14 rlineto
          46 45 38 18 55 hhcurveto
          66 38 -33 -55 -79 -67 -57 -92 hvcurveto
          -35 -28 hlineto
          11 -25 rlineto
          27 hlineto
          94 48 -47 -92 -87 -51 -48 -91 -41 -42 12 17 -15 hvcurveto
          -7 92 rlineto
          -25 hlineto
          -14 -31 -52 -24 -61 61 -34 109 hvcurveto
          endchar
        </CharString>
        <CharString name="three.osf">
          -128 -8 -118 rmoveto
          -5 -41 rlineto
          0 38 -7 45 180 109 112 139 104 -57 29 -56 6 vhcurveto
          7 vlineto
          55 28 61 43 100 vvcurveto
          53 -26 73 -121 -116 -58 -93 0 vhcurveto
          25 -20 rlineto
          0 45 46 78 51 43 -18 -56 -80 -69 -54 -111 -20 vhcurveto
          -5 -28 16 -27 rlineto
          29 hlineto
          89 47 -23 -74 -138 -111 -61 -176 hvcurveto
          endchar
        </CharString>
        <CharString name="threequarters">
          223 175 -44 rmoveto
          484 703 -47 32 -487 -702 rlineto
          17 316 rmoveto
          95 57 47 67 60 -52 6 -26 3 hvcurveto
          -23 callgsubr
          -19 -27 rlineto
          0 25 -31 63 vhcurveto
          419 -311 -16 callgsubr
        </CharString>
        <CharString name="tilde">
          -228 281 595 -98 callgsubr
          endchar
        </CharString>
        <CharString name="tildecomb">
          -38 595 -98 callgsubr
          endchar
        </CharString>
        <CharString name="tildecomb.case">
          -262 736 -97 callgsubr
          endchar
        </CharString>
        <CharString name="trademark">
          310 145 391 rmoveto
          -30 164 30 vlineto
          -44 7 rlineto
          256 66 vlineto
          15 -58 rlineto
          39 103 -318 -103 39 hlineto
          15 58 rlineto
          67 -256 hlineto
          221 -9 rmoveto
          -28 135 28 vlineto
          -43 8 rlineto
          241 6 vlineto
          93 -277 rlineto
          56 hlineto
          97 275 rlineto
          6 -238 hlineto
          -43 -7 rlineto
          -30 164 30 vlineto
          -44 7 rlineto
          260 vlineto
          44 7 rlineto
          34 -157 vlineto
          -74 -216 -8 -39 -8 39 -71 216 rlineto
          -148 -34 hlineto
          39 -5 rlineto
          -263 vlineto
          endchar
        </CharString>
        <CharString name="two">
          -77 0 69 518 73 hstem
          346 85 vstem
          12 hmoveto
          378 hlineto
          30 156 -44 7 -34 -94 rlineto
          -254 hlineto
          -2 6 136 132 rlineto
          137 133 72 78 101 vvcurveto
          81 -55 60 -103 -116 -72 -89 -34 -21 vhcurveto
          21 -17 rlineto
          39 44 42 28 60 hhcurveto
          80 35 -35 -60 -59 -18 -50 -136 -131 hvcurveto
          -205 -198 rlineto
          endchar
        </CharString>
        <CharString name="two.osf">
          -77 28 hmoveto
          363 hlineto
          18 131 -42 8 -30 -75 rlineto
          -223 hlineto
          -4 12 112 83 rlineto
          99 73 92 65 98 vvcurveto
          85 -53 48 -102 -126 -76 -120 0 vhcurveto
          21 -19 rlineto
          29 37 58 40 71 hhcurveto
          49 36 -23 -47 -38 -12 -41 -102 -83 hvcurveto
          -206 -168 rlineto
          endchar
        </CharString>
        <CharString name="u">
          -24 128 434 rmoveto
          -78 callsubr
          -33 callsubr
          vhcurveto
          -103 callgsubr
          endchar
        </CharString>
        <CharString name="uacute">
          -24 268 559 -91 callgsubr
          -96 -597 rmoveto
          -33 callsubr
          hvcurveto
          -103 callgsubr
          79 -17 -51 -285 rlineto
          -4 -19 -3 -17 -36 vvcurveto
          -64 31 -19 45 vhcurveto
          endchar
        </CharString>
        <CharString name="ubreve">
          -24 298 568 -93 callgsubr
          -170 -134 rmoveto
          -78 callsubr
          -33 callsubr
          vhcurveto
          -103 callgsubr
          endchar
        </CharString>
        <CharString name="ucircumflex">
          -24 396 562 -100 callgsubr
          -151 -647 rmoveto
          -33 callsubr
          hvcurveto
          -103 callgsubr
          79 -17 -51 -285 rlineto
          -4 -19 -3 -17 -36 vvcurveto
          -64 31 -19 45 vhcurveto
          endchar
        </CharString>
        <CharString name="udieresis">
          -24 205 594 -90 callgsubr
          -246 -600 rmoveto
          -33 callsubr
          hvcurveto
          -103 callgsubr
          79 -17 -51 -285 rlineto
          -4 -19 -3 -17 -36 vvcurveto
          -64 31 -19 45 vhcurveto
          endchar
        </CharString>
        <CharString name="ugrave">
          -24 246 624 -80 callgsubr
          -118 -190 rmoveto
          -78 callsubr
          -33 callsubr
          vhcurveto
          -103 callgsubr
          endchar
        </CharString>
        <CharString name="uhorn">
          -24 602 500 -96 callgsubr
          endchar
        </CharString>
        <CharString name="uhungarumlaut">
          -24 199 -57 callsubr
          -175 -589 rmoveto
          -33 callsubr
          hvcurveto
          -103 callgsubr
          79 -17 -51 -285 rlineto
          -4 -19 -3 -17 -36 vvcurveto
          -64 31 -19 45 vhcurveto
          endchar
        </CharString>
        <CharString name="umacron">
          -24 174 677 -51 callsubr
          -328 -243 rmoveto
          -78 callsubr
          -33 callsubr
          vhcurveto
          -103 callgsubr
          endchar
        </CharString>
        <CharString name="underscore">
          -97 -1 vmoveto
          -59 450 59 vlineto
          endchar
        </CharString>
        <CharString name="uni00A0">
          -367 endchar
        </CharString>
        <CharString name="uni00AD">
          5 callgsubr
        </CharString>
        <CharString name="uni00B2">
          -237 2 399 rmoveto
          15 -38 rlineto
          -21 callgsubr
          endchar
        </CharString>
        <CharString name="uni00B3">
          -257 33 413 rmoveto
          -19 -27 rlineto
          0 25 -31 63 95 57 47 67 60 -52 6 -26 3 vhcurveto
          -23 callgsubr
          endchar
        </CharString>
        <CharString name="uni00B5">
          -48 callsubr
        </CharString>
        <CharString name="uni00B9">
          -247 21 397 rmoveto
          -4 -36 rlineto
          251 hlineto
          4 34 -88 14 43 292 rlineto
          -55 hlineto
          -111 -10 -6 -41 rlineto
          95 hlineto
          -35 -240 rlineto
          endchar
        </CharString>
        <CharString name="uni0162">
          -75 109 -52 callgsubr
          29 94 vlineto
          3 37 -68 14 -12 callsubr
          -3 callsubr
          52 hlineto
          -44 callgsubr
          9 callgsubr
          -29 callgsubr
          84 hlineto
          -36 -49 -55 callsubr
          endchar
        </CharString>
        <CharString name="uni0163">
          -234 60 -52 callgsubr
          26 vlineto
          56 5 60 25 0 vvcurveto
          39 -132 vlineto
          58 384 rlineto
          123 hlineto
          8 57 rlineto
          -122 hlineto
          19 113 -71 -11 -19 -102 rlineto
          -88 hlineto
          -8 -57 rlineto
          85 hlineto
          -58 -344 0 callgsubr
          -39 13 -19 38 -5 vhcurveto
          -34 -47 -55 callsubr
          endchar
        </CharString>
        <CharString name="uni018F">
          69 258 -11 rmoveto
          216 98 203 210 163 -87 95 -167 -89 -66 -25 -17 -36 hvcurveto
          -14 -136 rlineto
          42 hlineto
          31 97 rlineto
          0 40 30 74 133 48 -64 -153 vhcurveto
          -32 -426 vlineto
          -7 -36 -4 -38 -38 vvcurveto
          -161 76 -98 138 vhcurveto
          28 51 rmoveto
          -119 -35 72 161 11 0 11 1 10 hvcurveto
          344 hlineto
          -159 -13 -54 -106 -124 hhcurveto
          endchar
        </CharString>
        <CharString name="uni019D">
          12 callsubr
          -64 -453 -3 -23 rlineto
          -5 hlineto
          -10 26 -201 501 rlineto
          -145 -69 callsubr
          -84 -593 -6 -42 -11 -25 -19 -13 rlinecurve
          -7 -11 -19 -8 -28 hhcurveto
          -69 hlineto
          2 -15 -11 -30 -29 15 -6 27 87 88 64 140 19 hvcurveto
          66 482 rlineto
          5 hlineto
          7 -17 202 -502 rlineto
          77 hlineto
          84 597 -61 callsubr
          endchar
        </CharString>
        <CharString name="uni01C4">
          578 917 689 -75 callsubr
          -898 -652 rmoveto
          -29 callgsubr
          217 hlineto
          213 148 167 239 154 -94 88 -165 hvcurveto
          -231 -82 callsubr
          536 -7 rmoveto
          17 -44 rlineto
          -76 callgsubr
          rlineto
          -853 -527 rmoveto
          -12 callsubr
          rlineto
          2 7 24 2 29 hhcurveto
          139 60 -68 -156 hvcurveto
          -208 -3 -97 -124 -160 hhcurveto
          -22 -34 3 3 -20 hvcurveto
          endchar
        </CharString>
        <CharString name="uni01C5">
          483 753 696 -79 callgsubr
          -767 -694 -74 callsubr
          744 347 -95 callgsubr
          endchar
        </CharString>
        <CharString name="uni01C6">
          349 619 698 -79 callgsubr
          -338 -628 -71 callgsubr
          465 293 -95 callgsubr
          -419 4 -56 callgsubr
          endchar
        </CharString>
        <CharString name="uni01C7">
          293 -15 callgsubr
          364 106 -70 callgsubr
        </CharString>
        <CharString name="uni01C8">
          167 624 583 -102 callgsubr
          -605 -546 -68 callgsubr
          296 -218 rmoveto
          -77 callsubr
          -38 callsubr
          hvcurveto
          endchar
        </CharString>
        <CharString name="uni01C9">
          -4 453 583 -102 callgsubr
          -294 44 -58 callsubr
          135 -810 rmoveto
          -77 callsubr
          -38 callsubr
          hvcurveto
          endchar
        </CharString>
        <CharString name="uni01CA">
          505 -32 callsubr
          576 106 -70 callgsubr
        </CharString>
        <CharString name="uni01CB">
          379 836 583 -102 callgsubr
          -817 -546 -95 callsubr
          508 -218 rmoveto
          -77 callsubr
          -38 callsubr
          hvcurveto
          endchar
        </CharString>
        <CharString name="uni01CC">
          258 715 583 -102 callgsubr
          -579 -149 -90 callsubr
          420 -618 rmoveto
          -77 callsubr
          -38 callsubr
          hvcurveto
          endchar
        </CharString>
        <CharString name="uni01CD">
          -37 316 689 -75 callsubr
          -362 -652 -107 callgsubr
          endchar
        </CharString>
        <CharString name="uni01CE">
          -53 170 696 -79 callgsubr
          104 -625 -107 callsubr
          endchar
        </CharString>
        <CharString name="uni01CF">
          -220 225 689 -75 callsubr
          -205 -652 -86 callgsubr
          endchar
        </CharString>
        <CharString name="uni01D0">
          -259 67 696 -79 callgsubr
          36 -297 -84 callsubr
        </CharString>
        <CharString name="uni01D1">
          103 374 689 -75 callsubr
          -99 -700 -105 callsubr
          endchar
        </CharString>
        <CharString name="uni01D2">
          -89 169 696 -79 callgsubr
          -24 -740 -106 callsubr
          endchar
        </CharString>
        <CharString name="uni01D3">
          71 370 689 -75 callsubr
          -244 -92 -104 callgsubr
        </CharString>
        <CharString name="uni01D4">
          -24 185 696 -79 callgsubr
          -90 -297 rmoveto
          -78 callsubr
          -33 callsubr
          vhcurveto
          -103 callgsubr
          endchar
        </CharString>
        <CharString name="uni01D5">
          71 260 953 -51 callsubr
          -269 -250 -87 callgsubr
          -358 -106 -104 callgsubr
        </CharString>
        <CharString name="uni01D6">
          -24 205 889 -51 callsubr
          -271 -295 -90 callgsubr
          -275 -160 rmoveto
          -78 callsubr
          -33 callsubr
          vhcurveto
          -103 callgsubr
          endchar
        </CharString>
        <CharString name="uni01D7">
          71 360 852 -93 callsubr
          -65 -184 -87 callgsubr
          -358 -106 -104 callgsubr
        </CharString>
        <CharString name="uni01D8">
          -24 318 771 -91 callgsubr
          -76 -209 -90 callgsubr
          -275 -160 rmoveto
          -78 callsubr
          -33 callsubr
          vhcurveto
          -103 callgsubr
          endchar
        </CharString>
        <CharString name="uni01D9">
          71 388 860 -75 callsubr
          -115 -157 -87 callgsubr
          -358 -106 -104 callgsubr
        </CharString>
        <CharString name="uni01DA">
          -24 209 908 -79 callgsubr
          -26 -349 -90 callgsubr
          -275 -160 rmoveto
          -78 callsubr
          -33 callsubr
          vhcurveto
          -103 callgsubr
          endchar
        </CharString>
        <CharString name="uni01DB">
          71 308 906 -83 callsubr
          -35 -203 -87 callgsubr
          -358 -106 -104 callgsubr
        </CharString>
        <CharString name="uni01DC">
          -24 266 836 -80 callgsubr
          -50 -242 -90 callgsubr
          -275 -160 rmoveto
          -78 callsubr
          -33 callsubr
          vhcurveto
          -103 callgsubr
          endchar
        </CharString>
        <CharString name="uni01EA">
          103 401 14 rmoveto
          140 60 65 162 166 vvcurveto
          163 -82 95 -157 -207 -116 -197 -215 -161 82 -98 149 18 17 1 3 16 vhcurveto
          -39 -28 -25 -38 -41 -27 callsubr
          58 65 37 8 5 vhcurveto
          -266 259 rmoveto
          199 62 137 149 124 45 -64 -153 -207 -54 -145 -158 -130 -38 72 161 vhcurveto
          endchar
        </CharString>
        <CharString name="uni01EB">
          -89 418 344 rmoveto
          107 -41 62 -94 -153 -90 -155 -200 -107 47 -60 91 6 6 0 1 6 vhcurveto
          -39 -28 -24 -37 -41 -27 callsubr
          62 74 38 0 vhcurveto
          93 50 52 126 154 vvcurveto
          -137 -280 rmoveto
          -12 -13 -30 -2 -22 hhcurveto
          -75 -19 29 120 114 41 107 16 15 hvcurveto
          12 13 29 6 22 hhcurveto
          75 18 -34 -115 -114 -39 -111 -16 -15 hvcurveto
          endchar
        </CharString>
        <CharString name="uni01F1">
          578 19 37 rmoveto
          -29 callgsubr
          217 hlineto
          213 148 167 239 154 -94 88 -165 hvcurveto
          -231 -82 callsubr
          536 -7 rmoveto
          17 -44 rlineto
          -76 callgsubr
          rlineto
          -853 -527 rmoveto
          -12 callsubr
          rlineto
          2 7 24 2 29 hhcurveto
          139 60 -68 -156 hvcurveto
          -208 -3 -97 -124 -160 hhcurveto
          -22 -34 3 3 -20 hvcurveto
          endchar
        </CharString>
        <CharString name="uni01F2">
          483 -31 callgsubr
          744 347 -95 callgsubr
          endchar
        </CharString>
        <CharString name="uni01F3">
          349 314 105 -71 callgsubr
          465 293 -95 callgsubr
          -419 4 -56 callgsubr
          endchar
        </CharString>
        <CharString name="uni01F4">
          18 356 681 -93 callsubr
          77 -689 -94 callgsubr
          endchar
        </CharString>
        <CharString name="uni01F5">
          -72 270 559 -91 callgsubr
          -107 -757 -96 callsubr
        </CharString>
        <CharString name="uni0200">
          -37 233 -72 callgsubr
          -381 -692 -107 callgsubr
          endchar
        </CharString>
        <CharString name="uni0201">
          -53 221 -72 callsubr
          -11 -529 -107 callsubr
          endchar
        </CharString>
        <CharString name="uni0202">
          -37 179 -66 callsubr
          -225 -677 -107 callgsubr
          endchar
        </CharString>
        <CharString name="uni0203">
          -53 183 -67 callsubr
          145 -480 -107 callsubr
          endchar
        </CharString>
        <CharString name="uni0204">
          -34 235 -72 callgsubr
          -317 -692 -106 callgsubr
          endchar
        </CharString>
        <CharString name="uni0205">
          -159 190 -72 callsubr
          -100 -644 rmoveto
          -105 callgsubr
          endchar
        </CharString>
        <CharString name="uni0206">
          -34 181 -66 callsubr
          -161 -677 -106 callgsubr
          endchar
        </CharString>
        <CharString name="uni0207">
          -159 152 -67 callsubr
          56 -595 rmoveto
          -105 callgsubr
          endchar
        </CharString>
        <CharString name="uni0208">
          -220 142 -72 callgsubr
          -224 -692 -86 callgsubr
          endchar
        </CharString>
        <CharString name="uni0209">
          -259 118 -72 callsubr
          -79 -201 -84 callsubr
        </CharString>
        <CharString name="uni020A">
          -220 88 -66 callsubr
          -68 -677 -86 callgsubr
          endchar
        </CharString>
        <CharString name="uni020B">
          -259 80 -67 callsubr
          77 -152 -84 callsubr
        </CharString>
        <CharString name="uni020C">
          103 291 -72 callgsubr
          -118 -740 -105 callsubr
          endchar
        </CharString>
        <CharString name="uni020D">
          -89 220 -72 callsubr
          -139 -644 -106 callsubr
          endchar
        </CharString>
        <CharString name="uni020E">
          103 237 -66 callsubr
          38 -725 -105 callsubr
          endchar
        </CharString>
        <CharString name="uni020F">
          -89 182 -67 callsubr
          17 -595 -106 callsubr
          endchar
        </CharString>
        <CharString name="uni0210">
          -16 244 -72 callgsubr
          -330 -729 rmoveto
          -73 callsubr
          32 234 55 -6 14 -91 callsubr
          endchar
        </CharString>
        <CharString name="uni0211">
          -230 133 -72 callsubr
          -94 -201 rmoveto
          -77 -434 rlineto
          -75 callgsubr
          endchar
        </CharString>
        <CharString name="uni0212">
          -16 190 -66 callsubr
          -174 -714 rmoveto
          -73 callsubr
          32 234 55 -6 14 -91 callsubr
          endchar
        </CharString>
        <CharString name="uni0213">
          -230 95 -67 callsubr
          62 -152 rmoveto
          -77 -434 rlineto
          -75 callgsubr
          endchar
        </CharString>
        <CharString name="uni0214">
          71 287 -72 callgsubr
          -263 -132 -104 callgsubr
        </CharString>
        <CharString name="uni0215">
          -24 236 -72 callsubr
          -205 -201 rmoveto
          -78 callsubr
          -33 callsubr
          vhcurveto
          -103 callgsubr
          endchar
        </CharString>
        <CharString name="uni0216">
          71 233 -66 callsubr
          -107 -117 -104 callgsubr
        </CharString>
        <CharString name="uni0217">
          -24 198 -67 callsubr
          -49 -152 rmoveto
          -78 callsubr
          -33 callsubr
          vhcurveto
          -103 callgsubr
          endchar
        </CharString>
        <CharString name="uni021A">
          -75 94 37 rmoveto
          -4 -37 rlineto
          -56 callsubr
          rlineto
          -38 -235 rmoveto
          17 -17 rlineto
          -80 callsubr
        </CharString>
        <CharString name="uni021B">
          -234 135 450 -60 callgsubr
          34 -634 rmoveto
          17 -17 rlineto
          -80 callsubr
        </CharString>
        <CharString name="uni0232">
          -67 172 782 -51 callsubr
          -346 -745 -84 callgsubr
          endchar
        </CharString>
        <CharString name="uni0232.loclGUA">
          94 242 782 -51 callsubr
          -124 -134 -98 callsubr
        </CharString>
        <CharString name="uni0233">
          -137 124 677 -51 callsubr
          -388 -847 -88 callgsubr
          endchar
        </CharString>
        <CharString name="uni0233.loclGUA">
          -59 183 677 -51 callsubr
          -316 -843 -97 callsubr
        </CharString>
        <CharString name="uni0237">
          -275 -13 -91 rmoveto
          -38 callsubr
          -77 callsubr
          endchar
        </CharString>
        <CharString name="uni0259">
          -159 201 503 rmoveto
          -57 -65 -32 -45 -34 hvcurveto
          19 -29 rlineto
          27 32 44 19 30 hhcurveto
          75 22 -30 -109 hvcurveto
          -1 -14 rlineto
          -140 -28 -116 -21 -163 vvcurveto
          -43 31 -54 75 158 74 219 148 120 -46 35 -101 vhcurveto
          61 -255 rmoveto
          -8 -62 -19 -85 -30 -46 rrcurveto
          -9 -6 -23 -5 -28 hhcurveto
          -54 -8 34 24 68 14 44 162 37 hvcurveto
          endchar
        </CharString>
        <CharString name="uni0272">
          0 419 66 rmoveto
          47 277 rlineto
          3 20 6 32 27 vvcurveto
          50 -22 41 -69 -62 -76 -55 -19 -24 vhcurveto
          68 -36 callgsubr
          -69 -430 -8 -53 -23 -25 2 callsubr
          94 64 140 21 hvcurveto
          54 359 -69 callgsubr
          47 46 -54 callsubr
          vlineto
          endchar
        </CharString>
        <CharString name="uni02BC">
          -438 63 576 -42 callgsubr
          endchar
        </CharString>
        <CharString name="uni02C9">
          -195 94 677 -51 callsubr
          endchar
        </CharString>
        <CharString name="uni0302">
          14 562 -100 callgsubr
          endchar
        </CharString>
        <CharString name="uni0302.case">
          -205 728 -99 callgsubr
          endchar
        </CharString>
        <CharString name="uni03020300">
          -70 747 -80 callgsubr
          47 -185 -100 callgsubr
          endchar
        </CharString>
        <CharString name="uni03020300.case">
          -44 863 -83 callsubr
          -161 -135 -99 callgsubr
          endchar
        </CharString>
        <CharString name="uni03020301">
          -86 682 -91 callgsubr
          21 -152 -100 callgsubr
          endchar
        </CharString>
        <CharString name="uni03020301.case">
          -1 809 -93 callsubr
          -182 -116 -99 callgsubr
          endchar
        </CharString>
        <CharString name="uni03020303">
          -13 772 -98 callgsubr
          5 -210 -100 callgsubr
          endchar
        </CharString>
        <CharString name="uni03020303.case">
          -220 892 -97 callgsubr
          -22 -212 -99 callgsubr
          endchar
        </CharString>
        <CharString name="uni03020309">
          -84 659 -99 callsubr
          -10 -97 -100 callgsubr
          endchar
        </CharString>
        <CharString name="uni03020309.case">
          29 794 -100 callsubr
          -234 -66 -99 callgsubr
          endchar
        </CharString>
        <CharString name="uni0304">
          -238 677 -51 callsubr
          endchar
        </CharString>
        <CharString name="uni0304.case">
          -208 782 -51 callsubr
          endchar
        </CharString>
        <CharString name="uni0306">
          -104 568 -51 callgsubr
        </CharString>
        <CharString name="uni0306.case">
          79 810 -6 callsubr
        </CharString>
        <CharString name="uni03060300">
          -139 775 -80 callgsubr
          33 -207 -51 callgsubr
        </CharString>
        <CharString name="uni03060300.case">
          -142 876 -83 callsubr
          221 -66 -6 callsubr
        </CharString>
        <CharString name="uni03060301">
          -87 710 -91 callgsubr
          7 -174 -51 callgsubr
        </CharString>
        <CharString name="uni03060301.case">
          -90 822 -93 callsubr
          191 -47 -6 callsubr
        </CharString>
        <CharString name="uni03060303">
          -15 756 -98 callgsubr
          -109 -188 -51 callgsubr
        </CharString>
        <CharString name="uni03060303.case">
          -220 887 -97 callgsubr
          262 -125 -6 callsubr
        </CharString>
        <CharString name="uni03060309">
          -104 687 -99 callsubr
          -2 -119 -51 callgsubr
        </CharString>
        <CharString name="uni03060309.case">
          -87 808 -100 callsubr
          166 2 -6 callsubr
        </CharString>
        <CharString name="uni0307">
          -10 -63 callgsubr
          endchar
        </CharString>
        <CharString name="uni0307.case">
          10 -44 callsubr
          endchar
        </CharString>
        <CharString name="uni0308">
          -199 594 -90 callgsubr
          endchar
        </CharString>
        <CharString name="uni0308.case">
          -195 703 -87 callgsubr
          endchar
        </CharString>
        <CharString name="uni030A">
          -40 564 -60 callsubr
          endchar
        </CharString>
        <CharString name="uni030A.case">
          -26 662 -49 callsubr
          endchar
        </CharString>
        <CharString name="uni030B">
          -216 -57 callsubr
          endchar
        </CharString>
        <CharString name="uni030B.case">
          -191 -41 callgsubr
          endchar
        </CharString>
        <CharString name="uni030C">
          -210 696 -79 callgsubr
          endchar
        </CharString>
        <CharString name="uni030C.case">
          -62 689 -75 callsubr
          endchar
        </CharString>
        <CharString name="uni030F">
          -149 -72 callsubr
          endchar
        </CharString>
        <CharString name="uni030F.case">
          -124 -72 callgsubr
          endchar
        </CharString>
        <CharString name="uni0311">
          -204 -67 callsubr
          endchar
        </CharString>
        <CharString name="uni0311.case">
          -218 -66 callsubr
          endchar
        </CharString>
        <CharString name="uni031B">
          -172 307 rmoveto
          144 78 44 70 45 vvcurveto
          41 -19 11 -13 10 vhcurveto
          -55 -39 rlineto
          -15 vlineto
          13 -9 8 -8 -17 vvcurveto
          -55 -74 -52 -50 -30 vhcurveto
          endchar
        </CharString>
        <CharString name="uni0326">
          -156 -184 rmoveto
          17 -17 rlineto
          -80 callsubr
        </CharString>
        <CharString name="uni0327">
          -229 -52 callgsubr
          29 -41 vlineto
          -36 -49 -55 callsubr
          endchar
        </CharString>
        <CharString name="uni0328">
          -54 -11 callsubr
        </CharString>
        <CharString name="uni0335">
          -328 311 rmoveto
          310 hlineto
          8 52 rlineto
          -310 hlineto
          endchar
        </CharString>
        <CharString name="uni0336">
          -31 484 rmoveto
          -550 hlineto
          -8 -52 rlineto
          550 hlineto
          endchar
        </CharString>
        <CharString name="uni0394">
          -11 callgsubr
        </CharString>
        <CharString name="uni03A9">
          -46 callgsubr
        </CharString>
        <CharString name="uni03BC">
          -48 callsubr
        </CharString>
        <CharString name="uni1E0C">
          -32 callgsubr
          94 -217 -102 callgsubr
          endchar
        </CharString>
        <CharString name="uni1E0D">
          -46 314 105 -71 callgsubr
          46 306 -56 callgsubr
          -164 -577 -102 callgsubr
          endchar
        </CharString>
        <CharString name="uni1E24">
          -36 callsubr
          185 -217 -102 callgsubr
          endchar
        </CharString>
        <CharString name="uni1E25">
          -25 158 627 -62 callgsubr
          127 -809 -102 callgsubr
          endchar
        </CharString>
        <CharString name="uni1E44">
          107 393 -44 callsubr
          -374 -662 -95 callsubr
          endchar
        </CharString>
        <CharString name="uni1E45">
          -14 319 -63 callgsubr
          -183 -157 -90 callsubr
          endchar
        </CharString>
        <CharString name="uni1E5A">
          -16 16 hmoveto
          -73 callsubr
          32 234 55 -6 14 -91 callsubr
          43 -494 -102 callgsubr
          endchar
        </CharString>
        <CharString name="uni1E5B">
          -25 callgsubr
          23 -617 -102 callgsubr
          endchar
        </CharString>
        <CharString name="uni1E62">
          -97 165 -11 -73 callgsubr
          5 -155 -102 callgsubr
          endchar
        </CharString>
        <CharString name="uni1E63">
          -147 159 -9 -81 callsubr
          -14 -157 -102 callgsubr
          endchar
        </CharString>
        <CharString name="uni1E6C">
          -75 94 37 rmoveto
          -4 -37 rlineto
          -56 callsubr
          rlineto
          16 -217 -102 callgsubr
          endchar
        </CharString>
        <CharString name="uni1E6D">
          -234 135 450 -60 callgsubr
          70 -616 -102 callgsubr
          endchar
        </CharString>
        <CharString name="uni1E92">
          -57 -9 44 rmoveto
          17 -44 rlineto
          -76 callgsubr
          rlineto
          -197 -744 -102 callgsubr
          endchar
        </CharString>
        <CharString name="uni1E93">
          -152 278 398 -95 callgsubr
          -135 -573 -102 callgsubr
          endchar
        </CharString>
        <CharString name="uni1E9E">
          130 403 -11 rmoveto
          135 78 70 113 102 -79 47 -98 15 hvcurveto
          -3 7 188 255 -26 44 rlineto
          9 -46 -86 9 -54 hhcurveto
          -192 -107 -132 -186 -25 hvcurveto
          -40 -291 -4 callgsubr
          44 319 rlineto
          140 19 45 91 157 hhcurveto
          38 40 -5 -7 34 hvcurveto
          9 -17 -181 -242 17 -44 rlineto
          106 -9 85 -44 -90 vvcurveto
          -62 -35 -41 -96 -40 -33 13 14 -13 -47 callgsubr
          endchar
        </CharString>
        <CharString name="uni1EA0">
          -37 -46 37 -107 callgsubr
          -80 -660 -102 callgsubr
          endchar
        </CharString>
        <CharString name="uni1EA1">
          -53 307 106 -107 callsubr
          -161 -576 -102 callgsubr
          endchar
        </CharString>
        <CharString name="uni1EA2">
          -37 291 677 -100 callsubr
          -337 -640 -107 callgsubr
          endchar
        </CharString>
        <CharString name="uni1EA3">
          -53 262 536 -99 callsubr
          45 -430 -107 callsubr
          endchar
        </CharString>
        <CharString name="uni1EA4">
          -37 390 809 -93 callsubr
          -182 -116 -99 callgsubr
          -303 -744 -107 callgsubr
          endchar
        </CharString>
        <CharString name="uni1EA5">
          -53 371 682 -91 callgsubr
          21 -152 -100 callgsubr
          40 -535 -107 callsubr
          endchar
        </CharString>
        <CharString name="uni1EA6">
          -37 341 863 -83 callsubr
          -161 -135 -99 callgsubr
          -297 -744 -107 callgsubr
          endchar
        </CharString>
        <CharString name="uni1EA7">
          -53 345 747 -80 callgsubr
          47 -185 -100 callgsubr
          14 -535 -107 callsubr
          endchar
        </CharString>
        <CharString name="uni1EA8">
          -37 398 794 -100 callsubr
          -234 -66 -99 callgsubr
          -281 -744 -107 callgsubr
          endchar
        </CharString>
        <CharString name="uni1EA9">
          -53 382 659 -99 callsubr
          -10 -97 -100 callgsubr
          34 -535 -107 callsubr
          endchar
        </CharString>
        <CharString name="uni1EAA">
          -37 168 892 -97 callgsubr
          -22 -212 -99 callgsubr
          -300 -744 -107 callgsubr
          endchar
        </CharString>
        <CharString name="uni1EAB">
          -53 386 772 -98 callgsubr
          5 -210 -100 callgsubr
          15 -535 -107 callsubr
          endchar
        </CharString>
        <CharString name="uni1EAC">
          -37 191 728 -99 callgsubr
          -308 -744 -107 callgsubr
          -80 -660 -102 callgsubr
          endchar
        </CharString>
        <CharString name="uni1EAD">
          -53 398 562 -100 callgsubr
          8 -535 -107 callsubr
          -161 -576 -102 callgsubr
          endchar
        </CharString>
        <CharString name="uni1EAE">
          -37 311 822 -93 callsubr
          191 -47 -88 callsubr
          -526 -773 -107 callgsubr
          endchar
        </CharString>
        <CharString name="uni1EAF">
          -53 307 710 -91 callgsubr
          7 -174 -93 callgsubr
          19 -462 -107 callsubr
          endchar
        </CharString>
        <CharString name="uni1EB0">
          -37 265 876 -83 callsubr
          221 -66 -88 callsubr
          -532 -773 -107 callgsubr
          endchar
        </CharString>
        <CharString name="uni1EB1">
          -53 262 775 -80 callgsubr
          33 -207 -93 callgsubr
          12 -462 -107 callsubr
          endchar
        </CharString>
        <CharString name="uni1EB2">
          -37 319 808 -100 callsubr
          166 2 -88 callsubr
          -531 -773 -107 callgsubr
          endchar
        </CharString>
        <CharString name="uni1EB3">
          -53 296 687 -99 callsubr
          -2 -119 -93 callgsubr
          13 -462 -107 callsubr
          endchar
        </CharString>
        <CharString name="uni1EB4">
          -37 168 887 -97 callgsubr
          262 -125 -88 callsubr
          -513 -773 -107 callgsubr
          endchar
        </CharString>
        <CharString name="uni1EB5">
          -53 383 756 -98 callgsubr
          -109 -188 -93 callgsubr
          33 -462 -107 callsubr
          endchar
        </CharString>
        <CharString name="uni1EB6">
          -37 476 810 -88 callsubr
          -522 -773 -107 callgsubr
          -80 -660 -102 callgsubr
          endchar
        </CharString>
        <CharString name="uni1EB7">
          -53 283 568 -93 callgsubr
          24 -462 -107 callsubr
          -161 -576 -102 callgsubr
          endchar
        </CharString>
        <CharString name="uni1EB8">
          -34 20 37 -106 callgsubr
          111 -217 -102 callgsubr
          endchar
        </CharString>
        <CharString name="uni1EB9">
          -159 187 -9 rmoveto
          -105 callgsubr
          35 -412 -102 callgsubr
          endchar
        </CharString>
        <CharString name="uni1EBA">
          -34 293 677 -100 callsubr
          -273 -640 -106 callgsubr
          endchar
        </CharString>
        <CharString name="uni1EBB">
          -159 231 536 -99 callsubr
          -44 -545 rmoveto
          -105 callgsubr
          endchar
        </CharString>
        <CharString name="uni1EBC">
          -34 160 736 -97 callgsubr
          -177 -747 -106 callgsubr
          endchar
        </CharString>
        <CharString name="uni1EBD">
          -159 338 595 -98 callgsubr
          -151 -604 rmoveto
          -105 callgsubr
          endchar
        </CharString>
        <CharString name="uni1EBE">
          -34 392 809 -93 callsubr
          -182 -116 -99 callgsubr
          -239 -744 -106 callgsubr
          endchar
        </CharString>
        <CharString name="uni1EBF">
          -159 340 682 -91 callgsubr
          21 -152 -100 callgsubr
          -49 -650 rmoveto
          -105 callgsubr
          endchar
        </CharString>
        <CharString name="uni1EC0">
          -34 343 863 -83 callsubr
          -161 -135 -99 callgsubr
          -233 -744 -106 callgsubr
          endchar
        </CharString>
        <CharString name="uni1EC1">
          -159 314 747 -80 callgsubr
          47 -185 -100 callgsubr
          -75 -650 rmoveto
          -105 callgsubr
          endchar
        </CharString>
        <CharString name="uni1EC2">
          -34 400 794 -100 callsubr
          -234 -66 -99 callgsubr
          -217 -744 -106 callgsubr
          endchar
        </CharString>
        <CharString name="uni1EC3">
          -159 351 659 -99 callsubr
          -10 -97 -100 callgsubr
          -55 -650 rmoveto
          -105 callgsubr
          endchar
        </CharString>
        <CharString name="uni1EC4">
          -34 170 892 -97 callgsubr
          -22 -212 -99 callgsubr
          -236 -744 -106 callgsubr
          endchar
        </CharString>
        <CharString name="uni1EC5">
          -159 355 772 -98 callgsubr
          5 -210 -100 callgsubr
          -74 -650 rmoveto
          -105 callgsubr
          endchar
        </CharString>
        <CharString name="uni1EC6">
          -34 193 728 -99 callgsubr
          -244 -744 -106 callgsubr
          111 -217 -102 callgsubr
          endchar
        </CharString>
        <CharString name="uni1EC7">
          -159 367 562 -100 callgsubr
          -81 -650 rmoveto
          -105 callgsubr
          35 -412 -102 callgsubr
          endchar
        </CharString>
        <CharString name="uni1EC8">
          -220 200 677 -100 callsubr
          -180 -640 -86 callgsubr
          endchar
        </CharString>
        <CharString name="uni1EC9">
          -259 159 536 -99 callsubr
          -23 -102 -84 callsubr
        </CharString>
        <CharString name="uni1ECA">
          -220 20 37 -86 callgsubr
          18 -217 -102 callgsubr
          endchar
        </CharString>
        <CharString name="uni1ECB">
          -29 callsubr
          38 -617 -102 callgsubr
          endchar
        </CharString>
        <CharString name="uni1ECC">
          103 275 -11 -105 callsubr
          -33 -206 -102 callgsubr
          endchar
        </CharString>
        <CharString name="uni1ECD">
          -89 178 -9 -106 callsubr
          -42 -216 -102 callgsubr
          endchar
        </CharString>
        <CharString name="uni1ECE">
          103 349 677 -100 callsubr
          -74 -688 -105 callsubr
          endchar
        </CharString>
        <CharString name="uni1ECF">
          -89 261 536 -99 callsubr
          -83 -545 -106 callsubr
          endchar
        </CharString>
        <CharString name="uni1ED0">
          103 448 809 -93 callsubr
          -182 -116 -99 callgsubr
          -40 -792 -105 callsubr
          endchar
        </CharString>
        <CharString name="uni1ED1">
          -89 370 682 -91 callgsubr
          21 -152 -100 callgsubr
          -88 -650 -106 callsubr
          endchar
        </CharString>
        <CharString name="uni1ED2">
          103 399 863 -83 callsubr
          -161 -135 -99 callgsubr
          -34 -792 -105 callsubr
          endchar
        </CharString>
        <CharString name="uni1ED3">
          -89 344 747 -80 callgsubr
          47 -185 -100 callgsubr
          -114 -650 -106 callsubr
          endchar
        </CharString>
        <CharString name="uni1ED4">
          103 456 794 -100 callsubr
          -234 -66 -99 callgsubr
          -18 -792 -105 callsubr
          endchar
        </CharString>
        <CharString name="uni1ED5">
          -89 381 659 -99 callsubr
          -10 -97 -100 callgsubr
          -94 -650 -106 callsubr
          endchar
        </CharString>
        <CharString name="uni1ED6">
          103 226 892 -97 callgsubr
          -22 -212 -99 callgsubr
          -37 -792 -105 callsubr
          endchar
        </CharString>
        <CharString name="uni1ED7">
          -89 385 772 -98 callgsubr
          5 -210 -100 callgsubr
          -113 -650 -106 callsubr
          endchar
        </CharString>
        <CharString name="uni1ED8">
          103 249 728 -99 callgsubr
          -45 -792 -105 callsubr
          -33 -206 -102 callgsubr
          endchar
        </CharString>
        <CharString name="uni1ED9">
          -89 397 562 -100 callgsubr
          -120 -650 -106 callsubr
          -42 -216 -102 callgsubr
          endchar
        </CharString>
        <CharString name="uni1EDA">
          103 476 735 rmoveto
          32 13 18 13 25 vvcurveto
          19 -13 21 -21 10 vhcurveto
          -168 -120 22 -35 rlineto
          404 -27 -85 callsubr
        </CharString>
        <CharString name="uni1EDB">
          -89 379 -15 callsubr
          259 -59 -92 callsubr
          endchar
        </CharString>
        <CharString name="uni1EDC">
          103 294 735 -83 callsubr
          456 -81 -85 callsubr
        </CharString>
        <CharString name="uni1EDD">
          -89 226 624 -80 callgsubr
          311 -124 -92 callsubr
          endchar
        </CharString>
        <CharString name="uni1EDE">
          103 383 785 rmoveto
          33 13 -8 -10 -12 -10 -13 -30 -11 hvcurveto
          -31 -11 -12 -12 -16 vvcurveto
          -5 1 -5 2 -5 vhcurveto
          51 hlineto
          1 10 3 8 26 8 rrcurveto
          43 13 26 26 35 vvcurveto
          41 -47 21 -74 -53 -12 -19 -15 -6 1 -11 5 -11 vhcurveto
          5 21 24 3 19 hhcurveto
          367 -131 -85 callsubr
        </CharString>
        <CharString name="uni1EDF">
          -89 295 670 rmoveto
          33 12 -8 -15 -17 -11 -8 -29 -14 hvcurveto
          -32 -13 -12 -12 -20 vvcurveto
          -8 2 -8 3 -11 vhcurveto
          48 5 rlineto
          18 2 7 30 12 vhcurveto
          43 18 25 20 36 vvcurveto
          48 -45 24 -74 -50 -15 -10 -29 -7 1 -7 4 -9 vhcurveto
          5 22 24 3 19 hhcurveto
          242 -170 -92 callsubr
          endchar
        </CharString>
        <CharString name="uni1EE0">
          103 319 747 rmoveto
          66 -23 rlineto
          -9 24 32 -11 20 hhcurveto
          22 17 14 20 16 hvcurveto
          37 48 -23 26 -80 -37 -66 23 rlineto
          9 -25 -32 11 -19 hhcurveto
          -22 -17 -14 -20 -16 hvcurveto
          -37 -48 23 -26 rlineto
          511 -56 -85 callsubr
        </CharString>
        <CharString name="uni1EE1">
          -89 238 -18 callsubr
          370 -99 -92 callsubr
          endchar
        </CharString>
        <CharString name="uni1EE2">
          103 750 654 -71 callsubr
          95 -30 -76 54 -118 hhcurveto
          -207 -116 -197 -215 -161 82 -98 149 228 103 203 210 29 -3 26 -5 25 hvcurveto
          116 69 36 62 41 vvcurveto
          -447 -614 rmoveto
          -130 -38 72 161 199 62 137 149 124 45 -64 -153 -207 -54 -145 -158 hvcurveto
          -24 -88 -9 callgsubr
        </CharString>
        <CharString name="uni1EE3">
          -89 537 500 -92 callsubr
          -98 -112 -9 callgsubr
        </CharString>
        <CharString name="uni1EE4">
          71 126 597 -104 callsubr
          195 -777 -102 callgsubr
          endchar
        </CharString>
        <CharString name="uni1EE5">
          -24 128 434 rmoveto
          -78 callsubr
          -33 callsubr
          vhcurveto
          -103 callgsubr
          158 -617 -102 callgsubr
          endchar
        </CharString>
        <CharString name="uni1EE6">
          71 345 677 -100 callsubr
          -219 -80 -104 callgsubr
        </CharString>
        <CharString name="uni1EE7">
          -24 277 536 -99 callsubr
          -149 -102 rmoveto
          -78 callsubr
          -33 callsubr
          vhcurveto
          -103 callgsubr
          endchar
        </CharString>
        <CharString name="uni1EE8">
          71 342 681 -93 callsubr
          384 -2 -94 callsubr
          endchar
        </CharString>
        <CharString name="uni1EE9">
          -24 395 -15 callsubr
          308 -59 -96 callgsubr
          endchar
        </CharString>
        <CharString name="uni1EEA">
          71 290 735 -83 callsubr
          414 -21 -94 callsubr
          endchar
        </CharString>
        <CharString name="uni1EEB">
          -24 242 624 -80 callgsubr
          360 -124 -96 callgsubr
          endchar
        </CharString>
        <CharString name="uni1EEC">
          71 345 677 -100 callsubr
          359 37 -94 callsubr
          endchar
        </CharString>
        <CharString name="uni1EED">
          -24 311 670 rmoveto
          33 12 -8 -15 -17 -11 -8 -29 -14 hvcurveto
          -32 -13 -12 -12 -20 vvcurveto
          -8 2 -8 3 -11 vhcurveto
          48 5 rlineto
          18 2 7 30 12 vhcurveto
          43 18 25 20 36 vvcurveto
          48 -45 24 -74 -50 -15 -10 -29 -7 1 -7 4 -9 vhcurveto
          5 22 24 3 19 hhcurveto
          291 -170 -96 callgsubr
          endchar
        </CharString>
        <CharString name="uni1EEE">
          71 212 736 -97 callgsubr
          455 -70 -94 callsubr
          endchar
        </CharString>
        <CharString name="uni1EEF">
          -24 254 -18 callsubr
          419 -99 -96 callgsubr
          endchar
        </CharString>
        <CharString name="uni1EF0">
          71 704 714 -94 callsubr
          -450 -880 -102 callgsubr
          endchar
        </CharString>
        <CharString name="uni1EF1">
          -24 602 500 -96 callgsubr
          -386 -548 -9 callgsubr
        </CharString>
        <CharString name="uni1EF4">
          -67 108 37 -84 callgsubr
          12 -217 -102 callgsubr
          endchar
        </CharString>
        <CharString name="uni1EF5">
          -137 18 -170 -88 callgsubr
          226 4 -102 callgsubr
          endchar
        </CharString>
        <CharString name="uni1EF6">
          -67 275 677 -100 callsubr
          -167 -640 -84 callgsubr
          endchar
        </CharString>
        <CharString name="uni1EF7">
          -137 220 536 -99 callsubr
          -202 -706 -88 callgsubr
          endchar
        </CharString>
        <CharString name="uni1EF8">
          -67 142 736 -97 callgsubr
          -71 -747 -84 callgsubr
          endchar
        </CharString>
        <CharString name="uni1EF8.loclGUA">
          94 212 736 -97 callgsubr
          151 -136 -98 callsubr
        </CharString>
        <CharString name="uni1EF9">
          -137 327 595 -98 callgsubr
          -309 -765 -88 callgsubr
          endchar
        </CharString>
        <CharString name="uni1EF9.loclGUA">
          -59 386 595 -98 callgsubr
          -237 -761 -97 callsubr
        </CharString>
        <CharString name="uni20B2">
          18 348 599 rmoveto
          70 45 -28 0 hvcurveto
          6 -90 rlineto
          42 hlineto
          19 147 rlineto
          0 -55 16 -70 5 vhcurveto
          12 118 -47 8 -32 -126 rlineto
          -187 -18 -103 -191 -199 vvcurveto
          -135 56 -81 102 -21 vhcurveto
          -13 -116 47 -8 30 119 78 2 37 24 18 12 rlinecurve
          8 hlineto
          22 -27 rlineto
          33 hlineto
          43 321 2 callgsubr
          -43 106 -18 -27 -188 rlineto
          -16 -31 -34 -16 -55 hhcurveto
          -93 -54 56 156 242 98 95 112 hvcurveto
          endchar
        </CharString>
        <CharString name="uni20B2.osf">
          18 332 480 rmoveto
          35 45 -9 -19 33 hvcurveto
          6 -90 rlineto
          42 hlineto
          19 147 -40 11 -47 7 -39 3 rlinecurve
          11 109 -47 8 -30 -119 rlineto
          -173 -21 -99 -129 -182 vvcurveto
          -120 65 -71 91 -14 vhcurveto
          -11 -103 47 -8 27 109 68 4 33 23 17 11 rlinecurve
          8 hlineto
          22 -27 rlineto
          33 hlineto
          43 272 2 callgsubr
          -43 106 -18 -27 -139 rlineto
          -16 -29 -32 -16 -52 hhcurveto
          -88 -48 46 134 183 90 77 104 hvcurveto
          endchar
        </CharString>
        <CharString name="uni2113">
          -145 179 -12 rmoveto
          91 74 68 -1 hhcurveto
          -11 31 rlineto
          -1 -1 -59 -34 -45 hhcurveto
          -42 -18 5 49 12 1 16 3 20 hvcurveto
          7 56 rlineto
          81 56 141 115 122 vvcurveto
          62 -35 39 -55 -135 -47 -131 -172 -21 vhcurveto
          -10 -83 -29 -22 -28 -23 -29 -22 rlinecurve
          21 -36 57 38 rlineto
          -5 -37 -2 -21 -19 vvcurveto
          -62 29 -26 68 vhcurveto
          7 288 rmoveto
          12 92 rlineto
          139 18 24 59 45 hhcurveto
          29 17 -25 -40 -69 -58 -87 -87 -69 hvcurveto
          endchar
        </CharString>
        <CharString name="uni2126">
          -46 callgsubr
        </CharString>
        <CharString name="uni2206">
          -11 callgsubr
        </CharString>
        <CharString name="uni2215">
          3 callgsubr
        </CharString>
        <CharString name="uni2219">
          -356 87 195 -59 callgsubr
          endchar
        </CharString>
        <CharString name="uniA78B">
          -422 75 646 -4 callsubr
        </CharString>
        <CharString name="uniA78C">
          -422 83 705 -4 callsubr
        </CharString>
        <CharString name="uogonek">
          -24 467 -106 rmoveto
          -12 -17 -24 -8 -16 hhcurveto
          -26 -15 14 26 54 46 30 53 29 hvcurveto
          39 -75 vlineto
          77 447 1 callgsubr
          -50 -52 -55 -32 -33 hhcurveto
          -27 -12 13 31 15 0 0 5 35 hvcurveto
          44 282 rlineto
          69 -36 callgsubr
          -51 -285 rlineto
          -5 -26 -2 -18 -28 vvcurveto
          -57 24 -26 52 61 76 44 67 53 vhcurveto
          3 -2 rlineto
          -17 -23 -7 -17 -17 vvcurveto
          -36 15 -13 42 -1 vhcurveto
          -44 -29 -25 -39 -42 vvcurveto
          -42 25 -21 50 35 44 19 28 26 vhcurveto
          endchar
        </CharString>
        <CharString name="uring">
          -24 311 564 -60 callsubr
          -174 -614 rmoveto
          -33 callsubr
          hvcurveto
          -103 callgsubr
          79 -17 -51 -285 rlineto
          -4 -19 -3 -17 -36 vvcurveto
          -64 31 -19 45 vhcurveto
          endchar
        </CharString>
        <CharString name="utilde">
          -24 384 595 -98 callgsubr
          -256 -161 rmoveto
          -78 callsubr
          -33 callsubr
          vhcurveto
          -103 callgsubr
          endchar
        </CharString>
        <CharString name="v">
          -146 97 -6 rmoveto
          75 6 rlineto
          127 145 122 225 89 vvcurveto
          32 -55 24 -74 vhcurveto
          -19 -36 69 -47 -24 -120 -53 -113 -91 -129 rlinecurve
          -6 66 hlineto
          -21 369 -152 -14 rlineto
          -37 vlineto
          75 -19 27 -330 rlineto
          endchar
        </CharString>
        <CharString name="w">
          88 94 -7 -87 callsubr
        </CharString>
        <CharString name="wacute">
          88 350 559 -91 callgsubr
          -230 -598 -87 callsubr
        </CharString>
        <CharString name="wcircumflex">
          88 469 562 -100 callgsubr
          -276 -648 -87 callsubr
        </CharString>
        <CharString name="wdieresis">
          88 272 594 -90 callgsubr
          -365 -601 -87 callsubr
        </CharString>
        <CharString name="wgrave">
          88 298 624 -80 callgsubr
          -204 -631 -87 callsubr
        </CharString>
        <CharString name="x">
          -172 5 66 rmoveto
          -45 hlineto
          0 -12 -12 -20 vvcurveto
          -24 14 -18 28 31 33 11 55 34 vhcurveto
          85 139 44 -143 rlineto
          -46 14 18 -12 42 hhcurveto
          47 45 31 0 hvcurveto
          39 -91 vlineto
          -64 203 85 128 rlineto
          34 23 13 8 30 hhcurveto
          38 hlineto
          0 12 17 20 vvcurveto
          24 -13 13 -28 -44 -31 -26 -44 -27 vhcurveto
          -75 -122 -54 192 -139 -17 rlineto
          -37 vlineto
          79 -17 59 -191 -95 -141 rlineto
          -37 -25 -6 -7 -25 hhcurveto
          endchar
        </CharString>
        <CharString name="y">
          -137 18 -170 -88 callgsubr
          endchar
        </CharString>
        <CharString name="y.loclGUA">
          -59 149 -166 -97 callsubr
        </CharString>
        <CharString name="yacute">
          -131 226 559 -91 callgsubr
          -172 -761 -34 callgsubr
        </CharString>
        <CharString name="yacute.loclGUA">
          -59 296 559 -91 callgsubr
          -121 -757 -97 callsubr
        </CharString>
        <CharString name="ycircumflex">
          -137 356 562 -100 callgsubr
          -239 -811 -88 callgsubr
          endchar
        </CharString>
        <CharString name="ycircumflex.loclGUA">
          -59 415 562 -100 callgsubr
          -167 -807 -97 callsubr
        </CharString>
        <CharString name="ydieresis">
          -131 165 594 -90 callgsubr
          -324 -764 -34 callgsubr
        </CharString>
        <CharString name="ydieresis.loclGUA">
          -59 218 594 -90 callgsubr
          -256 -760 -97 callsubr
        </CharString>
        <CharString name="yen">
          3 530 611 rmoveto
          -65 callsubr
          -143 -286 rlineto
          -11 hlineto
          -97 -26 callsubr
          -213 0 callsubr
          -12 73 -206 rlineto
          -107 hlineto
          -6 -52 rlineto
          131 hlineto
          23 -64 rlineto
          -163 hlineto
          -6 -53 rlineto
          181 hlineto
          -24 -173 -73 -14 -3 -9 callsubr
          24 173 rlineto
          184 hlineto
          6 53 rlineto
          -165 hlineto
          35 65 rlineto
          139 hlineto
          6 51 rlineto
          -118 hlineto
          109 203 rlineto
          endchar
        </CharString>
        <CharString name="yen.osf">
          3 106 hmoveto
          251 hlineto
          5 44 -80 15 9 75 rlineto
          179 hlineto
          6 53 rlineto
          -179 hlineto
          2 12 38 53 rlineto
          148 hlineto
          6 51 rlineto
          -117 hlineto
          115 159 62 16 5 41 rlineto
          -181 hlineto
          -5 -41 47 -16 -2 -18 -137 -197 rlineto
          -9 hlineto
          -73 197 2 18 47 16 5 41 rlineto
          -211 hlineto
          -5 -41 61 -18 66 -157 rlineto
          -113 hlineto
          -6 -52 rlineto
          141 hlineto
          27 -64 rlineto
          -177 hlineto
          -6 -53 rlineto
          177 hlineto
          -9 -75 -84 -15 rlineto
          endchar
        </CharString>
        <CharString name="ygrave">
          -137 185 624 -80 callgsubr
          -167 -794 -88 callgsubr
          endchar
        </CharString>
        <CharString name="ygrave.loclGUA">
          -59 244 624 -80 callgsubr
          -95 -790 -97 callsubr
        </CharString>
        <CharString name="z">
          -152 278 398 -95 callgsubr
          endchar
        </CharString>
        <CharString name="zacute">
          -135 210 559 -91 callgsubr
          102 -600 rmoveto
          44 40 18 51 47 -22 30 0 hvcurveto
          -33 hlineto
          -27 -95 -163 48 rlineto
          11 vlineto
          299 390 -26 20 -56 -40 -106 25 rlineto
          10 -41 -31 7 -34 hhcurveto
          -44 -35 -18 -51 -47 22 -30 0 hvcurveto
          33 hlineto
          27 95 151 -55 rlineto
          -9 vlineto
          -296 -380 28 -25 50 35 118 -22 rlineto
          -8 41 27 -7 34 hhcurveto
          endchar
        </CharString>
        <CharString name="zacute.loclPLK">
          -152 249 -38 callgsubr
          62 -176 -95 callgsubr
          endchar
        </CharString>
        <CharString name="zcaron">
          -135 127 696 -79 callgsubr
          124 -333 -95 callgsubr
          endchar
        </CharString>
        <CharString name="zdotaccent">
          -135 251 -63 callgsubr
          33 -193 -95 callgsubr
          endchar
        </CharString>
        <CharString name="zero">
          -25 -10 50 569 52 hstem
          28 88 288 88 vstem
          206 -10 rmoveto
          253 33 342 113 138 -58 78 -119 -240 -47 -302 -150 -138 58 -81 120 hvcurveto
          13 50 rmoveto
          -83 -20 57 105 36 3 41 6 48 hvcurveto
          185 25 31 97 118 hhcurveto
          87 18 -53 -108 -34 -3 -41 -6 -46 hvcurveto
          -185 -24 -31 -102 -121 hhcurveto
          endchar
        </CharString>
        <CharString name="zero.osf">
          14 246 -9 rmoveto
          167 114 137 192 117 -64 91 -142 -173 -111 -156 -170 -132 58 -79 151 hvcurveto
          7 63 rmoveto
          -82 -47 41 112 173 62 85 125 90 39 -53 -87 -195 -62 -76 -125 hvcurveto
          endchar
        </CharString>
      <CharString index="0">
        rmoveto
        -5 -37 rlineto
        187 hlineto
        4 37 -68 15 rlineto
        17 vlineto
        53 117 -22 callgsubr
        20 -111 rlineto
        -23 vlineto
        -70 -15 -3 -37 -22 callgsubr
        3 37 -58 12 -113 604 rlineto
        -42 hlineto
        -275 -601 rlineto
        316 191 rmoveto
        -174 hlineto
        111 248 12 27 1 3 5 -27 rlineto
        return
      </CharString>
      <CharString index="1">
        rmoveto
        3 callsubr
        -36 -38 2 4 -18 hvcurveto
        37 263 rlineto
        132 hlineto
        5 -59 rlineto
        36 hlineto
        21 162 rlineto
        -36 hlineto
        -21 -59 rlineto
        -131 hlineto
        34 239 11 callsubr
        -394 -82 callsubr
        return
      </CharString>
      <CharString index="2">
        57 65 32 45 34 -10 callgsubr
        -27 -32 -44 -19 -30 hhcurveto
        -75 -22 30 109 hvcurveto
        1 14 rlineto
        140 28 116 21 163 vvcurveto
        43 -31 54 -75 -158 -74 -219 -148 -120 46 -35 101 vhcurveto
        -61 255 rmoveto
        8 62 19 85 30 46 rrcurveto
        9 6 23 5 28 hhcurveto
        54 8 -34 -24 -68 -14 -44 -162 -37 hvcurveto
        return
      </CharString>
      <CharString index="3">
        -104 callsubr
        endchar
      </CharString>
      <CharString index="4">
        -2 callgsubr
        -357 rlineto
        -25 -26 -64 -57 -50 hhcurveto
        -30 -9 16 28 24 3 12 2 14 hvcurveto
        44 282 -45 callsubr
        return
      </CharString>
      <CharString index="5">
        rmoveto
        41 20 33 31 33 -22 21 -30 -41 -19 -35 -31 -29 -30 callsubr
        hvcurveto
        return
      </CharString>
      <CharString index="6">
        -76 callsubr
        46 304 rmoveto
        -26 callgsubr
        -49 -10 44 77 107 30 106 41 57 hvcurveto
        7 5 9 5 19 hhcurveto
        48 44 -20 -23 34 hvcurveto
        return
      </CharString>
      <CharString index="7">
        rmoveto
        30 35 -80 101 rlineto
        19 -17 -9 14 -10 hhcurveto
        -11 -24 -27 -14 -15 hvcurveto
        -103 -97 29 -28 111 76 rlineto
        return
      </CharString>
      <CharString index="8">
        rmoveto
        25 -33 108 61 106 -67 33 41 -60 55 -11 9 -44 39 -10 1 rlinecurve
        -9 -11 -11 -42 -56 hvcurveto
        return
      </CharString>
      <CharString index="9">
        rmoveto
        20 16 18 22 18 hvcurveto
        35 42 -19 19 -71 -35 -67 23 rlineto
        7 -22 -25 9 -17 hhcurveto
        -20 -15 -14 -23 -18 hvcurveto
        -35 -45 19 -19 71 35 67 -23 rlineto
        -8 21 24 -8 18 hhcurveto
        return
      </CharString>
      <CharString index="10">
        rmoveto
        23 -26 80 37 66 -23 rlineto
        -9 24 32 -11 20 hhcurveto
        22 17 14 20 16 hvcurveto
        37 48 -23 26 -80 -37 -66 23 rlineto
        9 -25 -32 11 -19 hhcurveto
        -22 -17 -14 -20 -16 hvcurveto
        return
      </CharString>
      <CharString index="11">
        -71 callsubr
        27 156 -70 callsubr
        -33 callsubr
        vhcurveto
        -92 callgsubr
        44 254 rlineto
        126 73 39 64 43 vvcurveto
        return
      </CharString>
      <CharString index="12">
        rmoveto
        -296 -380 28 -25 50 35 118 -22 rlineto
        -8 41 27 -7 34 hhcurveto
        44 40 18 51 47 -22 30 0 hvcurveto
        -33 hlineto
        -27 -95 -163 48 rlineto
        11 vlineto
        299 390 -26 20 -56 -40 -106 25 rlineto
        10 -41 -31 7 -34 hhcurveto
        -44 -35 -18 -51 -47 22 -30 0 hvcurveto
        33 hlineto
        27 95 151 -55 rlineto
        return
      </CharString>
      <CharString index="13">
        rmoveto
        22 -27 rlineto
        33 hlineto
        43 321 2 callgsubr
        -43 106 -18 -27 -188 rlineto
        -16 -31 -34 -16 -55 hhcurveto
        -93 -54 59 163 249 98 98 112 70 45 -28 0 hvcurveto
        6 -90 rlineto
        42 hlineto
        19 147 rlineto
        0 -75 22 -88 -205 -114 -205 -214 -165 76 -87 137 84 39 26 12 19 vhcurveto
        return
      </CharString>
      <CharString index="14">
        rmoveto
        124 36 129 0 hvcurveto
        -21 18 rlineto
        0 -47 -87 -74 -65 -8 50 36 -3 vhcurveto
        -17 -25 -6 -15 -13 hvcurveto
        -5 -6 -3 -7 -9 vvcurveto
        -40 36 -63 85 vhcurveto
        return
      </CharString>
      <CharString index="15">
        3 -2 rlineto
        -16 -22 -8 -17 -18 vvcurveto
        -36 18 -14 41 47 47 -54 callsubr
        -75 vlineto
        return
      </CharString>
      <CharString index="16">
        rmoveto
        101 65 rlineto
        21 13 33 23 21 vvcurveto
        18 -7 22 -35 12 vhcurveto
        -139 -142 rlineto
        return
      </CharString>
      <CharString index="17">
        rmoveto
        40 24 35 30 29 -19 18 -27 -42 -20 -38 -31 -24 17 -19 27 hvcurveto
        187 hmoveto
        40 23 35 30 29 -18 18 -27 -42 -21 -38 -31 -24 18 -19 27 hvcurveto
        return
      </CharString>
      <CharString index="18">
        rmoveto
        61 57 60 55 31 hvcurveto
        -68 callsubr
        hvcurveto
        24 59 rmoveto
        -49 -10 44 77 107 30 106 41 57 hvcurveto
        7 5 9 5 19 hhcurveto
        48 44 -20 -23 34 hvcurveto
        -26 callgsubr
        endchar
      </CharString>
      <CharString index="19">
        rmoveto
        47 22 20 47 27 hvcurveto
        53 91 rlineto
        176 202 82 197 73 vvcurveto
        37 -66 18 -59 vhcurveto
        -19 -36 72 -49 -27 -129 -61 -106 -85 -119 rlinecurve
        -6 62 hlineto
        -24 369 -151 -16 rlineto
        -37 vlineto
        75 -19 30 -330 rlineto
        -114 vlineto
        -65 -94 rlineto
        -100 hlineto
        -2 -41 rlineto
        -23 29 27 -3 25 hhcurveto
        return
      </CharString>
      <CharString index="20">
        rmoveto
        35 20 29 33 33 -20 21 -31 -33 -22 -28 -32 -33 -30 callsubr
        hvcurveto
        211 hmoveto
        35 20 29 33 33 -20 21 -31 -33 -22 -28 -32 -33 -30 callsubr
        hvcurveto
        return
      </CharString>
      <CharString index="21">
        rmoveto
        -86 callsubr
        -77 -546 rlineto
        return
      </CharString>
      <CharString index="22">
        vlineto
        -151 -66 callgsubr
        return
      </CharString>
      <CharString index="23">
        rmoveto
        -3 -9 callsubr
        25 181 195 364 -45 callgsubr
        -143 -286 rlineto
        -11 hlineto
        -97 -26 callsubr
        -213 0 callsubr
        -12 128 -362 -26 -186 rlineto
        return
      </CharString>
      <CharString index="24">
        rmoveto
        44 hlineto
        203 438 69 -438 rlineto
        44 hlineto
        250 604 -45 callgsubr
        -163 -427 -14 -36 -2 -5 -6 43 -62 419 rlineto
        23 vlineto
        73 15 4 37 rlineto
        -211 0 callsubr
        -12 15 -84 -163 -371 -13 -29 -2 -4 -4 33 -45 429 rlineto
        23 vlineto
        73 15 4 37 rlineto
        -211 0 callsubr
        -12 rlineto
        endchar
      </CharString>
      <CharString index="25">
        -45 -318 rlineto
        -6 -41 -3 -39 -33 vvcurveto
        -108 59 -69 122 return
      </CharString>
      <CharString index="26">
        -82 callgsubr
        186 63 100 190 26 vhcurveto
        return
      </CharString>
      <CharString index="27">
        rmoveto
        101 -65 26 32 -139 142 rlineto
        -35 -12 -7 -22 -18 vvcurveto
        -21 33 -23 21 -13 vhcurveto
        return
      </CharString>
      <CharString index="28">
        rmoveto
        79 -101 rlineto
        -19 17 9 -14 10 hhcurveto
        11 23 26 15 16 hvcurveto
        102 96 -26 30 -112 -80 -96 82 rlineto
        return
      </CharString>
      <CharString index="29">
        -64 callgsubr
        -61 callsubr
        return
      </CharString>
      <CharString index="30">
        -103 callsubr
        67 -14 -82 callgsubr
        return
      </CharString>
      <CharString index="31">
        415 hlineto
        20 149 rlineto
        -44 hlineto
        -41 -104 rlineto
        -258 hlineto
        -5 12 403 547 -26 44 rlineto
        -388 hlineto
        -22 -152 rlineto
        44 hlineto
        41 104 rlineto
        228 hlineto
        12 -22 return
      </CharString>
      <CharString index="32">
        81 hlineto
        57 375 rlineto
        18 13 30 32 66 hhcurveto
        42 hlineto
        6 7 9 16 23 vvcurveto
        32 -15 10 -21 -56 -52 -60 -41 -17 vhcurveto
        -4 hlineto
        5 10 5 23 12 vvcurveto
        50 -85 callgsubr
        return
      </CharString>
      <CharString index="33">
        rmoveto
        -31 -97 rlineto
        0 -39 -30 -72 -113 -42 72 155 214 79 128 140 40 42 -11 -9 18 vhcurveto
        7 -96 rlineto
        42 hlineto
        22 147 rlineto
        8 -30 -54 12 -74 hhcurveto
        -183 -140 -176 -240 -153 57 -102 171 88 65 25 17 35 8 callsubr
        endchar
      </CharString>
      <CharString index="34">
        rmoveto
        143 83 75 121 72 -63 56 -61 53 hvcurveto
        -60 51 -58 48 56 -55 callgsubr
        -78 73 -57 66 -55 hvcurveto
        54 -45 49 -45 -54 -47 callsubr
        return
      </CharString>
      <CharString index="35">
        677 rmoveto
        35 24 -56 135 rlineto
        -31 -5 -31 -20 -24 vvcurveto
        -19 19 -25 13 -14 vhcurveto
        204 -52 rmoveto
        35 24 -56 135 rlineto
        -31 -5 -31 -20 -24 vvcurveto
        -19 19 -25 13 -14 vhcurveto
        return
      </CharString>
      <CharString index="36">
        rmoveto
        3 -2 rlineto
        -13 -27 -6 -15 -20 vvcurveto
        -34 20 -11 39 47 47 1 callsubr
        90 561 -12 callgsubr
        -25 -139 rlineto
        10 -20 -40 15 -45 hhcurveto
        -149 -80 -237 -126 -97 36 -62 83 65 55 51 63 35 hvcurveto
        return
      </CharString>
      <CharString index="37">
        rmoveto
        -17 -144 rlineto
        0 48 -27 74 92 49 34 91 12 vhcurveto
        66 486 -61 callsubr
        -237 -64 callsubr
        87 -17 -66 -495 rlineto
        -52 -7 -14 -10 -45 hhcurveto
        -28 -24 9 0 hvcurveto
        -12 111 rlineto
        endchar
      </CharString>
      <CharString index="38">
        rlineto
        11 17 60 38 57 hhcurveto
        41 9 -17 -29 -17 -3 -19 -2 -10 hvcurveto
        -51 -43 callgsubr
        18 -14 42 return
      </CharString>
      <CharString index="39">
        rmoveto
        -29 callgsubr
        379 hlineto
        23 152 rlineto
        -42 hlineto
        -40 -106 rlineto
        -124 hlineto
        -42 5 -53 callgsubr
        return
      </CharString>
      <CharString index="40">
        -69 callsubr
        -39 callgsubr
        return
      </CharString>
      <CharString index="41">
        -19 rlineto
        -37 vlineto
        return
      </CharString>
      <CharString index="42">
        -61 callsubr
        -218 -82 callsubr
        return
      </CharString>
      <CharString index="43">
        -4 -37 rlineto
        -63 callsubr
        return
      </CharString>
      <CharString index="44">
        591 -102 callgsubr
        return
      </CharString>
      <CharString index="45">
        rmoveto
        -107 -627 rlineto
        80 hlineto
        61 398 rlineto
        13 20 59 34 54 hhcurveto
        41 7 -19 -30 -9 -3 -24 -2 -10 hvcurveto
        -47 -43 callgsubr
        17 -14 42 47 47 -54 callsubr
        -75 vlineto
        43 277 rlineto
        3 20 6 32 27 vvcurveto
        50 -22 41 -69 -60 -73 -52 -21 -27 vhcurveto
        29 187 -22 callsubr
        return
      </CharString>
      <CharString index="46">
        rmoveto
        99 57 77 0 -10 callgsubr
        0 -56 -46 -50 -75 -22 30 109 vhcurveto
        4 1 4 6 vvcurveto
        -48 callgsubr
      </CharString>
      <CharString index="47">
        rmoveto
        -58 -344 0 callgsubr
        -46 19 -19 58 60 73 -54 callsubr
        -132 vlineto
        58 384 rlineto
        123 hlineto
        8 57 rlineto
        -122 hlineto
        19 113 -71 -11 -19 -102 rlineto
        -88 hlineto
        -8 -57 rlineto
        return
      </CharString>
      <CharString index="48">
        rmoveto
        44 24 38 37 28 -19 20 -30 -40 -27 -37 -38 -28 20 -20 28 hvcurveto
        return
      </CharString>
      <CharString index="49">
        vhcurveto
        8 -104 rlineto
        44 hlineto
        17 150 rlineto
        12 -32 -60 12 -60 hhcurveto
        -120 -87 -52 -118 return
      </CharString>
      <CharString index="50">
        rlineto
        -1 -8 -1 -8 -6 vvcurveto
        -37 return
      </CharString>
      <CharString index="51">
        rmoveto
        -48 -263 rlineto
        -41 -29 -50 -57 -49 hhcurveto
        -49 -13 54 67 107 35 104 37 56 hvcurveto
        6 4 12 9 19 hhcurveto
        51 45 -18 -24 35 hvcurveto
        return
      </CharString>
      <CharString index="52">
        vvcurveto
        56 35 32 81 32 42 -8 -11 24 -58 callgsubr
        return
      </CharString>
      <CharString index="53">
        -17 -36 vvcurveto
        -64 31 -19 45 94 return
      </CharString>
      <CharString index="54">
        -12 callsubr
        -65 callgsubr
        return
      </CharString>
      <CharString index="55">
        -129 rmoveto
        -20 -29 rlineto
        -13 17 28 -16 39 hhcurveto
        47 61 14 75 22 -14 15 -18 11 hvcurveto
        -34 21 rlineto
        return
      </CharString>
      <CharString index="56">
        -93 callgsubr
        endchar
      </CharString>
      <CharString index="57">
        rmoveto
        39 87 rlineto
        -4 20 22 -3 23 hhcurveto
        228 103 203 210 108 -37 78 -70 41 hvcurveto
        36 78 -48 23 -37 -81 rlineto
        7 -25 -28 4 -30 hhcurveto
        -207 -116 -197 -215 -112 40 -82 74 -39 hvcurveto
        -37 -82 rlineto
        65 143 rmoveto
        -38 37 -13 64 96 vvcurveto
        199 4 58 137 149 hhcurveto
        31 26 -5 -8 22 hvcurveto
        -122 -556 rmoveto
        -27 -22 3 6 -20 hvcurveto
        236 517 rlineto
        32 -35 13 -57 -82 vvcurveto
        -207 -54 -145 -158 vhcurveto
        endchar
      </CharString>
      <CharString index="58">
        rmoveto
        -130 -38 72 161 199 62 137 149 124 45 -64 -153 -207 -54 -145 -158 hvcurveto
        endchar
      </CharString>
      <CharString index="59">
        140 28 116 21 163 vvcurveto
        43 -31 54 -75 -158 -74 -219 -148 -120 46 -35 101 vhcurveto
        -61 255 rmoveto
        8 62 19 85 30 46 rrcurveto
        9 6 23 5 28 hhcurveto
        54 8 -34 -24 -68 -14 -44 -162 -37 hvcurveto
        endchar
      </CharString>
      <CharString index="60">
        vhcurveto
        -11 111 rlineto
        -49 hlineto
        -16 -141 rlineto
        -20 20 70 -28 66 hhcurveto
        return
      </CharString>
      <CharString index="61">
        244 38 hmoveto
        280 hlineto
        7 45 rlineto
        -63 58 -30 76 100 vvcurveto
        209 80 121 138 105 56 -64 -120 -188 -44 -95 -132 -97 vhcurveto
        -7 -45 rlineto
        300 hlineto
        21 143 rlineto
        -40 hlineto
        -31 -77 rlineto
        -154 hlineto
        1 8 rlineto
        102 81 72 148 129 vvcurveto
        139 -91 89 -142 -178 -144 -167 -206 -77 39 -85 58 -50 vhcurveto
        -1 -9 rlineto
        -132 hlineto
        -9 77 rlineto
        -40 hlineto
        endchar
      </CharString>
</ttFont>
